<?xml version="1.0" encoding="UTF-8" standalone="no"?>
<svg width="490px" height="373px" viewBox="0 0 490 373" version="1.1" xmlns="http://www.w3.org/2000/svg" xmlns:xlink="http://www.w3.org/1999/xlink">
    <!-- Generator: Sketch 39.1 (31720) - http://www.bohemiancoding.com/sketch -->
    <title>afghanistan_outline</title>
    <desc>Created with Sketch.</desc>
    <defs>
        <polygon id="path-1" points="352.350209 5.68434189e-14 351.569451 0.0263445675 351.331153 0.331702055 351.432939 1.30166113 351.083274 1.73874146 350.279765 1.53876224 348.896675 0.875358131 348.495519 0.94241703 348.311107 1.11964412 348.174595 1.31842586 347.949468 1.43338397 347.650098 1.41182932 347.114825 1.22621987 346.804677 1.16874081 345.742512 1.16395089 345.195264 1.29088381 344.96894 1.58905642 344.555809 2.31712446 342.587151 2.52668352 341.969251 2.91706212 341.969251 3.20565488 342.642235 3.71697898 342.360828 4.21752577 341.177717 5.10246374 340.863977 5.27609839 340.103577 5.23059414 339.785047 5.40422879 339.649732 5.78861998 339.638955 6.22809526 339.682064 6.66278063 339.671287 7.02441969 339.216244 8.47456839 338.874962 8.64820304 338.42471 8.77154351 338.012776 9.00744714 337.702629 10.0552424 336.712313 11.9939631 335.84414 14.3398271 335.432206 15.0571178 335.081345 15.4079796 333.937751 15.9013415 333.589284 16.1611947 332.104408 17.7035494 330.587201 19.6997491 330.310583 19.9105057 329.496296 20.3415986 329.329846 20.5667249 329.165792 20.9499186 328.793375 21.1067885 328.391022 21.1774399 328.162303 21.3055703 328.04016 21.6995413 328.032975 22.0623778 328.155118 22.4108446 328.413774 22.755719 327.627029 23.0467067 326.84747 23.1808245 326.083477 23.025152 325.410493 22.4671262 325.020115 23.543661 325.175787 24.8501121 325.649989 26.0835168 326.218793 26.9684548 326.597196 27.1504718 327.702471 27.4905562 327.926399 27.8498003 328.022198 28.4533304 328.246127 29.0041714 328.547892 29.4556215 328.873606 29.7537941 328.690392 30.2399711 328.764636 30.8291314 329.102325 32.0625362 329.13346 32.685226 329.053228 33.0576423 328.93827 33.3977268 328.873606 33.9246181 328.452093 34.542518 328.290434 34.664661 328.143143 34.8131485 328.155118 35.1472455 328.207807 35.5328342 328.162303 35.8142421 327.968311 36.1303769 327.89766 36.217793 327.720433 36.3890327 327.60787 36.3495158 326.97081 36.3782553 326.896566 36.3890327 326.413982 37.6224374 326.330158 37.9888664 326.103834 38.1277741 324.927909 39.5863052 323.967529 39.9742888 322.960449 39.7922718 321.94738 39.4306327 321.031308 39.2749603 321.236077 39.5863052 320.195466 39.3947083 319.887714 39.2749603 319.578764 38.98996 319.454226 38.7085521 319.279394 38.4918081 318.847104 38.406787 318.1358 38.1517237 317.762186 37.5469962 317.454434 36.8764072 316.896408 36.3890327 316.114453 36.3459234 314.700229 37.0644116 314.01048 37.2560084 313.681173 37.4128784 313.330312 37.711051 312.980647 37.8966604 312.64176 37.7038661 312.379512 37.5194541 311.638272 37.2931303 311.371234 37.2560084 310.547367 37.3625842 309.122366 37.9780891 308.369151 38.1241817 303.794776 37.7038661 303.124187 38.0020387 302.548199 39.7743096 301.816538 40.4844154 300.320885 41.5765175 300.207125 41.7788917 299.989183 42.2830309 299.865843 42.49259 299.610779 42.734481 299.123405 43.070973 298.948573 43.3032842 298.742606 43.9750706 298.671955 44.7558278 298.700694 46.3652414 298.764161 46.5185189 299.073111 46.5987501 299.177291 46.7843595 299.165317 47.0118808 299.083888 47.0753472 298.991682 47.1028893 298.948573 47.2286247 298.95935 47.6225958 299.008447 48.0129744 299.11622 48.3722185 299.289855 48.6596137 299.57725 49.2918834 299.795191 50.7348472 300.071809 51.1144484 299.804771 52.0424957 300.373574 52.3011515 300.991474 52.4328743 300.887293 52.9729379 299.732922 54.9080662 299.177291 55.4457348 297.815756 56.3115131 297.279285 56.9377953 296.916449 57.2790772 296.515293 57.4239724 295.630355 57.6191617 294.959766 57.931704 294.287979 57.9879856 291.106274 55.8480882 290.926652 55.7654621 290.185412 55.2493481 289.864487 54.9080662 289.268142 53.4124132 288.661019 52.8986942 287.897027 52.4041348 287.228833 51.7922223 286.730681 50.2594475 286.216962 49.5265895 285.53799 48.8979123 284.867401 48.5242985 282.579016 48.2476805 282.454478 48.1997813 282.259289 48.1554745 282.165886 48.2895923 282.340718 48.794929 282.557462 49.0643621 283.10471 49.4762953 283.257988 49.6523249 283.381328 50.2594475 283.206496 50.6414437 282.823302 50.7348472 282.340718 50.5181032 281.895255 49.9181656 281.59828 49.2499715 281.217481 48.7135004 280.51456 48.5242985 279.770925 48.7721769 279.651177 49.2499715 280.052333 50.5181032 280.133762 51.412621 279.999644 51.8293442 279.598488 51.7922223 278.351911 50.991108 277.949557 50.7959187 277.516069 50.7564018 276.827518 50.8270532 275.516277 50.6414437 274.909155 50.6701832 274.523566 51.1144484 274.703188 51.2820957 274.794197 51.4665077 274.981004 51.9826217 274.227788 52.0951848 273.814658 52.7023074 273.629048 53.3848712 273.493733 53.7045984 272.885413 53.7836321 271.630454 54.1883805 270.95747 54.2698091 270.793415 54.459011 270.32999 55.2601254 270.029422 55.4457348 269.680956 55.4732769 268.084714 55.8361134 265.997506 55.9929834 266.475301 56.9725223 266.258557 57.597607 265.598745 57.931704 264.723387 58.02391 264.062378 57.8682376 263.401369 57.6119768 262.752334 57.5592876 262.12246 58.02391 261.868594 58.7136587 261.894938 59.5662647 262.12246 61.3313507 261.763216 61.9288934 260.956114 61.9193136 259.575419 61.4570862 258.691679 61.5768342 258.074976 62.0953432 257.537307 62.6497766 256.919408 62.9204071 256.506277 63.1754705 254.278963 65.0830566 253.937682 65.3105779 253.537723 65.4770277 253.113815 65.4638554 252.804865 65.2507039 252.643205 64.9201993 252.495915 64.5477829 252.300726 64.1993161 251.146355 62.7731171 250.848182 62.5072764 250.05066 62.0845659 249.691416 61.7768134 249.156143 60.9086402 248.804083 60.1662024 248.339461 59.6512858 246.815068 59.2896467 245.979227 58.8561589 245.216432 58.3017255 244.803301 57.7436996 244.773364 57.113825 245.061957 54.4206917 244.907482 53.641132 244.515906 53.0866986 243.914771 52.723862 243.215443 52.5466349 242.01916 52.6112989 241.600042 52.5466349 241.226428 52.362223 240.495965 51.8065921 240.103191 51.6940289 239.722392 51.7323483 239.08174 51.9299326 238.732076 51.9826217 238.527307 52.1670337 238.32134 52.5897442 238.061487 52.9909001 237.691466 53.1262154 237.144217 52.6388409 236.51554 50.896507 235.741968 50.5181032 235.042639 50.7132925 234.424739 51.1755199 233.320662 52.2903741 232.650073 52.783736 231.979484 53.1357953 231.247824 53.3429594 230.434735 53.4124132 229.567759 53.611195 228.287653 54.4362589 227.535635 54.5895364 226.78242 54.279389 226.402819 53.641132 226.153743 52.8591773 225.82683 52.1347017 225.143069 51.5156044 223.648614 50.9408138 222.982815 50.5181032 222.66189 49.8786487 222.102667 48.0524912 221.691931 47.6728899 220.98901 47.4657258 219.638252 46.4957668 219.032327 46.207174 217.413334 46.1736445 214.320242 46.8969227 209.929081 47.0980994 209.57822 47.2286247 208.917211 47.7914405 208.557966 47.9291507 207.649079 47.8992137 207.226368 47.8141926 205.008635 46.8765655 204.206323 46.7843595 203.348927 46.847826 202.692708 47.0537926 202.134682 47.4130367 201.535942 47.9291507 201.019828 48.5075337 200.742012 48.7302651 200.389953 48.794929 199.967242 48.5889624 199.464301 47.8357473 199.123019 47.6728899 198.330287 47.7758732 196.00957 48.5242985 195.125829 48.4464622 194.454043 47.942323 193.897215 47.3627425 193.359546 47.0980994 193.051793 47.0011035 192.578789 46.6107249 192.215952 46.5292962 191.10469 46.5783929 190.713114 46.5292962 190.041328 46.1808294 189.452168 45.6036439 188.52412 44.3534744 187.90622 43.828978 180.371674 41.0017269 179.733417 40.5275247 179.493921 40.2544992 179.229278 39.8497509 178.659277 38.5768293 178.404214 38.406787 177.732427 38.2582995 177.216313 38.0295807 177.134885 38.6307159 176.928918 39.7359902 176.48585 40.1096041 175.102761 40.0952343 174.5136 40.2221672 174.112444 40.4676507 173.774755 40.9011386 173.422696 41.5837024 173.422696 41.5896898 173.411918 41.5968747 172.999985 42.427926 172.658703 43.3236413 172.507821 44.2684533 172.762884 46.0742537 172.784439 47.0011035 172.610804 47.8573019 172.176119 48.4536471 171.227714 49.4140264 169.67099 51.5599111 168.485484 52.1885883 153.751686 52.5669921 151.269309 53.3848712 145.183714 56.6719547 144.20657 57.4024177 143.577893 58.4657803 143.422221 60.1063283 144.061675 63.2892311 144.20657 64.9309766 143.751528 66.3416085 138.918497 75.1981731 138.360471 76.5405486 137.926983 78.189479 137.822803 79.0408875 137.822803 79.8863086 137.99045 80.7329272 138.462257 82.3231811 138.548476 83.1865645 138.391606 84.8450747 138.012004 86.381442 137.410869 87.8160235 134.77282 91.898234 134.092651 92.7113231 132.977797 93.6094334 131.843783 94.0333414 129.372184 94.608132 128.754284 94.8679852 128.23817 95.2056747 127.844199 95.7146038 127.307728 97.3719166 126.980816 97.6497321 126.57008 97.5575261 126.010856 97.3228199 124.619384 97.0964961 123.37161 97.3300048 122.184907 97.9191651 119.957593 99.6100074 119.534883 100.146479 119.258265 100.805093 119.258265 101.549926 119.566017 103.498226 119.55524 104.022722 116.362757 102.776145 115.414353 102.565389 114.341411 102.745011 113.32954 103.052763 110.174179 104.911253 108.823421 105.247745 104.682534 105.507598 103.99997 105.663271 103.370096 106.011737 102.909066 106.487137 102.113939 107.579239 101.608602 108.023504 98.8975066 109.291636 95.9600873 109.899956 88.6482723 109.741889 87.9393639 109.899956 87.4232499 110.43523 87.2771573 111.145336 87.5046786 111.669832 87.847158 112.196723 87.9884606 112.929581 88.2052046 113.466052 89.9283788 115.014395 90.3930012 115.653849 90.61693 115.839458 91.4731284 116.165173 91.651553 116.37114 91.619221 116.662127 91.4240317 117.041729 90.4864046 117.721898 87.9058345 118.566121 87.022094 119.445072 86.9574301 120.066564 87.0400562 122.15497 87.141842 122.659109 87.7106452 123.114152 87.8244058 123.546442 87.4831239 124.837326 87.3418213 126.392853 87.1370521 127.155648 86.6915894 127.633442 86.0210004 127.802287 84.6271333 127.931615 83.948162 128.082497 81.6909115 129.168612 78.6493114 131.580338 76.392061 132.684414 75.5155054 133.569352 75.0927948 134.15492 74.6485296 134.581223 74.1443904 134.897358 71.7111103 135.949943 71.1566769 136.084061 70.8537144 136.031372 69.8657931 135.618241 69.5053515 135.633809 69.174847 135.732002 68.8371575 135.753557 68.4635437 135.558367 66.2577849 133.529836 65.3512922 133.578932 64.2567952 134.588408 60.9900688 139.022678 60.4524002 139.299296 60.1051309 138.881375 59.4764537 137.402487 59.2776719 136.78339 59.3303611 135.124879 59.2776719 134.403996 59.0525456 133.683113 58.6921041 133.034079 58.208322 132.528742 56.3498325 131.71206 55.4217852 131.085778 51.9802267 127.693316 51.0916963 127.086194 50.0941952 126.588042 48.1327224 126.54613 44.0936212 127.959157 42.093829 128.116027 37.5673533 127.426278 35.3400399 126.540143 33.7940928 124.815771 31.6170735 122.815979 31.1021569 122.588458 30.7213582 122.528584 30.4555176 122.374109 30.2483535 122.127428 30.0220297 121.806503 30.0112524 121.643646 30.1465676 121.195788 30.125013 121.022153 29.5981216 120.549149 29.5238779 120.527594 29.4747812 120.538371 29.0508731 120.164757 29.3394659 119.703728 29.3717979 119.600744 29.0508731 119.319336 28.8029947 119.184021 28.5263767 119.184021 26.7636857 119.525303 26.3098406 119.703728 26.557719 120.083329 26.9049883 121.764591 26.9912069 122.598038 26.7852403 123.455433 26.3313953 124.229006 25.5458482 125.188187 25.1758267 125.980919 24.8764566 127.270606 24.700427 127.682539 23.9903212 128.630943 23.7939344 129.082394 23.6370645 129.927815 23.7939344 132.046157 23.5233039 132.762251 22.8886393 133.135865 22.0815375 133.27118 21.3726292 133.287945 20.8888471 133.683113 20.6900654 134.559669 20.6613258 135.433829 20.6828805 135.825405 20.866095 136.002632 21.0301498 136.403788 21.0193725 136.795364 20.6828805 136.967802 20.4829013 137.157004 20.6613258 137.558159 21.8444364 139.17835 21.9462222 139.342405 21.8755709 139.803435 21.7833649 140.177049 21.8336591 140.507554 22.1952982 140.876377 21.382209 142.019971 21.1331331 142.610329 20.9379438 144.301171 20.4445819 145.829156 20.3415986 146.620691 20.227838 147.012267 19.7512408 147.783444 19.6482575 148.289978 19.6805894 148.712689 19.8362619 149.473089 19.8542241 149.828741 19.7129214 151.271704 19.4434883 152.611685 18.4124578 152.948177 18.216071 153.630741 17.5670366 154.795889 16.5036741 155.629335 15.8965516 156.329861 15.8546397 157.29982 15.9684004 158.351208 15.8366775 159.341524 15.4846183 159.803752 15.0942397 159.897155 14.6499745 159.857638 14.1853521 159.940265 13.7327046 160.195328 13.5159606 160.465958 13.3387335 160.784488 11.8143411 162.526822 11.1653067 162.972285 10.3186881 163.208188 8.48295075 163.456067 7.64830695 163.889555 7.15374757 164.742161 7.51658411 164.796047 7.80517688 164.949325 8.02072334 165.230733 8.29853878 166.199494 8.59671138 166.485692 9.4241703 166.859306 9.83610354 167.229327 10.1558308 167.701135 10.6934995 168.756115 13.1854561 171.989312 13.5662548 172.743724 11.0623234 172.899397 7.64830695 173.105363 5.26771603 173.246666 5.50601462 174.106457 4.98032075 174.683643 3.38168449 175.529064 2.20575879 176.743309 1.14359373 178.113226 0.205966619 180.020812 1.70530257e-13 181.826613 0.421513081 185.864516 1.39147216 192.023158 1.3100435 193.611017 0.2802104 195.940116 1.70530257e-13 197.257344 0.844223642 200.197159 2.95777645 202.23048 5.66887194 203.345335 8.29853878 203.551301 10.7737306 203.415986 12.0717993 203.509389 13.1974309 203.79439 13.7231247 204.09376 14.287138 204.608676 14.5865081 205.176282 14.287138 205.681619 13.7937761 205.866031 12.1951398 205.973804 11.6095719 206.371367 11.5053911 206.940171 11.6311266 207.61076 11.6910006 208.298113 11.5053911 209.106412 11.1545294 209.557863 10.0528475 210.248809 9.0828884 211.102612 7.80517688 212.835366 6.16582629 215.054297 4.34086624 217.504342 2.71947786 219.700521 2.51470872 220.260942 2.55662053 223.4175 3.05117991 225.971726 4.01036167 229.228872 5.1539554 233.085956 6.31910377 237.063986 7.55610096 241.250377 8.91643863 245.836727 10.4013143 251.331964 11.544908 255.55907 11.4742566 258.785082 11.0192141 261.918888 10.8228273 262.581095 9.93908685 263.712714 9.68043109 264.321034 9.79299425 264.556937 10.0803895 264.725782 10.2803687 264.937736 9.98938102 265.815489 10.0600324 266.215447 10.2264821 266.601036 10.3617974 267.020154 10.4120916 267.879945 10.1666081 270.31083 10.2384569 272.220811 10.6994869 275.861152 10.2803687 278.762647 10.3617974 279.679916 10.8551593 281.57912 11.2563152 285.258977 12.3735644 285.725995 15.7612363 286.216962 21.3929863 287.042026 27.1444844 287.887447 33.7306263 288.846628 39.4533849 289.671692 40.3203606 290.022554 40.9801723 290.539866 42.1848375 292.066653 42.4123588 292.781549 42.1848375 294.468799 42.1968123 295.247161 42.5273169 296.044683 43.4218347 297.527164 43.70923 298.414496 43.7631166 299.55809 43.8445453 299.958049 44.4349031 301.195046 44.8468363 302.473955 45.0096937 303.247527 45.0096937 304.022297 44.7713951 304.836584 44.135533 306.103518 44.2780332 306.559758 44.4025711 309.231336 44.2073818 309.341505 44.1247557 309.607345 44.0720665 310.311464 44.1139784 310.353375 44.1966045 310.559342 43.6278013 311.177242 40.8580293 314.517015 36.6081716 319.633848 32.7534823 324.258517 32.7534823 324.270492 30.0220297 327.525244 26.3900718 331.86611 24.4836831 334.134138 21.7115161 337.446368 16.5144514 343.618182 16.5036741 343.630157 13.9578309 346.610685 12.0203077 348.878713 13.0836702 349.361298 15.4750385 350.13487 18.27834 351.030585 21.0720616 351.928695 23.8657832 352.832793 26.6714797 353.734496 29.4640038 354.632606 32.256528 355.527124 35.0634219 356.434814 37.8547486 357.334122 40.6520627 358.227442 43.4541667 359.12675 46.2466908 360.032045 49.04161 360.921773 51.8341341 361.827068 54.6410281 362.725178 57.4335522 363.620894 60.2260764 364.515411 63.4221514 365.539257 66.886462 366.200266 72.0511948 365.712892 73.6989277 365.559614 75.3514506 365.402744 77.000381 365.248269 78.6385341 365.085412 80.2898595 364.941714 81.93879 364.784844 83.5877204 364.627975 85.2402433 364.475895 86.8760014 364.310642 88.5249318 364.156167 90.1762572 364.011272 91.8251877 363.857995 93.4633408 363.690347 95.1158636 363.538267 96.7635966 363.382595 98.4113295 363.230515 103.544928 362.755115 110.916617 364.168142 117.105195 365.363227 120.926355 367.014553 121.843625 366.632557 123.073437 364.249571 123.833837 363.258057 125.019343 362.650934 134.092651 359.950616 141.021273 360.009293 145.595648 360.04402 151.185486 361.054693 152.853576 361.115765 157.732111 359.690763 159.681609 359.12675 161.640687 358.556749 163.586592 357.993933 165.537288 357.423933 167.483193 356.856327 169.433889 356.281537 171.380992 355.712733 173.341267 355.145128 175.287173 354.578719 177.239066 354.000336 179.196946 353.435126 181.142851 352.871113 183.093547 352.301112 185.039453 351.732309 186.999728 351.156321 188.948028 350.59111 191.804019 349.752874 194.487572 347.838103 195.371313 346.654992 196.070641 345.467092 196.269423 345.353331 196.547239 345.24915 196.682554 345.075515 196.401146 344.713876 195.371313 343.918749 193.989421 342.508118 192.80631 341.693831 192.606331 341.170532 192.681772 340.557422 193.175134 339.092904 195.337783 334.682584 195.494653 333.942541 195.413225 331.597874 196.052679 326.487028 195.966461 325.694296 195.772469 324.897972 195.516208 324.393832 194.710304 323.353222 194.134316 321.806077 194.237299 320.115235 197.538752 307.611145 197.846505 307.074674 198.412913 306.765724 202.959746 305.835282 203.711764 305.49879 206.876704 302.262001 207.517356 301.362693 208.650172 296.961953 209.474039 296.39315 210.752948 296.218317 211.619924 295.546531 212.401878 294.650816 213.402972 293.785037 215.669802 292.662998 216.927157 292.309742 218.905394 292.255855 219.404743 292.526486 219.638252 293.061759 219.701719 293.939512 219.621487 294.25924 219.432285 294.495143 219.300563 294.732244 219.350857 295.041194 219.60113 295.247161 220.022643 295.394451 220.793821 295.526174 221.473989 295.540544 222.764873 295.220816 223.43187 295.186089 224.104854 295.394451 225.319099 296.072225 226.011242 296.311721 226.565676 296.38357 228.309207 296.292561 230.463474 296.484158 231.083769 296.371595 233.411671 295.384871 235.411463 295.114241 236.650855 294.581362 238.444681 294.238882 239.063778 294.011361 241.204873 292.640246 241.650336 292.228313 242.114958 291.897808 242.658614 291.732556 244.012964 291.785245 244.526684 291.544552 244.87515 290.815286 244.712293 289.175936 243.505233 288.783162 240.713906 289.156776 240.051699 288.960389 239.383505 288.548456 238.885354 287.959296 238.691362 286.422928 238.256676 285.755932 237.762117 285.154797 237.514239 284.568031 237.948924 283.87948 239.011089 283.859123 241.196491 284.341707 242.226324 284.226749 243.247775 283.814816 245.081117 282.526327 247.145573 280.202018 248.084398 279.745778 248.54423 279.724223 249.568076 279.897858 250.928413 279.816429 251.287658 279.622437 251.673246 279.083571 252.234864 278.629726 254.002345 277.650187 254.18556 277.373569 254.300518 276.548505 254.463375 276.200039 255.579427 275.165416 255.938671 274.494827 256.659554 272.818354 257.081067 272.291463 257.774409 272.249551 258.637792 272.548921 259.38023 272.960854 260.236428 273.648208 260.58729 274.173902 261.000421 274.590625 261.732081 274.693608 263.060087 274.627747 264.391685 274.742705 267.917067 276.001257 269.163644 276.206026 269.743225 276.022812 270.464108 275.589324 270.908373 275.095962 270.599423 274.742705 269.950389 274.651697 267.938622 274.693608 267.194986 274.57865 266.620196 274.323587 266.506435 273.928418 267.153075 273.425477 268.609211 272.651904 269.40314 272.372891 270.156355 272.360917 271.277197 272.803984 273.245855 273.920036 275.136676 274.261318 275.558189 274.494827 275.783315 274.981004 275.875521 276.57006 276.135375 277.143653 277.001153 278.156721 278.545903 280.39122 279.44521 281.024687 280.773216 280.867817 282.908323 279.77332 284.053115 279.416471 285.26736 279.497899 286.167865 279.112311 287.380913 278.251322 288.433498 277.280166 288.877763 276.578442 289.39268 276.249135 289.864487 275.712664 293.545541 270.043792 294.465206 269.052278 296.071027 267.847613 296.269809 267.473999 296.184788 266.96986 295.122623 263.972567 294.465206 260.240021 294.493946 259.381427 294.752602 257.71214 294.763379 256.042852 295.001677 254.349615 295.041194 253.485034 294.916656 252.652785 294.041298 250.444631 293.690436 248.746604 293.858084 247.104859 294.481971 245.598428 295.505817 244.319519 296.174011 243.886032 297.57626 243.395065 298.161828 242.908888 299.940086 240.246889 300.340045 239.466132 300.443028 238.983547 300.112524 237.660331 300.053847 236.972978 299.960444 236.659238 299.732922 236.495183 299.441935 236.371842 299.142564 236.177851 298.906661 235.920392 298.730631 235.599468 298.671955 234.82829 299.040779 234.290622 300.172398 233.434423 301.001054 232.289632 301.864437 231.628623 302.060824 231.444211 302.400909 230.291037 301.773429 225.971726 302.412883 224.61019 303.312191 223.474979 304.422255 222.745714 305.773013 222.569684 306.465157 222.591239 307.554864 222.384075 307.876986 222.479873 308.161986 222.610398 308.464949 222.67147 309.084046 222.515797 310.65993 221.384178 311.959197 221.157855 314.206867 222.277499 315.627079 222.175713 318.141788 220.640543 318.472292 220.583064 319.454226 220.659703 319.855382 220.488463 320.114038 220.126824 321.236077 217.992914 321.639628 217.838439 322.444334 218.105477 323.165218 218.164154 323.826227 217.794132 329.525036 212.999421 329.763334 211.682193 329.226863 210.445195 327.453395 208.446601 327.27976 208.154416 327.030684 207.508974 326.793583 207.303007 325.855956 206.989267 325.600893 206.819225 325.132678 206.197733 324.835703 205.487627 324.711165 204.71645 324.773434 203.948865 325.453603 201.411404 325.475157 200.445037 325.350619 200.175604 325.090766 200.000772 324.53753 199.733734 324.22858 199.476276 324.083685 199.267914 323.875323 198.640434 323.598706 197.053773 323.259819 196.619087 321.83362 196.869361 320.021832 196.092196 318.711788 195.919759 318.195674 195.598834 317.854392 194.825262 317.617291 194.043307 317.319119 193.43379 316.526387 192.261456 316.228214 191.620804 315.785146 190.094017 315.473801 189.569521 314.494262 188.580402 314.288296 187.982859 314.732561 187.391304 315.330104 186.786576 315.39357 186.185441 315.27981 185.579516 315.350461 184.943654 315.907289 184.372456 316.803005 184.062309 318.58725 183.794073 319.720067 183.867119 326.981588 186.41416 328.885581 186.596177 330.039952 187.18893 330.661445 187.366157 333.371343 187.47393 336.14351 188.075065 337.166158 188.105002 341.671079 187.465548 346.217912 187.508657 348.598503 187.053614 349.196045 185.864516 349.34094 185.35439 349.672643 185.260986 350.577938 185.547184 351.206615 185.598676 351.683212 185.448991 352.074788 185.083759 352.453192 184.526931 353.145336 184.287435 354.793068 183.95214 355.331935 183.445606 355.482817 182.691194 355.373846 182.044554 355.340317 181.382348 355.710338 180.578838 356.649163 179.507093 356.852735 178.959845 356.907819 177.993478 356.804835 177.175599 356.485108 175.762572 356.485108 175.030912 357.474227 172.208451 357.331727 171.208555 354.940359 169.879351 353.894958 168.878258 352.940566 167.711912 352.246028 166.672499 351.926301 165.908507 351.732309 165.002014 351.784998 164.102706 352.175376 163.384218 352.751364 163.12676 353.46626 163.114785 354.826598 163.332726 355.43372 163.032159 355.792965 162.220267 355.906725 161.229951 355.78578 160.383332 355.537901 159.47684 355.586998 158.85894 355.93786 158.384738 358.301686 156.454399 359.598557 155.776625 360.051205 155.321583 361.813896 152.794899 362.328812 151.405822 362.94791 150.154455 364.14539 149.228803 368.681445 147.391868 368.999975 147.104473 369.250249 146.674577 369.537644 145.723778 369.804682 145.30466 369.804682 145.289093 370.165124 145.034029 370.401027 144.69155 370.464494 144.311949 370.278884 143.896423 370.330376 142.113375 371.206932 141.02247 373.526451 139.405872 374.37307 138.105408 374.659267 137.303096 374.514372 136.741478 373.495316 135.917611 371.628445 133.774122 371.033297 132.745486 371.081196 131.640212 372.111029 130.301429 373.753972 128.869242 374.084477 128.258527 374.135968 127.465795 373.856956 126.907769 373.41269 126.40363 372.9804 125.765373 372.774433 124.85888 372.919328 124.073333 373.14206 123.329698 373.164812 122.545348 372.853467 121.940621 372.308613 121.529885 370.453716 120.620997 369.78193 120.072551 369.4634 119.37442 369.884913 118.549356 370.496826 117.763809 370.690818 117.010594 370.54712 116.278934 370.112434 115.558051 369.895691 115.332924 369.402329 114.940151 369.207139 114.651558 369.051467 114.185738 369.051467 113.816914 369.082601 113.466052 369.051467 113.052922 368.823946 112.445799 367.711486 110.423255 367.227704 109.794578 365.699719 108.712055 365.341673 108.086971 365.196778 106.73262 364.702218 106.147053 363.722679 105.72075 362.785052 105.514783 361.87856 105.145959 361.022361 104.217912 360.545764 103.859865 359.341099 103.186881 358.967485 102.846797 358.80343 102.075619 359.125552 101.437362 360.204482 100.341668 360.374524 99.9584742 360.536184 99.0843135 360.722991 98.7753636 362.041417 97.9191651 363.06167 97.4365806 363.369423 97.2078618 363.608919 96.8186807 363.775369 95.9313478 363.951398 95.6595197 366.073333 94.9206743 366.763082 94.3818082 369.3209 91.5162377 369.884913 91.133044 370.514788 90.9067202 371.332667 90.736678 371.987689 90.3810264 371.792499 89.8373703 371.444033 89.1979158 371.608087 88.5584613 372.453509 87.7333973 372.720547 87.2903296 373.012732 86.6221356 373.41269 85.3288568 373.732418 84.98039 374.36349 84.9097387 375.040066 85.1875541 376.981182 86.4940052 377.971498 87.5597627 378.454083 87.752557 378.990554 87.72262 379.527025 87.5274307 379.917404 87.0735857 379.826395 86.4940052 379.245617 85.3719661 379.207298 84.0535402 379.897046 83.609275 382.074066 83.4667749 382.617722 83.2691906 383.050012 82.8895893 383.452366 82.4656813 383.916988 82.0741052 385.518019 81.1580328 386.053293 80.597612 386.752621 80.2060359 388.135711 79.8791238 388.670985 79.3606148 388.710502 78.9810135 388.578779 78.6289543 388.514115 78.2804875 388.812288 77.9296258 389.207456 77.7128818 390.05168 77.4434487 391.998783 77.1656333 392.589141 76.8255489 392.352039 76.1358002 391.85748 75.3322909 391.978426 74.806597 392.524477 74.415021 394.00097 73.7839488 396.970721 73.10378 398.455597 73.0235488 399.836292 72.5577289 401.382239 72.6619097 402.082765 72.4763003 404.18554 70.6920546 405.816508 69.8586083 407.979158 69.3424942 410.207669 69.1856243 413.008575 69.5975575 415.979524 69.446675 416.96026 69.1652671 417.77335 68.7317792 418.607993 68.5401824 419.637827 68.9593005 420.103646 68.9796577 420.495222 68.7856659 421.308312 68.2264425 421.843585 68.0312532 426.863423 67.4947821 427.926785 67.6097402 428.918299 67.8791732 429.411661 67.9390473 429.899036 67.8791732 431.568323 67.282828 433.184922 67.4025761 435.401458 67.1044035 436.442068 67.2457061 437.537763 67.4253282 441.926528 66.6721131 446.39313 66.8673024 448.443216 67.2457061 449.483827 67.679194 452.236834 69.4251204 453.237927 69.6837761 454.236626 70.0645749 455.205388 70.0645749 457.18602 69.4131456 457.516525 68.990435 457.68058 67.559446 457.896126 66.9690882 458.382303 66.6002642 458.930749 66.4661464 461.136508 66.7427644 461.93882 66.4445918 463.58775 65.1034138 466.393447 63.3215631 467.25683 62.5994824 468.660277 62.2162887 469.37158 62.167192 470.032589 62.3839359 470.157127 62.4761419 470.270888 62.5994824 470.875615 63.505975 471.537822 64.0855555 472.073096 63.9298831 472.308999 62.5994824 472.433537 62.2797552 472.475449 61.9720027 472.411983 61.6905948 472.247928 61.4463088 471.463578 61.0870647 471.012128 60.3829463 470.61696 59.5662647 470.032589 58.8705286 467.950171 57.8251283 466.876031 57.0431736 466.316808 56.1558407 466.393447 55.3427515 466.865254 55.1367849 468.14536 55.3008397 468.856664 55.1966589 469.359605 54.9080662 469.732022 54.3835698 470.032589 53.5369512 470.393031 52.8663622 470.822926 52.6304586 471.906646 52.6112989 473.371164 52.1885883 473.847762 52.1347017 474.064506 52.2484623 474.487216 52.6927275 474.681208 52.7657738 474.959023 52.6735678 475.094339 52.5178954 475.186545 52.3538406 475.629612 51.9299326 475.733793 51.661697 475.896651 51.4557303 476.56724 51.3814866 476.742072 51.2820957 477.504867 50.5887546 477.858123 50.1444894 478.258082 49.8475142 478.794553 49.9181656 479.022074 50.2522626 480.341698 53.1357953 480.703337 53.3716989 481.339199 53.3094299 484 52.6520132 483.794033 52.5777694 483.732962 52.5466349 483.815588 52.5466349 483.001301 52.0844075 481.463737 49.465518 480.514135 48.4464622 476.2056 45.8036231 475.235641 46.3436868 471.82402 46.571208 471.537822 46.5783929 471.245637 46.5077416 470.032589 46.1353252 469.298534 45.8179929 468.671054 45.870682 468.073511 46.0024049 467.10475 45.8251778 466.723951 45.810808 466.393447 45.7006398 465.907269 44.8815633 465.576765 44.6672143 465.185189 44.6911639 464.80439 44.9653869 464.629558 44.4181384 464.226007 45.5401774 463.412918 45.6539381 462.433379 45.3952823 461.546046 45.4048622 461.001193 45.9748628 460.947306 47.4130367 460.329406 48.1470922 459.504342 48.4955589 455.775388 49.2391942 453.237927 50.166044 452.527822 50.3085442 450.638198 51.2078519 449.196431 51.3743017 448.51746 51.5814658 447.239748 52.7657738 446.763151 52.8807319 446.24584 52.7454167 445.493822 52.6819502 445.15733 52.7957108 444.608884 53.2291987 444.246048 53.2495559 444.018526 53.0723288 443.535942 52.4125171 443.286866 52.177811 442.598315 52.1275168 441.173313 52.5669921 440.642829 52.2412774 440.495539 51.3599319 440.919447 50.5360654 441.619973 49.9313379 442.328882 49.6714846 443.618568 49.5373668 444.115522 49.3002657 444.69151 48.8164837 445.260313 48.1470922 445.477057 47.5375747 445.481847 45.7653037 445.526154 45.4204294 445.742898 44.3534744 444.53464 44.2085793 443.080899 44.2409113 440.7518 43.6218139 436.722279 42.1369383 435.227823 42.1800476 433.134627 43.3344187 432.576602 43.1751538 432.012588 42.8338719 431.215066 42.7272961 430.38162 42.8123172 429.702649 43.0434309 429.166178 43.4421919 427.526827 45.1988955 427.166385 45.3749252 426.435922 45.0971097 426.143737 45.1988955 424.867223 46.207174 424.330752 46.847826 423.753566 48.0836257 423.37157 48.6596137 422.690204 49.1254336 420.277281 49.3637322 417.87753 50.8174733 417.133895 51.7012138 416.308831 51.993399 414.73175 52.2903741 413.392967 53.1046608 412.391873 54.4853556 410.824371 57.7436996 409.420924 59.9386811 409.216155 60.7457828 408.917982 61.1445438 403.918502 61.8893766 402.786883 62.4545873 400.464969 62.0306792 398.947761 62.3432216 395.555299 63.7215215 394.227294 64.632804 393.896789 65.0028255 393.413007 65.7452633 393.105255 66.0649905 391.958068 66.7140249 391.081513 67.6732066 381.331628 74.9275425 380.021584 75.4747911 378.372654 75.7873334 376.741686 75.7873334 375.163407 75.4352742 373.753972 74.6916389 372.628341 73.5061334 372.175693 72.7732754 371.804474 71.9937157 371.550608 71.1339248 371.32189 69.2083764 370.97941 68.3737326 369.071824 65.2794434 368.783231 64.5262283 368.681445 63.6197357 368.681445 61.8965615 368.567685 61.4031995 367.980919 60.5086817 367.783335 60.0536392 367.711486 59.5375252 367.783335 57.0120391 368.040794 55.2888649 368.238378 54.6494104 368.475479 54.2698091 368.349743 53.2567408 369.587938 51.1467804 369.619073 49.9708547 369.814262 49.4463583 369.906468 48.5590254 369.847791 46.7843595 369.598715 45.1641686 369.700501 44.564231 370.074115 43.6218139 370.401027 41.9309717 369.928023 38.52893 370.074115 36.6812179 370.195061 36.4393268 370.610586 35.8824985 370.762666 35.5268468 370.854872 35.0969514 371.021322 33.7952902 371.402121 32.4780619 371.452415 32.0625362 371.381764 31.6015063 371.071616 30.6986061 371.021322 30.3034376 371.299138 29.54663 372.534937 28.7455156 373.063026 27.9923005 373.197144 27.228308 373.218699 26.2224246 373.164812 25.2991672 373.063026 24.7830532 373.310904 24.488473 372.290651 23.2311187 371.269201 22.5353826 370.063338 22.4599413 365.97035 23.8693757 365.353648 24.3328006 364.692638 24.705217 363.96936 24.396267 362.691649 23.3592491 362.33959 23.3089549 362.084526 23.3867911 361.904904 23.299375 361.782761 22.755719 361.824673 22.3030714 362.165955 21.3438896 362.382699 20.2613674 363.381397 18.3789283 363.84602 16.6365944 364.46392 15.4343241 364.680664 14.1865496 365.288984 12.3532072 365.472198 11.3832481 365.255454 9.49003172 364.46392 8.23866476 363.309549 7.47227734 360.536184 6.31431385 358.464543 4.16124419 357.174857 3.20565488 356.226452 2.72546526 355.814519 2.62487691 355.412166 2.64044416 355.146325 2.76138967 354.898447 2.77456195 354.555967 2.49075911 354.328446 2.13510745 354.051828 1.35914019 353.855441 1.02025325 353.516554 0.643046944 353.163298 0.341281898 352.783696 0.118550554"></polygon>
        <filter x="-50%" y="-50%" width="200%" height="200%" filterUnits="objectBoundingBox" id="filter-2">
            <feOffset dx="0" dy="1" in="SourceAlpha" result="shadowOffsetOuter1"></feOffset>
            <feGaussianBlur stdDeviation="1.5" in="shadowOffsetOuter1" result="shadowBlurOuter1"></feGaussianBlur>
            <feColorMatrix values="0 0 0 0 0.197332058   0 0 0 0 0.197332058   0 0 0 0 0.197332058  0 0 0 0.5 0" type="matrix" in="shadowBlurOuter1"></feColorMatrix>
        </filter>
    </defs>
    <g id="live" stroke="none" stroke-width="1" fill="none" fill-rule="evenodd">
        <g id="landing" transform="translate(-154.000000, -190.000000)">
            <g id="Afghan-Slide" transform="translate(157.000000, 192.000000)">
                <g id="afghanistan_outline">
                    <use fill="black" fill-opacity="1" filter="url(#filter-2)" xlink:href="#path-1"></use>
                    <use fill="#FFFFFF" fill-rule="evenodd" xlink:href="#path-1"></use>
                </g>
            </g>
        </g>
    </g>
</svg>