<?xml version="1.0" encoding="utf-8"?>
<!-- Generator: Adobe Illustrator 16.0.4, SVG Export Plug-In . SVG Version: 6.00 Build 0)  -->
<!DOCTYPE svg PUBLIC "-//W3C//DTD SVG 1.1//EN" "http://www.w3.org/Graphics/SVG/1.1/DTD/svg11.dtd">
<svg version="1.1" id="Layer_1" xmlns:sketch="http://www.bohemiancoding.com/sketch/ns"
	 xmlns="http://www.w3.org/2000/svg" xmlns:xlink="http://www.w3.org/1999/xlink" x="0px" y="0px" width="1900px" height="300px"
	 viewBox="0 0 1900 300" enable-background="new 0 0 1900 300" xml:space="preserve">
<title>blueprint</title>
<description>Created with Sketch.</description>
<g id="Page-1" sketch:type="MSPage">
	<g id="blueprint" sketch:type="MSArtboardGroup">
		<path id="Imported-Layers" sketch:type="MSShapeGroup" fill="#FFFFFF" fill-opacity="0.2" d="M1975.223,312.522l-160.397-46.253
			c0.026-0.177,0.055-0.354,0.055-0.537c0-0.59-0.149-1.14-0.396-1.635l103.007-69.352l10.549,12.252l0.758-0.652l-10.472-12.162
			l53.37-35.933l-0.559-0.83l-53.469,35.999L1799.657,56.359c0.582-0.656,0.948-1.511,0.948-2.455c0-0.983-0.392-1.873-1.017-2.539
			l105.41-129.894l28.358-18.715l-0.549-0.834l-25.718,16.97l51.048-62.905l-0.777-0.631l-53.045,65.368L1661.155,81.185
			c-0.63-1.163-1.847-1.963-3.259-1.963c-0.715,0-1.377,0.211-1.944,0.563l-88.408-85.717c0.508-0.635,0.823-1.429,0.823-2.304
			c0-1.043-0.435-1.985-1.129-2.661l119.914-148.59l-185.365-2.011l-0.755-0.008l61.597,150.152
			c-1.023,0.664-1.703,1.811-1.703,3.118c0,0.503,0.103,0.98,0.284,1.419l-188.824,117.045c-0.682-0.824-1.702-1.362-2.854-1.362
			c-0.138,0-0.27,0.027-0.404,0.041l-65.315-261.194l40.006-44.041l-0.74-0.672l-39.557,43.547l-8.252-32.998l-0.972,0.242
			l8.414,33.646l-79.699,87.737c-0.592-0.396-1.301-0.628-2.064-0.628c-2.05,0-3.72,1.669-3.72,3.721
			c0,0.89,0.327,1.697,0.851,2.338L1096.336,74.627c-0.643-0.53-1.454-0.86-2.349-0.86c-0.384,0-0.747,0.076-1.097,0.184
			L985.482-156.656l27.718-16.076l-0.502-0.865l-27.638,16.03l-10.158-21.808l-0.906,0.422l10.195,21.89L856.27-82.867
			c-0.593-0.398-1.305-0.631-2.07-0.631c-2.053,0-3.721,1.669-3.721,3.721c0,0.087,0.02,0.168,0.025,0.253L747.991-20.065
			c-0.681-0.73-1.643-1.195-2.716-1.195c-1.381,0-2.573,0.764-3.215,1.883L602.177-94.902c0.138-0.387,0.227-0.798,0.227-1.233
			c0-2.052-1.669-3.721-3.721-3.721c-0.092,0-0.177,0.021-0.267,0.028l5.532-73.298l-0.998-0.076l-5.554,73.59
			c-1.418,0.526-2.435,1.88-2.435,3.477c0,1.399,0.784,2.604,1.928,3.24L584.496,71.311c-0.109-0.009-0.214-0.033-0.326-0.033
			c-1.873,0-3.411,1.396-3.668,3.199l-218.166-12.56c0.03-0.191,0.058-0.382,0.058-0.58c0-2.052-1.668-3.721-3.72-3.721
			c-0.405,0-0.787,0.081-1.153,0.201L298.856-70.307c1.039-0.66,1.736-1.814,1.736-3.135c0-0.437-0.09-0.851-0.23-1.241
			l156.817-81.037l-0.459-0.888L299.91-75.575c-0.043-0.062-0.095-0.115-0.142-0.173l76.542-80.071l-0.722-0.691l-76.533,80.07
			c-0.616-0.449-1.366-0.722-2.184-0.722c-0.376,0-0.73,0.072-1.072,0.175l-51.228-111.879l-0.91,0.416l51.225,111.874
			c-1.039,0.66-1.736,1.814-1.736,3.134c0,0.652,0.183,1.256,0.479,1.79L118.392,58.737c-0.676-0.69-1.616-1.121-2.656-1.121
			c-0.872,0-1.664,0.314-2.299,0.817L4.764-46.024l-0.694,0.72L112.74,59.15c-0.45,0.615-0.724,1.368-0.724,2.187
			c0,0.651,0.182,1.255,0.478,1.788L-5.257,146.302l0.598,0.802L113.08,63.935c0.676,0.69,1.615,1.123,2.656,1.123
			c0.243,0,0.481-0.028,0.711-0.072l52.237,153.823c-1.167,0.484-1.988,1.633-1.988,2.974c0,0.218,0.024,0.431,0.065,0.638
			L0,281.364l0.334,0.944l166.788-58.955c0.552,0.979,1.59,1.649,2.795,1.649c1.779,0,3.221-1.442,3.221-3.221
			c0-0.183-0.025-0.361-0.055-0.536l80.344-28.398c0.575,0.877,1.564,1.459,2.692,1.459c1.779,0,3.221-1.442,3.221-3.221
			c0-0.109-0.022-0.212-0.033-0.318l132.975-47.002c0.084,0.131,0.183,0.25,0.282,0.369L210.749,343.036
			c-0.522-0.367-1.156-0.587-1.845-0.587c-1.779,0-3.22,1.441-3.22,3.221c0,0.791,0.295,1.506,0.769,2.066L90.58,474.499
			l0.738,0.674l115.886-126.778c0.393,0.246,0.842,0.401,1.324,0.457l4.61,113.951l-56.448,34.105l0.518,0.855l55.976-33.82
			l1.432,35.413l1-0.041l-1.455-35.964l154.127-93.124c0.59,0.701,1.463,1.155,2.451,1.155c0.455,0,0.887-0.097,1.279-0.267
			l61.341,96.819l0.846-0.534l-61.348-96.831c0.671-0.59,1.103-1.445,1.103-2.408c0-0.431-0.088-0.84-0.241-1.216l113.938-68.841
			c0.656,0.584,1.513,0.951,2.46,0.951c0.889,0,1.694-0.328,2.335-0.849l128.335,127.03c-0.569,0.652-0.927,1.497-0.927,2.431
			c0,1.63,1.06,3.003,2.521,3.505l-33.423,187.074l0.984,0.176l33.42-187.057c0.073,0.005,0.144,0.022,0.219,0.022
			c2.052,0,3.721-1.669,3.721-3.721c0-1.676-1.12-3.079-2.646-3.544l18.753-104.964c0.022,0.001,0.044,0.007,0.066,0.007
			c1.365,0,2.524-0.853,2.993-2.051l189.131,41.553c-0.059,0.242-0.098,0.493-0.098,0.754c0,0.65,0.196,1.254,0.528,1.761
			L675.412,538l0.74,0.672l160.559-176.751c0.552,0.446,1.245,0.724,2.011,0.724c0.772,0,1.472-0.283,2.026-0.736l89.496,101.896
			l-3.166,3.531l0.744,0.668l3.086-3.443l27.613,31.438l0.75-0.66l-27.69-31.529l103.787-115.774
			c0.504,0.327,1.103,0.521,1.748,0.521c0.078,0,0.151-0.017,0.229-0.022l30.952,133.583l0.975-0.227l-30.95-133.571
			c1.073-0.434,1.846-1.431,1.979-2.625l135.517-6.072c0.331,1.428,1.604,2.494,3.131,2.494c0.439,0,0.857-0.09,1.239-0.248
			l78.487,127.729l91.209-3.058l-47.326-35.512c0.239-0.452,0.388-0.958,0.388-1.503c0-0.801-0.301-1.522-0.784-2.086
			l115.137-135.006l46.084,171.646l-4.821,5.941l0.776,0.632l4.365-5.38l14.014,52.194l0.966-0.26l-14.201-52.894l111.464-137.354
			c0.086,0.006,0.168,0.025,0.255,0.025c0.036,0,0.07-0.01,0.105-0.011l25.65,155.111l0.986-0.164l-25.65-155.119
			c1.517-0.47,2.629-1.868,2.629-3.538c0-0.353-0.066-0.688-0.158-1.011l78.325-96.519c0.261,0.06,0.531,0.096,0.81,0.096
			c1.613,0,2.976-1.039,3.49-2.479l145.106,41.844c-0.026,0.178-0.056,0.354-0.056,0.537c0,2.052,1.67,3.721,3.722,3.721
			c1.518,0,2.821-0.915,3.397-2.221l160.389,46.251L1975.223,312.522L1975.223,312.522z M1902.225-76.698L1798.809,50.736
			c-0.562-0.343-1.218-0.553-1.925-0.553c-2.052,0-3.721,1.669-3.721,3.721c0,0.984,0.391,1.873,1.015,2.539l-132.477,163.25
			c-0.684-0.793-1.682-1.305-2.805-1.305c-1.418,0-2.638,0.805-3.265,1.975l-139.178-40.135c0.026-0.176,0.055-0.353,0.055-0.537
			c0-0.576-0.144-1.117-0.379-1.604l139.607-92.127c0.609,0.438,1.352,0.703,2.159,0.703c2.051,0,3.72-1.669,3.72-3.721
			c0-0.276-0.035-0.543-0.092-0.801L1902.225-76.698L1902.225-76.698z M1178.948,335.674c-1.686,0-3.054,1.3-3.192,2.949
			l-135.484,6.071c-0.023-0.118-0.067-0.229-0.104-0.343l175.722-88.908c0.275,0.4,0.626,0.74,1.033,1.006l-37.478,79.274
			C1179.282,335.698,1179.118,335.674,1178.948,335.674L1178.948,335.674z M1221.287,250.466c-0.641-0.524-1.448-0.851-2.339-0.851
			c-1.298,0-2.439,0.671-3.105,1.682l-191.649-91.621c0.067-0.279,0.112-0.568,0.112-0.867c0-0.92-0.349-1.754-0.905-2.404
			l68.76-75.695c0.542,0.31,1.16,0.5,1.827,0.5c2.052,0,3.721-1.669,3.721-3.721c0-0.795-0.256-1.529-0.683-2.135l121.777-134.058
			c0.607,0.432,1.344,0.692,2.146,0.692c0.826,0,1.582-0.279,2.201-0.737l143.622,168.865c-0.589,0.658-0.959,1.52-0.959,2.472
			c0,0.801,0.26,1.538,0.691,2.145L1221.287,250.466L1221.287,250.466z M1373.241,112.715l281.196-28.426
			c0.138,0.351,0.332,0.669,0.562,0.959l-139.424,92.006c-0.681-0.779-1.672-1.281-2.787-1.281c-2.052,0-3.721,1.668-3.721,3.719
			c0,0.951,0.368,1.812,0.959,2.47l-92.255,108.174l-46.8-174.317C1372.273,115.47,1373.189,114.2,1373.241,112.715
			L1373.241,112.715z M1502.53-160.49l182.548,1.981L1566.427-11.483c-0.532-0.292-1.133-0.474-1.78-0.474
			c-0.388,0-0.756,0.076-1.107,0.187L1502.53-160.49L1502.53-160.49z M1561.725-5.96c0.683,0.872,1.731,1.444,2.922,1.444
			c0.815,0,1.565-0.271,2.179-0.718l88.35,85.658c-0.616,0.664-0.999,1.545-0.999,2.518c0,0.125,0.024,0.243,0.036,0.365
			l-281.07,28.413c-0.055-0.224-0.126-0.441-0.217-0.648L1561.725-5.96L1561.725-5.96z M1368.153,109.138
			c-0.22,0.088-0.425,0.196-0.623,0.323L1223.865-59.451c0.497-0.633,0.805-1.418,0.805-2.282c0-0.928-0.355-1.768-0.918-2.42
			l79.251-87.244L1368.153,109.138L1368.153,109.138z M1091.982,74.364c-1.03,0.663-1.717,1.812-1.717,3.124
			c0,1.024,0.417,1.95,1.088,2.624l-68.688,75.615c-0.595-0.403-1.311-0.639-2.081-0.639c-2.052,0-3.721,1.669-3.721,3.721
			c0,0.897,0.332,1.711,0.862,2.354l-69.651,76.676c-0.587-0.785-1.517-1.301-2.572-1.301c-0.883,0-1.682,0.355-2.264,0.934
			l-58.332-65.375c0.557-0.65,0.905-1.484,0.905-2.404c0-2.051-1.668-3.721-3.721-3.721c-0.19,0-0.374,0.028-0.558,0.057
			L844.006,38.554c0.998-0.668,1.657-1.804,1.657-3.093c0-1.527-0.927-2.84-2.246-3.413l10.782-108.105
			c2.052,0,3.721-1.669,3.721-3.72c0-0.91-0.341-1.733-0.884-2.379l127.58-73.997L1091.982,74.364L1091.982,74.364z
			 M490.116,291.614c-0.816,0-1.565,0.272-2.179,0.72l-50.118-49.607c0.359-0.574,0.575-1.244,0.575-1.969
			c0-2.052-1.669-3.721-3.721-3.721s-3.721,1.669-3.721,3.721c0,0.449,0.093,0.874,0.239,1.273L211.634,343.977
			c-0.053-0.085-0.11-0.162-0.17-0.241l181.829-198.917c0.601,0.418,1.329,0.666,2.115,0.666c2.052,0,3.721-1.669,3.721-3.72
			c0-0.139-0.025-0.27-0.041-0.405l181.975-64.322c0.666,1.012,1.809,1.683,3.107,1.683c0.733,0,1.412-0.22,1.989-0.587
			l77.326,108.911c-0.726,0.681-1.186,1.638-1.186,2.708c0,0.525,0.112,1.023,0.309,1.477L493.336,293.505
			C492.694,292.382,491.499,291.614,490.116,291.614L490.116,291.614z M666.021,186.031c-0.622,0-1.201,0.168-1.718,0.439
			l-77.383-108.99c0.597-0.66,0.97-1.525,0.97-2.482c0-0.337-0.06-0.657-0.144-0.968l154.408-89.556
			c0.664,1.024,1.812,1.707,3.12,1.707c1.082,0,2.049-0.472,2.729-1.212l90.584,48.908c-0.229,0.481-0.367,1.014-0.367,1.583
			c0,1.309,0.684,2.457,1.709,3.121L811.843,85.91c-0.446-0.189-0.937-0.295-1.45-0.295c-2.053,0-3.722,1.669-3.722,3.721
			c0,0.609,0.161,1.178,0.422,1.685l-138.342,96.223C668.07,186.504,667.102,186.031,666.021,186.031L666.021,186.031z
			 M814.112,89.336c0-1.179-0.561-2.218-1.419-2.901l28.151-47.437c0.35,0.108,0.713,0.183,1.098,0.183
			c0.402,0,0.782-0.08,1.147-0.199l37.483,127.321c-0.196,0.088-0.386,0.187-0.562,0.305L813.207,91.74
			C813.764,91.09,814.112,90.257,814.112,89.336L814.112,89.336z M850.721-78.493c0.412,1.112,1.337,1.966,2.489,2.286
			L842.438,31.79c-0.164-0.022-0.325-0.05-0.495-0.05c-1.123,0-2.118,0.51-2.8,1.299l-90.566-48.897
			c0.26-0.507,0.42-1.074,0.42-1.681c0-0.617-0.165-1.191-0.434-1.703L850.721-78.493L850.721-78.493z M597.864-92.512
			c0.264,0.061,0.536,0.098,0.818,0.098c1.26,0,2.371-0.633,3.044-1.594l139.952,75.563c-0.073,0.291-0.124,0.591-0.124,0.906
			c0,0.385,0.075,0.75,0.185,1.099L587.354,73.104c-0.427-0.715-1.082-1.274-1.87-1.575L597.864-92.512L597.864-92.512z
			 M580.497,75.478c0.029,0.223,0.078,0.438,0.144,0.647l-181.785,64.256c-0.55-1.368-1.885-2.338-3.447-2.338
			c-0.376,0-0.73,0.072-1.072,0.176l-33.749-73.707c0.63-0.381,1.136-0.939,1.451-1.611L580.497,75.478L580.497,75.478z
			 M172.76,220.299c-0.538-1.027-1.602-1.736-2.843-1.736c-0.086,0-0.168,0.018-0.252,0.024L117.391,64.652
			c0.251-0.126,0.482-0.279,0.697-0.456l135.241,125.309c-0.266,0.47-0.431,1.003-0.431,1.581c0,0.293,0.052,0.572,0.125,0.842
			L172.76,220.299L172.76,220.299z M259.065,189.793c-0.499-1.134-1.628-1.928-2.946-1.928c-0.839,0-1.595,0.328-2.167,0.853
			L118.775,63.471c0.427-0.606,0.682-1.339,0.682-2.134c0-0.653-0.184-1.257-0.479-1.791L294.212-70.848
			c0.676,0.694,1.616,1.127,2.659,1.127c0.376,0,0.731-0.072,1.072-0.176l58.672,128.138c-1.001,0.668-1.662,1.806-1.662,3.096
			c0,2.052,1.669,3.721,3.721,3.721c0.346,0,0.675-0.063,0.993-0.152l33.756,73.723c-1.04,0.66-1.736,1.814-1.736,3.135
			c0,0.381,0.075,0.74,0.181,1.086L259.065,189.793L259.065,189.793z M370.739,364.941c-1.779,0-3.221,1.442-3.221,3.221
			c0,0.431,0.088,0.841,0.243,1.217l-153.646,92.833l-4.587-113.384c1.481-0.291,2.598-1.593,2.598-3.158
			c0-0.268-0.042-0.522-0.104-0.771l219.635-101.98c0.676,0.941,1.772,1.561,3.018,1.561c0.965,0,1.839-0.379,2.501-0.984
			l50.044,49.535c-0.507,0.637-0.822,1.431-0.822,2.306c0,0.739,0.222,1.424,0.595,2.004l-113.8,68.758
			C372.601,365.396,371.728,364.941,370.739,364.941L370.739,364.941z M623.669,423.957c-0.03,0-0.059-0.009-0.089-0.009
			c-0.757,0-1.461,0.229-2.049,0.62l-128.39-127.084c0.434-0.607,0.695-1.346,0.695-2.149c0-0.31-0.049-0.604-0.12-0.892
			L663.14,192.077c0.449,0.556,1.048,0.974,1.743,1.198L643.54,312.733c-0.022-0.001-0.043-0.008-0.065-0.008
			c-1.779,0-3.221,1.443-3.221,3.222c0,1.408,0.91,2.594,2.171,3.03L623.669,423.957L623.669,423.957z M646.676,316.139
			c0.004-0.064,0.02-0.126,0.02-0.191c0-1.409-0.911-2.595-2.172-3.031l21.343-119.459c0.053,0.002,0.102,0.016,0.155,0.016
			c2.051,0,3.72-1.668,3.72-3.721c0-0.609-0.161-1.177-0.422-1.686l138.342-96.223c0.681,0.74,1.646,1.213,2.731,1.213
			c0.77,0,1.485-0.236,2.079-0.638l66.805,74.868c-0.557,0.65-0.905,1.482-0.905,2.404c0,2.052,1.669,3.721,3.721,3.721
			c0.771,0,1.486-0.235,2.081-0.639l58.472,65.531c-0.224,0.438-0.362,0.928-0.362,1.453c0,1.167,0.627,2.18,1.557,2.744
			l-103.63,114.081c-0.446-0.234-0.947-0.38-1.487-0.38c-1.157,0-2.161,0.614-2.729,1.529L646.676,316.139L646.676,316.139z
			 M841.425,361.164c0.324-0.503,0.518-1.098,0.518-1.74c0-0.876-0.353-1.668-0.921-2.249l103.804-114.271
			c0.219,0.047,0.444,0.074,0.678,0.074c1.779,0,3.221-1.442,3.221-3.221c0-0.339-0.066-0.658-0.163-0.966l69.894-76.942
			c0.604,0.426,1.337,0.68,2.131,0.68c1.396,0,2.601-0.782,3.237-1.924l191.601,91.6c-0.116,0.359-0.194,0.734-0.194,1.131
			c0,0.426,0.086,0.829,0.22,1.211l-175.727,88.91c-0.584-0.81-1.53-1.342-2.605-1.342c-1.779,0-3.22,1.441-3.22,3.221
			c0,0.771,0.281,1.47,0.733,2.024L930.917,463.055L841.425,361.164L841.425,361.164z M1259.222,468.576l-78.189-127.244
			c0.052-0.045,0.109-0.082,0.157-0.13l115.701,86.821c-0.239,0.449-0.387,0.955-0.387,1.5c0,1.778,1.441,3.221,3.221,3.221
			c0.871,0,1.661-0.351,2.241-0.913l45.047,33.803L1259.222,468.576L1259.222,468.576z M1301.401,426.786
			c-0.489-0.301-1.06-0.483-1.677-0.483c-0.874,0-1.662,0.35-2.24,0.914l-115.702-86.82c0.239-0.451,0.388-0.957,0.388-1.503
			c0-1.251-0.722-2.324-1.767-2.857l37.429-79.169c0.355,0.111,0.725,0.189,1.116,0.189c2.052,0,3.722-1.668,3.722-3.721
			c0-0.801-0.261-1.539-0.693-2.146l145.218-135.732c0.641,0.523,1.447,0.85,2.338,0.85c0.16,0,0.312-0.027,0.468-0.047
			l46.983,174.999L1301.401,426.786L1301.401,426.786z M1579.305,321.226c-0.664-1.011-1.806-1.683-3.105-1.683
			c-2.053,0-3.721,1.669-3.721,3.721c0,1.574,0.985,2.914,2.369,3.457L1464.16,463.119l-46.073-171.612l92.694-108.69
			c0.581,0.373,1.267,0.597,2.007,0.597c1.518,0,2.82-0.915,3.397-2.22l139.086,40.106c-0.06,0.263-0.096,0.53-0.096,0.81
			c0,1.4,0.786,2.607,1.934,3.242L1579.305,321.226L1579.305,321.226z M1662.59,222.369c0.007-0.087,0.026-0.171,0.026-0.26
			c0-0.549-0.127-1.066-0.34-1.535l132.682-163.502c0.563,0.344,1.219,0.553,1.926,0.553c0.746,0,1.439-0.226,2.022-0.606
			l117.927,136.963l-102.908,69.285c-0.682-0.765-1.664-1.256-2.766-1.256c-1.517,0-2.82,0.915-3.398,2.221L1662.59,222.369
			L1662.59,222.369z"/>
	</g>
</g>
</svg>
