<?xml version="1.0" encoding="UTF-8" standalone="no"?>
<svg width="659px" height="331px" viewBox="0 0 659 331" version="1.1" xmlns="http://www.w3.org/2000/svg" xmlns:xlink="http://www.w3.org/1999/xlink">
    <!-- Generator: Sketch 3.6.1 (26313) - http://www.bohemiancoding.com/sketch -->
    <title>geometric</title>
    <desc>Created with Sketch.</desc>
    <defs>
        <path id="path-1" d="M101.80945,107.157842 L101.80945,0.524926649 L0.583470748,0.524926649 L0.583470748,107.157842 L101.80945,107.157842 L101.80945,107.157842 Z"></path>
        <path id="path-3" d="M0.252550574,144.981242 L108.123215,144.981242 L108.123215,72.6814605 L108.123215,0.381678879 L0.252550574,0.381678879 L0.252550574,144.981242 L0.252550574,144.981242 Z"></path>
        <path id="path-5" d="M0.637216667,210.380389 L131.800936,210.380389 L131.800936,0.734597891 L0.637216667,0.734597891 L0.637216667,210.380389 L0.637216667,210.380389 Z"></path>
    </defs>
    <g id="Page-1" stroke="none" stroke-width="1" fill="none" fill-rule="evenodd">
        <g id="home" transform="translate(-740.000000, -163.000000)">
            <g id="Group" transform="translate(200.000000, 163.000000)">
                <g id="geometric" transform="translate(533.000000, -13.000000)">
                    <g id="Group-54" transform="translate(0.000000, 0.505858)">
                        <path d="M527.71571,2.24917911 L354.360261,4.72804317 L318.915577,21.4521022 L501.360479,48.2956943 L527.71571,2.24917911 Z" id="Fill-2" fill-opacity="0.25999999" fill="#FEFEFE"></path>
                        <path d="M358.675324,77.6434435 L300.19645,164.885118 L430.578051,185.899519 L358.675324,77.6434435 Z" id="Fill-4" fill-opacity="0.05" fill="#FEFEFE"></path>
                        <path d="M511.922066,135.174285 L478.206564,190.546089 L557.289619,198.282887 L511.922066,135.174285 Z" id="Fill-6" fill-opacity="0.170000002" fill="#FEFEFE"></path>
                        <path d="M300.196686,164.884882 L358.675561,77.6432071 L232.147723,156.52955 L263.60053,157.062198 L300.196686,164.884882 Z" id="Fill-8" fill-opacity="0.160000011" fill="#FEFEFE"></path>
                        <g id="Group-12" transform="translate(563.503468, 96.128867)">
                            <mask id="mask-2" fill="white">
                                <use xlink:href="#path-1"></use>
                            </mask>
                            <g id="Clip-11"></g>
                            <path d="M0.583470748,102.818648 L44.9826509,107.157842 L101.809687,98.6583169 L101.809687,30.8007921 L76.294976,0.524926649 L0.583470748,102.818648 Z" id="Fill-10" fill-opacity="0.199999988" fill="#FEFEFE" mask="url(#mask-2)"></path>
                        </g>
                        <path d="M308.554374,26.3406491 L154.354097,155.210851 L212.379959,156.194202 L308.554374,26.3406491 Z" id="Fill-13" fill-opacity="0.189999998" fill="#FEFEFE"></path>
                        <g id="Group-17" transform="translate(557.189704, 210.380389)">
                            <mask id="mask-4" fill="white">
                                <use xlink:href="#path-3"></use>
                            </mask>
                            <g id="Clip-16"></g>
                            <path d="M108.123215,0.381678879 L0.252550574,144.981557 L108.123215,144.981557 L108.123215,0.381678879 Z" id="Fill-15" fill-opacity="0.07" fill="#FEFEFE" mask="url(#mask-4)"></path>
                        </g>
                        <path d="M665.312918,194.787026 L608.485882,203.286552 L550.549991,355.361631 L557.442255,355.361631 L665.312918,210.761753 L665.312918,194.787026 Z" id="Fill-18" fill-opacity="0.26000002" fill="#FEFEFE"></path>
                        <path d="M430.578367,185.899597 L300.196765,164.885197 L263.600609,157.062513 L272.068156,170.407879 L389.423672,355.361395 L457.372404,188.517927 L430.578367,185.899597 Z" id="Fill-20" fill-opacity="0.09" fill="#FEFEFE"></path>
                        <g id="Group-24" transform="translate(131.799831, 144.981242)">
                            <mask id="mask-6" fill="white">
                                <use xlink:href="#path-5"></use>
                            </mask>
                            <g id="Clip-23"></g>
                            <path d="M100.348129,11.5483075 L22.5546604,10.2300813 L0.637216667,0.734597891 L26.1116774,210.380626 L35.0874826,210.380626 L104.381046,68.3013723 L125.973331,24.0293014 L131.800936,12.080956 L100.348129,11.5483075 Z" id="Fill-22" fill-opacity="0.179999992" fill="#FEFEFE" mask="url(#mask-6)"></path>
                        </g>
                        <path d="M263.600451,157.062356 L166.886998,355.361237 L389.423514,355.361237 L263.600451,157.062356 Z" id="Fill-25" fill-opacity="0.02" fill="#FEFEFE"></path>
                        <path d="M557.289935,198.283123 L457.372246,188.518163 L533.279478,355.361631 L550.549991,355.361631 L608.485882,203.286552 L557.289935,198.283123 Z" id="Fill-27" fill-opacity="0.1" fill="#FEFEFE"></path>
                        <path d="M665.312918,126.929344 L665.312918,107.762666 L639.798207,96.6534785 L665.312918,126.929344 Z" id="Fill-29" fill-opacity="0.01" fill="#FEFEFE"></path>
                        <path d="M416.964312,99.3814109 L462.458141,116.411191 L501.36119,48.2960095 L318.915498,21.4524174 L311.95773,24.7341939 L416.964312,99.3814109 Z" id="Fill-31" fill-opacity="0.1" fill="#FEFEFE"></path>
                        <path d="M665.312918,0.282004275 L618.533449,65.5353823 L587.077486,112.465968 L639.798207,96.6535573 L665.312918,107.762745 L665.312918,0.282004275 Z" id="Fill-33" fill-opacity="0.159999996" fill="#FEFEFE"></path>
                        <g id="Group-38" transform="translate(539.037631, 0.000000)" fill-opacity="0.1" fill="#FEFEFE">
                            <path d="M0.567212805,2.07914132 L19.9820382,56.7796184 L40.5443902,114.713808 L48.0396177,112.46581 L79.4955809,65.5360127 L126.27505,0.281846686 L0.567212805,2.07914132 Z" id="Fill-36"></path>
                        </g>
                        <path d="M587.160828,112.465968 L579.6656,114.713965 L511.922066,135.174443 L557.373277,198.283044 L564.170044,198.947279 L639.797892,96.6535573 L587.160828,112.465968 Z" id="Fill-39" fill-opacity="0.08" fill="#FEFEFE"></path>
                        <path d="M462.457826,116.411034 L417.047654,99.3812533 L358.758192,77.6435223 L430.661709,185.899597 L478.206722,190.546089 L511.922223,135.174285 L462.457826,116.411034 Z" id="Fill-41" fill-opacity="0.01" fill="#FEFEFE"></path>
                        <path d="M457.372562,188.518085 L389.725312,355.361553 L533.279794,355.361553 L457.372562,188.518085 Z" id="Fill-43" fill-opacity="0.180000007" fill="#FEFEFE"></path>
                        <path d="M212.379722,156.194438 L232.148118,156.529313 L300.347822,113.970227 L308.554137,26.3408854 L212.379722,156.194438 Z" id="Fill-45" fill-opacity="0.1" fill="#FEFEFE"></path>
                        <path d="M416.872605,99.3160117 L311.957572,24.7341939 L308.554453,26.3408066 L300.347349,113.970148 L358.675482,77.6436799 L416.872605,99.3160117 Z" id="Fill-47" fill-opacity="0.25" fill="#FEFEFE"></path>
                        <path d="M539.604844,2.07914132 L527.716026,2.24933669 L462.457747,116.411034 L511.922144,135.174285 L579.582022,114.713808 L539.604844,2.07914132 Z" id="Fill-49" fill-opacity="0.05" fill="#FEFEFE"></path>
                        <g id="Group-53" transform="translate(0.000000, 144.981242)" fill-opacity="0.1" fill="#FEFEFE">
                            <path d="M132.44415,0.785656502 L0.000315688218,210.380468 L157.911508,210.380468 L132.44415,0.785656502 Z" id="Fill-51"></path>
                        </g>
                    </g>
                </g>
            </g>
        </g>
    </g>
</svg>