<?xml version="1.0" encoding="UTF-8" standalone="no"?>
<svg width="350px" height="26px" viewBox="0 0 350 26" version="1.1" xmlns="http://www.w3.org/2000/svg" xmlns:xlink="http://www.w3.org/1999/xlink">
    <!-- Generator: Sketch 3.8.3 (29802) - http://www.bohemiancoding.com/sketch -->
    <title>ipo_logo</title>
    <desc>Created with Sketch.</desc>
    <defs></defs>
    <g id="Symbols" stroke="none" stroke-width="1" fill="none" fill-rule="evenodd">
        <g id="header_inverse" transform="translate(-104.000000, -22.000000)">
            <g id="ipo_logo" transform="translate(104.000000, 23.000000)">
                <path d="M122.10094,19.4803547 L122.10094,4.26100749 L119.43128,4.26100749 L119.43128,19.4803547 L122.10094,19.4803547 Z M135.106979,19.4803547 L135.106979,11.7223666 C135.106979,9.46342302 133.920463,8.18563675 131.547432,8.18563675 C129.813293,8.18563675 128.398601,9.09834123 127.668438,9.96541049 L127.668438,8.4594481 L125.272588,8.4594481 L125.272588,19.4803547 L127.668438,19.4803547 L127.668438,11.7908194 C128.21606,11.0378383 129.26567,10.3076747 130.497821,10.3076747 C131.844061,10.3076747 132.71113,10.878115 132.71113,12.5894359 L132.71113,19.4803547 L135.106979,19.4803547 Z M141.518728,19.754166 C142.636791,19.754166 143.344137,19.4575371 143.777672,19.0468201 L143.207231,17.2442287 C143.02469,17.4495872 142.591156,17.6321281 142.134804,17.6321281 C141.450275,17.6321281 141.085193,17.0845054 141.085193,16.3315242 L141.085193,10.5586684 L143.321319,10.5586684 L143.321319,8.4594481 L141.085193,8.4594481 L141.085193,5.44752331 L138.689344,5.44752331 L138.689344,8.4594481 L136.863935,8.4594481 L136.863935,10.5586684 L138.689344,10.5586684 L138.689344,16.9247821 C138.689344,18.7501911 139.670501,19.754166 141.518728,19.754166 L141.518728,19.754166 Z M150.57732,19.754166 C152.334276,19.754166 153.954327,19.2065433 155.049572,18.1569332 L153.954327,16.582518 C153.178528,17.3583168 151.900741,17.7918514 150.828314,17.7918514 C148.751911,17.7918514 147.496942,16.4227947 147.314401,14.757109 L155.825371,14.757109 L155.825371,14.1866687 C155.825371,10.7183917 153.703333,8.18563675 150.394779,8.18563675 C147.131861,8.18563675 144.804464,10.7640269 144.804464,13.9584926 C144.804464,17.4495872 147.268766,19.754166 150.57732,19.754166 L150.57732,19.754166 Z M153.497974,13.0686057 L147.291584,13.0686057 C147.405672,11.7223666 148.341194,10.1479514 150.394779,10.1479514 C152.562452,10.1479514 153.452339,11.7680018 153.497974,13.0686057 L153.497974,13.0686057 Z M160.594252,19.4803547 L160.594252,11.9733603 C161.073421,11.1975615 162.419661,10.5130332 163.423636,10.5130332 C163.720264,10.5130332 163.971258,10.5358508 164.176617,10.581486 L164.176617,8.20845436 C162.739107,8.20845436 161.415686,9.0298884 160.594252,10.0794985 L160.594252,8.4594481 L158.198402,8.4594481 L158.198402,19.4803547 L160.594252,19.4803547 Z M175.950505,19.4803547 L175.950505,11.7223666 C175.950505,9.46342302 174.763989,8.18563675 172.390957,8.18563675 C170.656819,8.18563675 169.242127,9.09834123 168.511963,9.96541049 L168.511963,8.4594481 L166.116114,8.4594481 L166.116114,19.4803547 L168.511963,19.4803547 L168.511963,11.7908194 C169.059586,11.0378383 170.109196,10.3076747 171.341347,10.3076747 C172.687586,10.3076747 173.554655,10.878115 173.554655,12.5894359 L173.554655,19.4803547 L175.950505,19.4803547 Z M188.180745,19.4803547 L188.180745,12.1787189 C188.180745,9.21242929 186.035889,8.18563675 183.594405,8.18563675 C181.837448,8.18563675 180.240216,8.75607705 178.962429,9.96541049 L179.943587,11.6310962 C180.901926,10.6955741 181.974354,10.2392218 183.206505,10.2392218 C184.735285,10.2392218 185.784895,11.0150206 185.784895,12.2928069 L185.784895,13.935675 C184.986279,13.0001529 183.708493,12.520983 182.225348,12.520983 C180.422756,12.520983 178.391989,13.5705932 178.391989,16.1033481 C178.391989,18.5448326 180.422756,19.754166 182.225348,19.754166 C183.685675,19.754166 184.963461,19.229361 185.784895,18.2938389 L185.784895,19.4803547 L188.180745,19.4803547 Z M183.16087,18.111298 C181.814631,18.111298 180.810656,17.3354992 180.810656,16.1489833 C180.810656,14.9396499 181.814631,14.1638511 183.16087,14.1638511 C184.21048,14.1638511 185.237273,14.5517505 185.784895,15.3047317 L185.784895,16.9704174 C185.237273,17.7233986 184.21048,18.111298 183.16087,18.111298 L183.16087,18.111298 Z M194.592494,19.754166 C195.710556,19.754166 196.417902,19.4575371 196.851437,19.0468201 L196.280997,17.2442287 C196.098456,17.4495872 195.664921,17.6321281 195.208569,17.6321281 C194.524041,17.6321281 194.158959,17.0845054 194.158959,16.3315242 L194.158959,10.5586684 L196.395085,10.5586684 L196.395085,8.4594481 L194.158959,8.4594481 L194.158959,5.44752331 L191.76311,5.44752331 L191.76311,8.4594481 L189.937701,8.4594481 L189.937701,10.5586684 L191.76311,10.5586684 L191.76311,16.9247821 C191.76311,18.7501911 192.744267,19.754166 194.592494,19.754166 L194.592494,19.754166 Z M199.749274,7.11320899 C200.570708,7.11320899 201.232419,6.45149824 201.232419,5.63006421 C201.232419,4.80863018 200.570708,4.14691943 199.749274,4.14691943 C198.950657,4.14691943 198.266129,4.80863018 198.266129,5.63006421 C198.266129,6.45149824 198.950657,7.11320899 199.749274,7.11320899 L199.749274,7.11320899 Z M200.958607,19.4803547 L200.958607,8.4594481 L198.562758,8.4594481 L198.562758,19.4803547 L200.958607,19.4803547 Z M209.036042,19.754166 C212.572772,19.754166 214.717627,17.1301407 214.717627,13.9584926 C214.717627,10.8096621 212.572772,8.18563675 209.036042,8.18563675 C205.544947,8.18563675 203.377274,10.8096621 203.377274,13.9584926 C203.377274,17.1301407 205.544947,19.754166 209.036042,19.754166 L209.036042,19.754166 Z M209.036042,17.6321281 C207.005274,17.6321281 205.864394,15.9208072 205.864394,13.9584926 C205.864394,12.0189956 207.005274,10.3076747 209.036042,10.3076747 C211.089627,10.3076747 212.230508,12.0189956 212.230508,13.9584926 C212.230508,15.9208072 211.089627,17.6321281 209.036042,17.6321281 L209.036042,17.6321281 Z M226.970685,19.4803547 L226.970685,11.7223666 C226.970685,9.46342302 225.784169,8.18563675 223.411137,8.18563675 C221.676999,8.18563675 220.262307,9.09834123 219.532143,9.96541049 L219.532143,8.4594481 L217.136294,8.4594481 L217.136294,19.4803547 L219.532143,19.4803547 L219.532143,11.7908194 C220.079766,11.0378383 221.129376,10.3076747 222.361527,10.3076747 C223.707766,10.3076747 224.574836,10.878115 224.574836,12.5894359 L224.574836,19.4803547 L226.970685,19.4803547 Z M239.200925,19.4803547 L239.200925,12.1787189 C239.200925,9.21242929 237.056069,8.18563675 234.614585,8.18563675 C232.857629,8.18563675 231.260396,8.75607705 229.98261,9.96541049 L230.963767,11.6310962 C231.922107,10.6955741 232.994534,10.2392218 234.226686,10.2392218 C235.755466,10.2392218 236.805076,11.0150206 236.805076,12.2928069 L236.805076,13.935675 C236.006459,13.0001529 234.728673,12.520983 233.245528,12.520983 C231.442937,12.520983 229.412169,13.5705932 229.412169,16.1033481 C229.412169,18.5448326 231.442937,19.754166 233.245528,19.754166 C234.705855,19.754166 235.983642,19.229361 236.805076,18.2938389 L236.805076,19.4803547 L239.200925,19.4803547 Z M234.18105,18.111298 C232.834811,18.111298 231.830836,17.3354992 231.830836,16.1489833 C231.830836,14.9396499 232.834811,14.1638511 234.18105,14.1638511 C235.23066,14.1638511 236.257453,14.5517505 236.805076,15.3047317 L236.805076,16.9704174 C236.257453,17.7233986 235.23066,18.111298 234.18105,18.111298 L234.18105,18.111298 Z M244.699969,19.4803547 L244.699969,4.26100749 L242.30412,4.26100749 L242.30412,19.4803547 L244.699969,19.4803547 Z M256.405404,19.4803547 L256.405404,13.7987693 L260.421304,13.7987693 C263.592952,13.7987693 265.395543,11.6082786 265.395543,9.0298884 C265.395543,6.45149824 263.61577,4.26100749 260.421304,4.26100749 L253.735744,4.26100749 L253.735744,19.4803547 L256.405404,19.4803547 Z M260.056222,11.4485553 L256.405404,11.4485553 L256.405404,6.61122153 L260.056222,6.61122153 C261.562185,6.61122153 262.65743,7.56956123 262.65743,9.0298884 C262.65743,10.4902156 261.562185,11.4485553 260.056222,11.4485553 L260.056222,11.4485553 Z M269.936248,19.4803547 L269.936248,11.9733603 C270.415418,11.1975615 271.761657,10.5130332 272.765632,10.5130332 C273.062261,10.5130332 273.313255,10.5358508 273.518613,10.581486 L273.518613,8.20845436 C272.081104,8.20845436 270.757682,9.0298884 269.936248,10.0794985 L269.936248,8.4594481 L267.540399,8.4594481 L267.540399,19.4803547 L269.936248,19.4803547 Z M280.43235,19.754166 C283.96908,19.754166 286.113935,17.1301407 286.113935,13.9584926 C286.113935,10.8096621 283.96908,8.18563675 280.43235,8.18563675 C276.941255,8.18563675 274.773582,10.8096621 274.773582,13.9584926 C274.773582,17.1301407 276.941255,19.754166 280.43235,19.754166 L280.43235,19.754166 Z M280.43235,17.6321281 C278.401582,17.6321281 277.260702,15.9208072 277.260702,13.9584926 C277.260702,12.0189956 278.401582,10.3076747 280.43235,10.3076747 C282.485935,10.3076747 283.626815,12.0189956 283.626815,13.9584926 C283.626815,15.9208072 282.485935,17.6321281 280.43235,17.6321281 L280.43235,17.6321281 Z M293.004854,23.9526066 C295.72015,23.9526066 298.663622,22.8801789 298.663622,18.9099144 L298.663622,8.4594481 L296.267773,8.4594481 L296.267773,9.9882281 C295.377886,8.82452989 294.122917,8.18563675 292.731043,8.18563675 C289.901659,8.18563675 287.848074,10.2848571 287.848074,13.8444045 C287.848074,17.4724048 289.924476,19.5031723 292.731043,19.5031723 C294.168552,19.5031723 295.423521,18.7730087 296.267773,17.6777633 L296.267773,19.0011848 C296.267773,21.2601284 294.579269,21.990292 293.004854,21.990292 C291.544527,21.990292 290.403646,21.6023926 289.513759,20.5756001 L288.395696,22.3097386 C289.741935,23.5418896 291.13381,23.9526066 293.004854,23.9526066 L293.004854,23.9526066 Z M293.438389,17.3811344 C291.544527,17.3811344 290.335193,15.9664424 290.335193,13.8444045 C290.335193,11.7223666 291.544527,10.3076747 293.438389,10.3076747 C294.556452,10.3076747 295.742967,10.9693854 296.267773,11.7908194 L296.267773,15.8979896 C295.742967,16.7194236 294.556452,17.3811344 293.438389,17.3811344 L293.438389,17.3811344 Z M304.162666,19.4803547 L304.162666,11.9733603 C304.641836,11.1975615 305.988075,10.5130332 306.99205,10.5130332 C307.288679,10.5130332 307.539673,10.5358508 307.745031,10.581486 L307.745031,8.20845436 C306.307522,8.20845436 304.9841,9.0298884 304.162666,10.0794985 L304.162666,8.4594481 L301.766817,8.4594481 L301.766817,19.4803547 L304.162666,19.4803547 Z M318.811573,19.4803547 L318.811573,12.1787189 C318.811573,9.21242929 316.666718,8.18563675 314.225233,8.18563675 C312.468277,8.18563675 310.871044,8.75607705 309.593258,9.96541049 L310.574415,11.6310962 C311.532755,10.6955741 312.605183,10.2392218 313.837334,10.2392218 C315.366114,10.2392218 316.415724,11.0150206 316.415724,12.2928069 L316.415724,13.935675 C315.617107,13.0001529 314.339321,12.520983 312.856176,12.520983 C311.053585,12.520983 309.022818,13.5705932 309.022818,16.1033481 C309.022818,18.5448326 311.053585,19.754166 312.856176,19.754166 C314.316504,19.754166 315.59429,19.229361 316.415724,18.2938389 L316.415724,19.4803547 L318.811573,19.4803547 Z M313.791699,18.111298 C312.445459,18.111298 311.441484,17.3354992 311.441484,16.1489833 C311.441484,14.9396499 312.445459,14.1638511 313.791699,14.1638511 C314.841309,14.1638511 315.868101,14.5517505 316.415724,15.3047317 L316.415724,16.9704174 C315.868101,17.7233986 314.841309,18.111298 313.791699,18.111298 L313.791699,18.111298 Z M337.818644,19.4803547 L337.818644,11.5170081 C337.818644,9.28088213 336.677763,8.18563675 334.646996,8.18563675 C333.004128,8.18563675 331.543801,9.21242929 330.904908,10.2164042 C330.539826,9.00707078 329.535851,8.18563675 327.892983,8.18563675 C326.227297,8.18563675 324.76697,9.28088213 324.310618,9.96541049 L324.310618,8.4594481 L321.914768,8.4594481 L321.914768,19.4803547 L324.310618,19.4803547 L324.310618,11.7908194 C324.812605,11.0606559 325.793762,10.3076747 326.843373,10.3076747 C328.143976,10.3076747 328.668782,11.1062911 328.668782,12.2928069 L328.668782,19.4803547 L331.064631,19.4803547 L331.064631,11.7680018 C331.543801,11.0606559 332.547776,10.3076747 333.620203,10.3076747 C334.89799,10.3076747 335.422795,11.1062911 335.422795,12.2928069 L335.422795,19.4803547 L337.818644,19.4803547 Z M344.686745,19.754166 C347.653035,19.754166 349.273085,18.2710213 349.273085,16.3315242 C349.273085,11.9505427 342.610342,13.4108699 342.610342,11.4485553 C342.610342,10.6727565 343.408959,10.1023162 344.663928,10.1023162 C346.032984,10.1023162 347.265135,10.6727565 347.926846,11.4257377 L348.930821,9.73723437 C347.926846,8.8473475 346.512154,8.18563675 344.64111,8.18563675 C341.857361,8.18563675 340.305764,9.73723437 340.305764,11.5398257 C340.305764,15.7610839 346.968506,14.2094863 346.968506,16.3771595 C346.968506,17.2442287 346.238343,17.8603042 344.800833,17.8603042 C343.363324,17.8603042 341.834544,17.107323 341.058745,16.3087066 L339.963499,18.0428451 C341.10438,19.1609081 342.815701,19.754166 344.686745,19.754166 L344.686745,19.754166 Z" id="International-Progra" fill="#FFFFFF"></path>
                <path d="M109.893365,0.414691943 L109.893365,23.6571768" id="Line" stroke="#FFFFFF" stroke-linecap="square"></path>
                <g id="ucdavis" transform="translate(0.000000, 4.146919)" fill="#FFFFFF">
                    <path d="M87.0853081,14.627551 L88.6574693,10.4962802 L88.928981,10.731365 C89.8925216,11.5131086 91.2009907,12.1786063 92.4343054,12.2049669 C93.5381633,12.2300311 94.0768424,11.9379036 93.9300089,11.0087997 C93.8218387,10.315213 93.0333687,10.192917 92.5416068,10.0969816 L91.4625108,9.8826395 C89.3633997,9.49155162 87.5974877,8.20290625 87.5974877,5.76174002 C87.5974877,2.06952471 90.7952437,0 94.0121141,0 C95.7015683,0 97.2533119,0.428252033 98.7042703,1.36729509 L97.3414989,5.02882837 C96.5934299,4.49254101 95.4617692,3.73845443 94.0299252,3.68702961 C93.5590154,3.66931182 92.4790505,3.91520022 92.8252822,5.00376417 C92.9747222,5.46788393 93.6428582,5.66277966 94.0533838,5.76174002 L95.2727971,6.05429968 C97.5465445,6.58194422 99.1934258,7.86972531 99.1934258,10.5066515 C99.1934258,14.2174489 95.9752521,16.0536173 92.7796682,16.0536173 C90.91384,16.0536173 88.7543447,15.5251085 87.0853081,14.627551" id="Fill-1"></path>
                    <polygon id="Fill-3" points="80.450237 0 85.9853765 0 85.9853765 15.3704847 80.450237 15.3704847"></polygon>
                    <polygon id="Fill-5" points="74.1943561 0 79.7760854 0 74.074621 15.3704847 69.5454365 15.3704847 63.8625592 0 69.424837 0 71.8100288 9.27511592"></polygon>
                    <path d="M58.8492089,4.43637025 L58.8492089,4.43637025 C58.9502712,5.09049698 59.9415608,9.79483305 59.9415608,9.79483305 L57.7638874,9.79483305 L58.8492089,4.43637025 Z M50.5924171,15.3704847 L56.3485755,15.3704847 L56.7866587,13.4405335 L60.8924254,13.4405335 L61.4386014,15.3704847 L67.1978356,15.3704847 L61.8068198,0 L55.7685656,0 L50.5924171,15.3704847 Z" id="Fill-6"></path>
                    <path d="M35.6635071,0 L41.3079158,0 C46.3447879,0 50.1932483,2.25765461 50.1932483,7.90755156 C50.1932483,12.45913 47.0567858,15.3704847 42.6519267,15.3704847 L35.6635071,15.3623774 L35.6635071,0 Z M41.2104477,10.9575828 L41.5806517,10.9575828 C43.3962684,10.9575828 44.7433388,9.89340009 44.7433388,7.88749679 C44.7433388,5.72798252 43.5501194,4.52341647 41.5553012,4.52341647 L41.2104477,4.52341647 L41.2104477,10.9575828 Z" id="Fill-7"></path>
                    <path d="M32.9788532,0.887183546 L33.2730467,3.41435256 C33.3421145,4.01408499 33.6926987,5.45335733 33.2594955,5.26014346 C32.9884702,5.14173584 32.7659672,4.4894253 32.5452128,3.9097837 C32.4324313,3.61526079 31.8956265,2.22429191 31.7553054,2.12255541 C31.0764308,1.62626934 29.3842716,1.06671856 28.2398457,1.06116152 C24.7685369,1.04876506 22.4722536,3.552851 22.4722536,7.99719745 C22.4722536,11.1847988 24.0323973,15.0080396 28.0020429,15.0080396 C29.4240511,15.0080396 32.1487291,14.5703162 32.8896772,12.5911564 C33.2249616,11.6951912 33.5322693,10.8992527 33.7534608,11.1411975 C33.9186988,11.3173128 33.7040643,12.0350253 33.6052712,12.4210256 C33.137097,14.255275 33.1126173,14.8118335 32.9644277,14.8823651 C31.1708525,15.764224 28.8706351,16.0536173 26.8576169,16.0536173 C20.4561755,16.0536173 18.2464455,12.4017897 18.2464455,8.75081703 C18.2464455,2.41451353 22.2261452,-0.254573631 28.3950295,0.0190035283 C29.9556103,0.0758562818 31.5175026,0.34729612 32.9788532,0.887183546" id="Fill-8"></path>
                    <path d="M13.6032503,0.799297272 L12.5808588,0.448999345 C12.2391901,0.14537926 12.6566884,0.060588319 12.6566884,0.060588319 C12.6566884,0.060588319 14.1336213,0.329949439 17.8126617,0.0233316936 C17.8126617,0.0233316936 18.1321046,0.0858543064 17.9115888,0.340655366 L16.7044173,0.848544536 C15.9182305,1.18599535 15.9182305,0.992432193 15.9182305,1.83948513 L15.9112576,9.70106133 C15.9112576,15.8496892 9.54680534,15.7117969 8.30782028,15.7117969 C7.71643697,15.7117969 1.87930508,15.7117969 1.87930508,10.7759364 L1.87930508,2.45357709 C1.87930508,1.00313812 2.03750121,1.04082298 1.54678816,0.871241101 L0.0702910119,0.326523542 C0.0702910119,0.326523542 -0.180730936,-0.0216331992 0.265966107,0.0010633657 C1.47270182,0.060588319 3.21939621,0.314532904 7.3281374,0.0233316936 C7.3281374,0.0233316936 7.68549503,0.108979108 7.45016196,0.362923693 L6.22207194,0.702515693 C5.28684086,1.11447976 5.41017283,0.799297272 5.38576792,1.74270355 L5.41540245,9.94858236 C5.41540245,11.9604401 6.46873587,14.4519234 9.78257422,14.4519234 C14.2935606,14.4519234 14.3358334,10.6174887 14.3358334,9.7652969 L14.3441137,1.63650075 C14.3924877,0.871241101 14.2935606,1.08921377 13.6032503,0.799297272" id="Fill-9"></path>
                </g>
            </g>
        </g>
    </g>
</svg>