<?xml version="1.0" encoding="UTF-8" standalone="no"?>
<svg width="410px" height="30px" viewBox="0 0 410 30" version="1.1" xmlns="http://www.w3.org/2000/svg" xmlns:xlink="http://www.w3.org/1999/xlink">
    <!-- Generator: Sketch 3.8.3 (29802) - http://www.bohemiancoding.com/sketch -->
    <title>ipo_logo</title>
    <desc>Created with Sketch.</desc>
    <defs></defs>
    <g id="Symbols" stroke="none" stroke-width="1" fill="none" fill-rule="evenodd">
        <g id="header_inverse" transform="translate(-104.000000, -22.000000)">
            <g id="ipo_logo" transform="translate(104.000000, 23.000000)">
                <path d="M143.03253,22.8198441 L143.03253,4.99146592 L139.905213,4.99146592 L139.905213,22.8198441 L143.03253,22.8198441 Z M158.268175,22.8198441 L158.268175,13.7319152 C158.268175,11.0857241 156.878257,9.58888877 154.09842,9.58888877 C152.067,9.58888877 150.40979,10.6580569 149.554455,11.6737666 L149.554455,9.9096392 L146.747889,9.9096392 L146.747889,22.8198441 L149.554455,22.8198441 L149.554455,13.8121028 C150.195956,12.9300391 151.4255,12.0747046 152.868877,12.0747046 C154.445899,12.0747046 155.461609,12.7429347 155.461609,14.7476249 L155.461609,22.8198441 L158.268175,22.8198441 Z M165.779081,23.1405945 C167.088812,23.1405945 167.917418,22.7931149 168.425272,22.3119892 L167.757042,20.2003822 C167.543209,20.440945 167.035354,20.6547786 166.50077,20.6547786 C165.698894,20.6547786 165.271227,20.0132778 165.271227,19.1312141 L165.271227,12.3687258 L167.890688,12.3687258 L167.890688,9.9096392 L165.271227,9.9096392 L165.271227,6.38138445 L162.46466,6.38138445 L162.46466,9.9096392 L160.326324,9.9096392 L160.326324,12.3687258 L162.46466,12.3687258 L162.46466,19.8261734 C162.46466,21.9645096 163.614016,23.1405945 165.779081,23.1405945 L165.779081,23.1405945 Z M176.390575,23.1405945 C178.448723,23.1405945 180.346497,22.4990936 181.629499,21.2695503 L180.346497,19.4252353 C179.437704,20.3340282 177.940869,20.8418831 176.684596,20.8418831 C174.252239,20.8418831 172.782132,19.2381309 172.568299,17.2868991 L182.538291,17.2868991 L182.538291,16.6186691 C182.538291,12.5558303 180.052476,9.58888877 176.176741,9.58888877 C172.354465,9.58888877 169.628087,12.6092887 169.628087,16.351377 C169.628087,20.440945 172.51484,23.1405945 176.390575,23.1405945 L176.390575,23.1405945 Z M179.811913,15.3089381 L172.54157,15.3089381 C172.675216,13.7319152 173.771113,11.8876002 176.176741,11.8876002 C178.716015,11.8876002 179.758454,13.7853736 179.811913,15.3089381 L179.811913,15.3089381 Z M188.124695,22.8198441 L188.124695,14.0259364 C188.686008,13.1171435 190.263031,12.3152674 191.439116,12.3152674 C191.786596,12.3152674 192.080617,12.3419966 192.32118,12.395455 L192.32118,9.61561797 C190.63724,9.61561797 189.086946,10.5778693 188.124695,11.8074126 L188.124695,9.9096392 L185.318129,9.9096392 L185.318129,22.8198441 L188.124695,22.8198441 Z M206.113448,22.8198441 L206.113448,13.7319152 C206.113448,11.0857241 204.72353,9.58888877 201.943693,9.58888877 C199.912273,9.58888877 198.255063,10.6580569 197.399728,11.6737666 L197.399728,9.9096392 L194.593162,9.9096392 L194.593162,22.8198441 L197.399728,22.8198441 L197.399728,13.8121028 C198.041229,12.9300391 199.270772,12.0747046 200.714149,12.0747046 C202.291172,12.0747046 203.306882,12.7429347 203.306882,14.7476249 L203.306882,22.8198441 L206.113448,22.8198441 Z M220.440301,22.8198441 L220.440301,14.2664992 C220.440301,10.7917029 217.927756,9.58888877 215.067731,9.58888877 C213.009582,9.58888877 211.138538,10.2571188 209.641703,11.6737666 L210.791059,13.6249984 C211.913685,12.5291011 213.169958,11.994517 214.613335,11.994517 C216.404191,11.994517 217.633734,12.9033099 217.633734,14.4001452 L217.633734,16.3246478 C216.698212,15.2287505 215.201377,14.6674373 213.463979,14.6674373 C211.352372,14.6674373 208.973473,15.8969806 208.973473,18.8639221 C208.973473,21.7239468 211.352372,23.1405945 213.463979,23.1405945 C215.174648,23.1405945 216.671483,22.5258228 217.633734,21.4299255 L217.633734,22.8198441 L220.440301,22.8198441 Z M214.559876,21.2160919 C212.982853,21.2160919 211.806768,20.307299 211.806768,18.9173805 C211.806768,17.5007327 212.982853,16.5919399 214.559876,16.5919399 C215.789419,16.5919399 216.992234,17.0463363 217.633734,17.9284 L217.633734,19.8796318 C216.992234,20.7616955 215.789419,21.2160919 214.559876,21.2160919 L214.559876,21.2160919 Z M227.951207,23.1405945 C229.260938,23.1405945 230.089543,22.7931149 230.597398,22.3119892 L229.929168,20.2003822 C229.715334,20.440945 229.207479,20.6547786 228.672895,20.6547786 C227.871019,20.6547786 227.443352,20.0132778 227.443352,19.1312141 L227.443352,12.3687258 L230.062814,12.3687258 L230.062814,9.9096392 L227.443352,9.9096392 L227.443352,6.38138445 L224.636786,6.38138445 L224.636786,9.9096392 L222.498449,9.9096392 L222.498449,12.3687258 L224.636786,12.3687258 L224.636786,19.8261734 C224.636786,21.9645096 225.786141,23.1405945 227.951207,23.1405945 L227.951207,23.1405945 Z M233.992006,8.33261624 C234.954258,8.33261624 235.729405,7.55746937 235.729405,6.59521807 C235.729405,5.63296678 234.954258,4.85781991 233.992006,4.85781991 C233.056484,4.85781991 232.254608,5.63296678 232.254608,6.59521807 C232.254608,7.55746937 233.056484,8.33261624 233.992006,8.33261624 L233.992006,8.33261624 Z M235.408654,22.8198441 L235.408654,9.9096392 L232.602088,9.9096392 L232.602088,22.8198441 L235.408654,22.8198441 Z M244.870792,23.1405945 C249.013818,23.1405945 251.526363,20.0667362 251.526363,16.351377 C251.526363,12.6627471 249.013818,9.58888877 244.870792,9.58888877 C240.781224,9.58888877 238.24195,12.6627471 238.24195,16.351377 C238.24195,20.0667362 240.781224,23.1405945 244.870792,23.1405945 L244.870792,23.1405945 Z M244.870792,20.6547786 C242.491893,20.6547786 241.155433,18.6500885 241.155433,16.351377 C241.155433,14.0793948 242.491893,12.0747046 244.870792,12.0747046 C247.27642,12.0747046 248.61288,14.0793948 248.61288,16.351377 C248.61288,18.6500885 247.27642,20.6547786 244.870792,20.6547786 L244.870792,20.6547786 Z M265.879945,22.8198441 L265.879945,13.7319152 C265.879945,11.0857241 264.490027,9.58888877 261.71019,9.58888877 C259.67877,9.58888877 258.02156,10.6580569 257.166225,11.6737666 L257.166225,9.9096392 L254.359659,9.9096392 L254.359659,22.8198441 L257.166225,22.8198441 L257.166225,13.8121028 C257.807726,12.9300391 259.037269,12.0747046 260.480646,12.0747046 C262.057669,12.0747046 263.073379,12.7429347 263.073379,14.7476249 L263.073379,22.8198441 L265.879945,22.8198441 Z M280.206798,22.8198441 L280.206798,14.2664992 C280.206798,10.7917029 277.694253,9.58888877 274.834228,9.58888877 C272.776079,9.58888877 270.905035,10.2571188 269.4082,11.6737666 L270.557556,13.6249984 C271.680182,12.5291011 272.936455,11.994517 274.379832,11.994517 C276.170688,11.994517 277.400232,12.9033099 277.400232,14.4001452 L277.400232,16.3246478 C276.464709,15.2287505 274.967874,14.6674373 273.230476,14.6674373 C271.118869,14.6674373 268.73997,15.8969806 268.73997,18.8639221 C268.73997,21.7239468 271.118869,23.1405945 273.230476,23.1405945 C274.941145,23.1405945 276.43798,22.5258228 277.400232,21.4299255 L277.400232,22.8198441 L280.206798,22.8198441 Z M274.326373,21.2160919 C272.74935,21.2160919 271.573265,20.307299 271.573265,18.9173805 C271.573265,17.5007327 272.74935,16.5919399 274.326373,16.5919399 C275.555917,16.5919399 276.758731,17.0463363 277.400232,17.9284 L277.400232,19.8796318 C276.758731,20.7616955 275.555917,21.2160919 274.326373,21.2160919 L274.326373,21.2160919 Z M286.648536,22.8198441 L286.648536,4.99146592 L283.841969,4.99146592 L283.841969,22.8198441 L286.648536,22.8198441 Z M300.360617,22.8198441 L300.360617,16.1642726 L305.064956,16.1642726 C308.780315,16.1642726 310.891922,13.5982692 310.891922,10.5778693 C310.891922,7.55746937 308.807045,4.99146592 305.064956,4.99146592 L297.2333,4.99146592 L297.2333,22.8198441 L300.360617,22.8198441 Z M304.637289,13.4111647 L300.360617,13.4111647 L300.360617,7.74457379 L304.637289,7.74457379 C306.401416,7.74457379 307.684418,8.8672003 307.684418,10.5778693 C307.684418,12.2885382 306.401416,13.4111647 304.637289,13.4111647 L304.637289,13.4111647 Z M316.211034,22.8198441 L316.211034,14.0259364 C316.772347,13.1171435 318.34937,12.3152674 319.525455,12.3152674 C319.872934,12.3152674 320.166956,12.3419966 320.407519,12.395455 L320.407519,9.61561797 C318.723579,9.61561797 317.173285,10.5778693 316.211034,11.8074126 L316.211034,9.9096392 L313.404467,9.9096392 L313.404467,22.8198441 L316.211034,22.8198441 Z M328.506467,23.1405945 C332.649493,23.1405945 335.162038,20.0667362 335.162038,16.351377 C335.162038,12.6627471 332.649493,9.58888877 328.506467,9.58888877 C324.416899,9.58888877 321.877625,12.6627471 321.877625,16.351377 C321.877625,20.0667362 324.416899,23.1405945 328.506467,23.1405945 L328.506467,23.1405945 Z M328.506467,20.6547786 C326.127568,20.6547786 324.791108,18.6500885 324.791108,16.351377 C324.791108,14.0793948 326.127568,12.0747046 328.506467,12.0747046 C330.912095,12.0747046 332.248555,14.0793948 332.248555,16.351377 C332.248555,18.6500885 330.912095,20.6547786 328.506467,20.6547786 L328.506467,20.6547786 Z M343.234258,28.0587678 C346.415033,28.0587678 349.8631,26.8024952 349.8631,22.151614 L349.8631,9.9096392 L347.056534,9.9096392 L347.056534,11.7004958 C346.014095,10.3373064 344.543988,9.58888877 342.913507,9.58888877 C339.599086,9.58888877 337.193458,12.0479754 337.193458,16.217731 C337.193458,20.4676742 339.625815,22.8465733 342.913507,22.8465733 C344.597447,22.8465733 346.067553,21.9912388 347.056534,20.7082371 L347.056534,22.2585308 C347.056534,24.9047219 345.078573,25.7600563 343.234258,25.7600563 C341.523589,25.7600563 340.187128,25.3056599 339.14469,24.1028458 L337.834959,26.1342652 C339.411982,27.5776421 341.042463,28.0587678 343.234258,28.0587678 L343.234258,28.0587678 Z M343.742112,20.3607574 C341.523589,20.3607574 340.106941,18.7035469 340.106941,16.217731 C340.106941,13.7319152 341.523589,12.0747046 343.742112,12.0747046 C345.051843,12.0747046 346.441762,12.8498515 347.056534,13.8121028 L347.056534,18.6233593 C346.441762,19.5856105 345.051843,20.3607574 343.742112,20.3607574 L343.742112,20.3607574 Z M356.304838,22.8198441 L356.304838,14.0259364 C356.866151,13.1171435 358.443174,12.3152674 359.619259,12.3152674 C359.966738,12.3152674 360.26076,12.3419966 360.501322,12.395455 L360.501322,9.61561797 C358.817383,9.61561797 357.267089,10.5778693 356.304838,11.8074126 L356.304838,9.9096392 L353.498271,9.9096392 L353.498271,22.8198441 L356.304838,22.8198441 Z M373.464986,22.8198441 L373.464986,14.2664992 C373.464986,10.7917029 370.952441,9.58888877 368.092416,9.58888877 C366.034267,9.58888877 364.163223,10.2571188 362.666388,11.6737666 L363.815744,13.6249984 C364.93837,12.5291011 366.194643,11.994517 367.63802,11.994517 C369.428876,11.994517 370.658419,12.9033099 370.658419,14.4001452 L370.658419,16.3246478 C369.722897,15.2287505 368.226062,14.6674373 366.488664,14.6674373 C364.377057,14.6674373 361.998158,15.8969806 361.998158,18.8639221 C361.998158,21.7239468 364.377057,23.1405945 366.488664,23.1405945 C368.199333,23.1405945 369.696168,22.5258228 370.658419,21.4299255 L370.658419,22.8198441 L373.464986,22.8198441 Z M367.584561,21.2160919 C366.007538,21.2160919 364.831453,20.307299 364.831453,18.9173805 C364.831453,17.5007327 366.007538,16.5919399 367.584561,16.5919399 C368.814104,16.5919399 370.016919,17.0463363 370.658419,17.9284 L370.658419,19.8796318 C370.016919,20.7616955 368.814104,21.2160919 367.584561,21.2160919 L367.584561,21.2160919 Z M395.730411,22.8198441 L395.730411,13.4913523 C395.730411,10.8718905 394.393951,9.58888877 392.015052,9.58888877 C390.09055,9.58888877 388.379881,10.7917029 387.631463,11.9677878 C387.203796,10.5511401 386.027711,9.58888877 384.103208,9.58888877 C382.151977,9.58888877 380.441308,10.8718905 379.906724,11.6737666 L379.906724,9.9096392 L377.100157,9.9096392 L377.100157,22.8198441 L379.906724,22.8198441 L379.906724,13.8121028 C380.494766,12.9567683 381.644122,12.0747046 382.873665,12.0747046 C384.39723,12.0747046 385.012001,13.0102267 385.012001,14.4001452 L385.012001,22.8198441 L387.818567,22.8198441 L387.818567,13.7853736 C388.379881,12.9567683 389.555966,12.0747046 390.812238,12.0747046 C392.309074,12.0747046 392.923845,13.0102267 392.923845,14.4001452 L392.923845,22.8198441 L395.730411,22.8198441 Z M403.775901,23.1405945 C407.250698,23.1405945 409.148471,21.4031963 409.148471,19.1312141 C409.148471,13.9992072 401.343544,15.7098762 401.343544,13.4111647 C401.343544,12.5023719 402.279066,11.8341418 403.749172,11.8341418 C405.352924,11.8341418 406.796301,12.5023719 407.571448,13.3844355 L408.747533,11.4064745 C407.571448,10.3640356 405.914238,9.58888877 403.722443,9.58888877 C400.46148,9.58888877 398.643895,11.4064745 398.643895,13.5180816 C398.643895,18.462984 406.448822,16.6453983 406.448822,19.1846725 C406.448822,20.2003822 405.593487,20.9220707 403.909547,20.9220707 C402.225608,20.9220707 400.434751,20.040007 399.525958,19.1044849 L398.242957,21.1359043 C399.579417,22.4456352 401.584107,23.1405945 403.775901,23.1405945 L403.775901,23.1405945 Z" id="International-Progra" fill="#FFFFFF"></path>
                <path d="M128.732227,0.485781991 L128.732227,27.7126929" id="Line" stroke="#FFFFFF" stroke-linecap="square"></path>
                <g id="ucdavis" transform="translate(0.000000, 4.857820)" fill="#FFFFFF">
                    <path d="M102.014218,17.1351312 L103.855893,12.2956425 L104.173949,12.5710276 C105.302668,13.4867844 106.835446,14.2663673 108.280186,14.2972469 C109.573277,14.3266078 110.204301,13.9844013 110.032296,12.8960226 C109.905582,12.0835352 108.981946,11.9402742 108.405882,11.8278927 L107.141798,11.5768063 C104.68284,11.1186748 102.6142,9.60911875 102.6142,6.74946688 C102.6142,2.42430037 106.360143,0 110.128476,0 C112.107551,0 113.925308,0.501666668 115.625002,1.60168853 L114.028613,5.89091323 C113.152304,5.26269089 111.826644,4.37933233 110.149341,4.31909183 C109.597704,4.2983367 108.332602,4.5863774 108.738188,5.86155231 C108.913246,6.40523546 109.69592,6.63354189 110.176821,6.74946688 L111.605277,7.09217963 C114.268809,7.71027751 116.198013,9.21882107 116.198013,12.3077918 C116.198013,16.6547259 112.428152,18.805666 108.684754,18.805666 C106.49907,18.805666 103.969375,18.1865557 102.014218,17.1351312" id="Fill-1"></path>
                    <polygon id="Fill-3" points="94.2417062 0 100.725727 0 100.725727 18.0054249 94.2417062 18.0054249"></polygon>
                    <polygon id="Fill-5" points="86.9133886 0 93.4519857 0 86.7731275 18.0054249 81.4675114 18.0054249 74.8104265 0 81.3262376 0 84.1203194 10.8651358"></polygon>
                    <path d="M68.9376447,5.19689087 L68.9376447,5.19689087 C69.056032,5.96315361 70.2172569,11.4739473 70.2172569,11.4739473 L67.6662681,11.4739473 L68.9376447,5.19689087 Z M59.2654028,18.0054249 L66.0083313,18.0054249 L66.5215145,15.7446249 L71.3311269,15.7446249 L71.970933,18.0054249 L78.7174646,18.0054249 L72.4022746,0 L65.3288912,0 L59.2654028,18.0054249 Z" id="Fill-6"></path>
                    <path d="M41.7772512,0 L48.3892728,0 C54.2896086,0 58.7978052,2.64468112 58.7978052,9.26313182 C58.7978052,14.5949809 55.1236634,18.0054249 49.9636856,18.0054249 L41.7772512,17.9959279 L41.7772512,0 Z M48.2750959,12.8360255 L48.7087634,12.8360255 C50.8356286,12.8360255 52.4136254,11.5894115 52.4136254,9.2396391 C52.4136254,6.70992238 51.0158541,5.2988593 48.6790672,5.2988593 L48.2750959,5.2988593 L48.2750959,12.8360255 Z" id="Fill-7"></path>
                    <path d="M38.6323709,1.03927215 L38.9769976,3.99967014 C39.0579055,4.70221384 39.4685899,6.38821858 38.9611233,6.16188234 C38.6436365,6.02317627 38.3829902,5.25904107 38.1243921,4.58003233 C37.9922767,4.23501978 37.3634482,2.6055991 37.199072,2.48642205 C36.403819,1.90505837 34.4215753,1.2495846 33.0809621,1.24307492 C29.0145717,1.22855335 26.32464,4.16191117 26.32464,9.36814558 C26.32464,13.1021929 28.1522369,17.5808464 32.8023931,17.5808464 C34.4681742,17.5808464 37.6599398,17.0680847 38.5279075,14.7496404 C38.9206693,13.7000811 39.2806583,12.767696 39.5397684,13.051117 C39.7333329,13.2574235 39.4819039,14.0981725 39.3661749,14.5503443 C38.8177422,16.6990364 38.7890659,17.351005 38.6154724,17.4336277 C36.5144273,18.4666624 33.8198868,18.805666 31.4617798,18.805666 C23.9629485,18.805666 21.3744076,14.5278108 21.3744076,10.2509571 C21.3744076,2.82843014 26.0363415,-0.298214825 33.2627488,0.022261276 C35.0908578,0.0888602158 36.920503,0.406832598 38.6323709,1.03927215" id="Fill-8"></path>
                    <path d="M15.9352361,0.936319662 L14.7375775,0.525970662 C14.3373369,0.170301419 14.8264064,0.070974888 14.8264064,0.070974888 C14.8264064,0.070974888 16.5565278,0.3865122 20.8662609,0.0273314125 C20.8662609,0.0273314125 21.2404654,0.100572187 20.9821469,0.399053428 L19.5680317,0.994009313 C18.64707,1.38930884 18.64707,1.16256343 18.64707,2.15482543 L18.6389018,11.3641004 C18.6389018,18.5667788 11.1834005,18.4052478 9.73201804,18.4052478 C9.03925474,18.4052478 2.20147167,18.4052478 2.20147167,12.6232398 L2.20147167,2.87419031 C2.20147167,1.17510465 2.38678713,1.21924978 1.81195185,1.02059672 L0.0823408996,0.382499006 C0.0823408996,0.382499006 -0.211713382,-0.0253417477 0.311560296,0.00124565696 C1.72516499,0.070974888 3.7712927,0.36845283 8.58438952,0.0273314125 C8.58438952,0.0273314125 9.00300847,0.127661241 8.72733258,0.425139184 L7.28871284,0.822946955 C6.19315644,1.30553343 6.33763103,0.936319662 6.30904242,2.04145273 L6.34375716,11.6540536 C6.34375716,14.0108013 7.57766202,16.929396 11.4595869,16.929396 C16.7438853,16.929396 16.7934049,12.4376296 16.7934049,11.4393478 L16.8031046,1.91704374 C16.8597713,1.02059672 16.7438853,1.27593613 15.9352361,0.936319662" id="Fill-9"></path>
                </g>
            </g>
        </g>
    </g>
</svg>