<?xml version="1.0" encoding="UTF-8" standalone="no"?>
<svg width="440px" height="27px" viewBox="0 0 440 27" version="1.1" xmlns="http://www.w3.org/2000/svg" xmlns:xlink="http://www.w3.org/1999/xlink">
    <!-- Generator: Sketch 3.8.3 (29802) - http://www.bohemiancoding.com/sketch -->
    <title>ipo_logo</title>
    <desc>Created with Sketch.</desc>
    <defs></defs>
    <g id="Symbols" stroke="none" stroke-width="1" fill="none" fill-rule="evenodd">
        <g id="header_inverse" transform="translate(-104.000000, -25.000000)" fill="#FFFFFF">
            <g id="ipo_logo" transform="translate(104.000000, 25.000000)">
                <path d="M140.91,21 L140.91,0.99 L137.4,0.99 L137.4,21 L140.91,21 Z M158.01,21 L158.01,10.8 C158.01,7.83 156.45,6.15 153.33,6.15 C151.05,6.15 149.19,7.35 148.23,8.49 L148.23,6.51 L145.08,6.51 L145.08,21 L148.23,21 L148.23,10.89 C148.95,9.9 150.33,8.94 151.95,8.94 C153.72,8.94 154.86,9.69 154.86,11.94 L154.86,21 L158.01,21 Z M166.44,21.36 C167.91,21.36 168.84,20.97 169.41,20.43 L168.66,18.06 C168.42,18.33 167.85,18.57 167.25,18.57 C166.35,18.57 165.87,17.85 165.87,16.86 L165.87,9.27 L168.81,9.27 L168.81,6.51 L165.87,6.51 L165.87,2.55 L162.72,2.55 L162.72,6.51 L160.32,6.51 L160.32,9.27 L162.72,9.27 L162.72,17.64 C162.72,20.04 164.01,21.36 166.44,21.36 L166.44,21.36 Z M178.35,21.36 C180.66,21.36 182.79,20.64 184.23,19.26 L182.79,17.19 C181.77,18.21 180.09,18.78 178.68,18.78 C175.95,18.78 174.3,16.98 174.06,14.79 L185.25,14.79 L185.25,14.04 C185.25,9.48 182.46,6.15 178.11,6.15 C173.82,6.15 170.76,9.54 170.76,13.74 C170.76,18.33 174,21.36 178.35,21.36 L178.35,21.36 Z M182.19,12.57 L174.03,12.57 C174.18,10.8 175.41,8.73 178.11,8.73 C180.96,8.73 182.13,10.86 182.19,12.57 L182.19,12.57 Z M191.52,21 L191.52,11.13 C192.15,10.11 193.92,9.21 195.24,9.21 C195.63,9.21 195.96,9.24 196.23,9.3 L196.23,6.18 C194.34,6.18 192.6,7.26 191.52,8.64 L191.52,6.51 L188.37,6.51 L188.37,21 L191.52,21 Z M211.71,21 L211.71,10.8 C211.71,7.83 210.15,6.15 207.03,6.15 C204.75,6.15 202.89,7.35 201.93,8.49 L201.93,6.51 L198.78,6.51 L198.78,21 L201.93,21 L201.93,10.89 C202.65,9.9 204.03,8.94 205.65,8.94 C207.42,8.94 208.56,9.69 208.56,11.94 L208.56,21 L211.71,21 Z M227.79,21 L227.79,11.4 C227.79,7.5 224.97,6.15 221.76,6.15 C219.45,6.15 217.35,6.9 215.67,8.49 L216.96,10.68 C218.22,9.45 219.63,8.85 221.25,8.85 C223.26,8.85 224.64,9.87 224.64,11.55 L224.64,13.71 C223.59,12.48 221.91,11.85 219.96,11.85 C217.59,11.85 214.92,13.23 214.92,16.56 C214.92,19.77 217.59,21.36 219.96,21.36 C221.88,21.36 223.56,20.67 224.64,19.44 L224.64,21 L227.79,21 Z M221.19,19.2 C219.42,19.2 218.1,18.18 218.1,16.62 C218.1,15.03 219.42,14.01 221.19,14.01 C222.57,14.01 223.92,14.52 224.64,15.51 L224.64,17.7 C223.92,18.69 222.57,19.2 221.19,19.2 L221.19,19.2 Z M236.22,21.36 C237.69,21.36 238.62,20.97 239.19,20.43 L238.44,18.06 C238.2,18.33 237.63,18.57 237.03,18.57 C236.13,18.57 235.65,17.85 235.65,16.86 L235.65,9.27 L238.59,9.27 L238.59,6.51 L235.65,6.51 L235.65,2.55 L232.5,2.55 L232.5,6.51 L230.1,6.51 L230.1,9.27 L232.5,9.27 L232.5,17.64 C232.5,20.04 233.79,21.36 236.22,21.36 L236.22,21.36 Z M243,4.74 C244.08,4.74 244.95,3.87 244.95,2.79 C244.95,1.71 244.08,0.84 243,0.84 C241.95,0.84 241.05,1.71 241.05,2.79 C241.05,3.87 241.95,4.74 243,4.74 L243,4.74 Z M244.59,21 L244.59,6.51 L241.44,6.51 L241.44,21 L244.59,21 Z M255.21,21.36 C259.86,21.36 262.68,17.91 262.68,13.74 C262.68,9.6 259.86,6.15 255.21,6.15 C250.62,6.15 247.77,9.6 247.77,13.74 C247.77,17.91 250.62,21.36 255.21,21.36 L255.21,21.36 Z M255.21,18.57 C252.54,18.57 251.04,16.32 251.04,13.74 C251.04,11.19 252.54,8.94 255.21,8.94 C257.91,8.94 259.41,11.19 259.41,13.74 C259.41,16.32 257.91,18.57 255.21,18.57 L255.21,18.57 Z M278.79,21 L278.79,10.8 C278.79,7.83 277.23,6.15 274.11,6.15 C271.83,6.15 269.97,7.35 269.01,8.49 L269.01,6.51 L265.86,6.51 L265.86,21 L269.01,21 L269.01,10.89 C269.73,9.9 271.11,8.94 272.73,8.94 C274.5,8.94 275.64,9.69 275.64,11.94 L275.64,21 L278.79,21 Z M294.87,21 L294.87,11.4 C294.87,7.5 292.05,6.15 288.84,6.15 C286.53,6.15 284.43,6.9 282.75,8.49 L284.04,10.68 C285.3,9.45 286.71,8.85 288.33,8.85 C290.34,8.85 291.72,9.87 291.72,11.55 L291.72,13.71 C290.67,12.48 288.99,11.85 287.04,11.85 C284.67,11.85 282,13.23 282,16.56 C282,19.77 284.67,21.36 287.04,21.36 C288.96,21.36 290.64,20.67 291.72,19.44 L291.72,21 L294.87,21 Z M288.27,19.2 C286.5,19.2 285.18,18.18 285.18,16.62 C285.18,15.03 286.5,14.01 288.27,14.01 C289.65,14.01 291,14.52 291.72,15.51 L291.72,17.7 C291,18.69 289.65,19.2 288.27,19.2 L288.27,19.2 Z M302.1,21 L302.1,0.99 L298.95,0.99 L298.95,21 L302.1,21 Z M317.49,21 L317.49,13.53 L322.77,13.53 C326.94,13.53 329.31,10.65 329.31,7.26 C329.31,3.87 326.97,0.99 322.77,0.99 L313.98,0.99 L313.98,21 L317.49,21 Z M322.29,10.44 L317.49,10.44 L317.49,4.08 L322.29,4.08 C324.27,4.08 325.71,5.34 325.71,7.26 C325.71,9.18 324.27,10.44 322.29,10.44 L322.29,10.44 Z M335.28,21 L335.28,11.13 C335.91,10.11 337.68,9.21 339,9.21 C339.39,9.21 339.72,9.24 339.99,9.3 L339.99,6.18 C338.1,6.18 336.36,7.26 335.28,8.64 L335.28,6.51 L332.13,6.51 L332.13,21 L335.28,21 Z M349.08,21.36 C353.73,21.36 356.55,17.91 356.55,13.74 C356.55,9.6 353.73,6.15 349.08,6.15 C344.49,6.15 341.64,9.6 341.64,13.74 C341.64,17.91 344.49,21.36 349.08,21.36 L349.08,21.36 Z M349.08,18.57 C346.41,18.57 344.91,16.32 344.91,13.74 C344.91,11.19 346.41,8.94 349.08,8.94 C351.78,8.94 353.28,11.19 353.28,13.74 C353.28,16.32 351.78,18.57 349.08,18.57 L349.08,18.57 Z M365.61,26.88 C369.18,26.88 373.05,25.47 373.05,20.25 L373.05,6.51 L369.9,6.51 L369.9,8.52 C368.73,6.99 367.08,6.15 365.25,6.15 C361.53,6.15 358.83,8.91 358.83,13.59 C358.83,18.36 361.56,21.03 365.25,21.03 C367.14,21.03 368.79,20.07 369.9,18.63 L369.9,20.37 C369.9,23.34 367.68,24.3 365.61,24.3 C363.69,24.3 362.19,23.79 361.02,22.44 L359.55,24.72 C361.32,26.34 363.15,26.88 365.61,26.88 L365.61,26.88 Z M366.18,18.24 C363.69,18.24 362.1,16.38 362.1,13.59 C362.1,10.8 363.69,8.94 366.18,8.94 C367.65,8.94 369.21,9.81 369.9,10.89 L369.9,16.29 C369.21,17.37 367.65,18.24 366.18,18.24 L366.18,18.24 Z M380.28,21 L380.28,11.13 C380.91,10.11 382.68,9.21 384,9.21 C384.39,9.21 384.72,9.24 384.99,9.3 L384.99,6.18 C383.1,6.18 381.36,7.26 380.28,8.64 L380.28,6.51 L377.13,6.51 L377.13,21 L380.28,21 Z M399.54,21 L399.54,11.4 C399.54,7.5 396.72,6.15 393.51,6.15 C391.2,6.15 389.1,6.9 387.42,8.49 L388.71,10.68 C389.97,9.45 391.38,8.85 393,8.85 C395.01,8.85 396.39,9.87 396.39,11.55 L396.39,13.71 C395.34,12.48 393.66,11.85 391.71,11.85 C389.34,11.85 386.67,13.23 386.67,16.56 C386.67,19.77 389.34,21.36 391.71,21.36 C393.63,21.36 395.31,20.67 396.39,19.44 L396.39,21 L399.54,21 Z M392.94,19.2 C391.17,19.2 389.85,18.18 389.85,16.62 C389.85,15.03 391.17,14.01 392.94,14.01 C394.32,14.01 395.67,14.52 396.39,15.51 L396.39,17.7 C395.67,18.69 394.32,19.2 392.94,19.2 L392.94,19.2 Z M424.53,21 L424.53,10.53 C424.53,7.59 423.03,6.15 420.36,6.15 C418.2,6.15 416.28,7.5 415.44,8.82 C414.96,7.23 413.64,6.15 411.48,6.15 C409.29,6.15 407.37,7.59 406.77,8.49 L406.77,6.51 L403.62,6.51 L403.62,21 L406.77,21 L406.77,10.89 C407.43,9.93 408.72,8.94 410.1,8.94 C411.81,8.94 412.5,9.99 412.5,11.55 L412.5,21 L415.65,21 L415.65,10.86 C416.28,9.93 417.6,8.94 419.01,8.94 C420.69,8.94 421.38,9.99 421.38,11.55 L421.38,21 L424.53,21 Z M433.56,21.36 C437.46,21.36 439.59,19.41 439.59,16.86 C439.59,11.1 430.83,13.02 430.83,10.44 C430.83,9.42 431.88,8.67 433.53,8.67 C435.33,8.67 436.95,9.42 437.82,10.41 L439.14,8.19 C437.82,7.02 435.96,6.15 433.5,6.15 C429.84,6.15 427.8,8.19 427.8,10.56 C427.8,16.11 436.56,14.07 436.56,16.92 C436.56,18.06 435.6,18.87 433.71,18.87 C431.82,18.87 429.81,17.88 428.79,16.83 L427.35,19.11 C428.85,20.58 431.1,21.36 433.56,21.36 L433.56,21.36 Z" id="International-Progra"></path>
                <g id="ucdavis" transform="translate(0.000000, 3.000000)">
                    <path d="M105,17.6366472 L106.895577,12.6555149 L107.222943,12.9389601 C108.384698,13.8815196 109.962337,14.6839195 111.449362,14.7157029 C112.7803,14.7459232 113.429793,14.3937009 113.252754,13.2734671 C113.122331,12.4371996 112.171662,12.2897456 111.578737,12.1740749 L110.277656,11.9156396 C107.746728,11.4440994 105.617542,9.89036125 105.617542,6.94701225 C105.617542,2.49525551 109.473122,0 113.351749,0 C115.388748,0 117.259707,0.516349594 119.009149,1.64856722 L117.366036,6.0633302 C116.464078,5.41672087 115.099619,4.50750791 113.373224,4.44550428 C112.805441,4.42414168 111.503312,4.72061284 111.920769,6.03310994 C112.100951,6.59270577 112.906532,6.82769433 113.401509,6.94701225 L114.871772,7.29975562 C117.613262,7.93594417 119.59893,9.48864023 119.59893,12.6680199 C119.59893,17.1421813 115.718733,19.3560758 111.865771,19.3560758 C109.616116,19.3560758 107.012381,18.7188451 105,17.6366472" id="Fill-1"></path>
                    <polygon id="Fill-3" points="97 0 103.673797 0 103.673797 18.532413 97 18.532413"></polygon>
                    <polygon id="Fill-5" points="89.4571951 0 96.1871658 0 89.3128288 18.532413 83.8519263 18.532413 77 0 83.7065177 0 86.5823776 11.1831398"></polygon>
                    <path d="M70.9553319,5.34899499 L70.9553319,5.34899499 C71.0771842,6.13768493 72.2723962,11.8097701 72.2723962,11.8097701 L69.6467443,11.8097701 L70.9553319,5.34899499 Z M61,18.532413 L67.9402824,18.532413 L68.4684856,16.2054432 L73.4188672,16.2054432 L74.0773994,18.532413 L81.0213904,18.532413 L74.5213655,0 L67.2409563,0 L61,18.532413 Z" id="Fill-6"></path>
                    <path d="M43,0 L49.8055442,0 C55.8785728,0 60.5187166,2.72208642 60.5187166,9.53424788 C60.5187166,15.0221511 56.7370389,18.532413 51.4260373,18.532413 L43,18.5226379 L43,0 Z M49.6880255,13.2117141 L50.1343857,13.2117141 C52.3235007,13.2117141 53.9476828,11.9286138 53.9476828,9.51006756 C53.9476828,6.90631036 52.5090011,5.45394786 50.1038203,5.45394786 L49.6880255,5.45394786 L49.6880255,13.2117141 Z" id="Fill-7"></path>
                    <path d="M39.7630744,1.06968988 L40.1177878,4.11673366 C40.2010637,4.83983962 40.6237682,6.57519084 40.1014488,6.34223011 C39.7746698,6.19946436 39.5063948,5.41296422 39.240228,4.71408206 C39.1042458,4.35897158 38.4570125,2.68186054 38.2878253,2.55919538 C37.4692966,1.96081618 35.4290361,1.2861578 34.0491853,1.27945761 C29.8637787,1.26451101 27.0951172,4.2837232 27.0951172,9.64233521 C27.0951172,13.4856717 28.9762048,18.0954078 33.7624631,18.0954078 C35.4769988,18.0954078 38.762182,17.5676384 39.6555536,15.1813372 C40.0598109,14.1010591 40.4303361,13.1413846 40.6970299,13.4331009 C40.8962597,13.6454457 40.6374718,14.510802 40.5183556,14.976208 C39.9538712,17.1877887 39.9243557,17.8588393 39.7456814,17.9438802 C37.5831422,19.0071501 34.8097371,19.3560758 32.3826124,19.3560758 C24.664303,19.3560758 22,14.953015 22,10.5509851 C22,2.91121346 26.7983808,-0.306943064 34.2362927,0.0229128255 C36.1179073,0.0914610026 38.0011031,0.418739893 39.7630744,1.06968988" id="Fill-8"></path>
                    <path d="M16.4016332,0.963724139 L15.1689212,0.541364925 C14.7569663,0.17528585 15.26035,0.0730522018 15.26035,0.0730522018 C15.26035,0.0730522018 17.0411091,0.397824752 21.4769807,0.0281313562 C21.4769807,0.0281313562 21.8621375,0.103515764 21.5962585,0.410733041 L20.1407545,1.02310227 C19.1928379,1.42997154 19.1928379,1.19658967 19.1928379,2.21789349 L19.1844306,11.6967082 C19.1844306,19.1101967 11.5107196,18.943938 10.0168576,18.943938 C9.30381829,18.943938 2.26590499,18.943938 2.26590499,12.9927004 L2.26590499,2.95831295 C2.26590499,1.20949796 2.45664431,1.25493514 1.86498459,1.05046784 L0.0847508772,0.393694099 C0.0847508772,0.393694099 -0.217909871,-0.0260834574 0.320679134,0.00128211522 C1.77565763,0.0730522018 3.881672,0.379236816 8.83563995,0.0281313562 C8.83563995,0.0281313562 9.26651115,0.131397668 8.9827667,0.437582282 L7.50204102,0.847033207 C6.37441956,1.34374417 6.52312267,0.963724139 6.49369732,2.10120256 L6.5294281,11.9951479 C6.5294281,14.4208735 7.79944725,17.4248905 11.7949895,17.4248905 C17.2339503,17.4248905 17.2849192,12.8016578 17.2849192,11.774158 L17.2949028,1.97315234 C17.353228,1.05046784 17.2339503,1.3132806 16.4016332,0.963724139" id="Fill-9"></path>
                </g>
            </g>
        </g>
    </g>
</svg>