<?xml version="1.0" encoding="UTF-8" standalone="no"?>
<svg width="229px" height="43px" viewBox="0 0 229 43" version="1.1" xmlns="http://www.w3.org/2000/svg" xmlns:xlink="http://www.w3.org/1999/xlink">
    <!-- Generator: Sketch 39.1 (31720) - http://www.bohemiancoding.com/sketch -->
    <title>ipo_logo</title>
    <desc>Created with Sketch.</desc>
    <defs></defs>
    <g id="Symbols" stroke="none" stroke-width="1" fill="none" fill-rule="evenodd">
        <g id="header_inverse" transform="translate(-61.000000, -16.000000)">
            <g id="ipo_logo" transform="translate(61.000000, 16.000000)">
                <g id="Page-1" transform="translate(96.156830, 0.000000)" fill="#FFFFFF">
                    <path d="M4.52253505,2.2413609 C4.45059873,2.143702 4.36855566,2.05825047 4.27700035,1.9850063 C4.18514779,1.91176214 4.0864583,1.85012985 3.98093189,1.80010944 C3.87510822,1.75008903 3.76423117,1.71227598 3.64830074,1.6866703 C3.53207306,1.66106461 3.41465635,1.64826177 3.29634786,1.64826177 C3.08261972,1.64826177 2.8876188,1.6866703 2.71104785,1.76348735 C2.53477415,1.84000667 2.38376734,1.9460023 2.25832468,2.08087875 C2.13288201,2.21575521 2.03538155,2.37385543 1.96552604,2.55547715 C1.89596778,2.73680113 1.86118866,2.93211891 1.86118866,3.14172824 C1.86118866,3.35550594 1.89596778,3.55201469 1.96552604,3.73125448 C2.03538155,3.91049428 2.13407104,4.06442613 2.26189177,4.19364552 C2.38941523,4.32256716 2.5428001,4.42379894 2.72145186,4.49704311 C2.90040087,4.57028728 3.09896888,4.60690937 3.31715589,4.60690937 C3.43100551,4.60690937 3.54426062,4.59351104 3.65692121,4.56701214 C3.7695818,4.54021549 3.87748628,4.50180696 3.98093189,4.45178655 C4.08408024,4.40176614 4.18187796,4.3419203 4.27343327,4.27195128 C4.36528583,4.20227999 4.44822067,4.12308101 4.52253505,4.03494982 L4.52253505,5.71301542 C4.40630737,5.74785106 4.29721386,5.781198 4.19495729,5.81246075 C4.09299796,5.84402125 3.99311944,5.87081789 3.89561898,5.89285069 C3.79782127,5.91488349 3.69972629,5.93245018 3.6010368,5.94525302 C3.50234731,5.95805587 3.39860444,5.96430842 3.28951094,5.96430842 C2.91318295,5.96430842 2.5526096,5.8958281 2.2077909,5.75856972 C1.8629722,5.62131133 1.54996005,5.42569581 1.26905172,5.17231862 C0.971794218,4.90256571 0.753309955,4.59589297 0.614193446,4.25289588 C0.474779678,3.9098988 0.404924166,3.53712766 0.404924166,3.13458247 C0.404924166,2.76478874 0.472401618,2.41017977 0.607059266,2.07045784 C0.741716913,1.7307359 0.939095893,1.42852926 1.1991962,1.16324246 C1.33177305,1.028366 1.47683471,0.906887864 1.63467844,0.798510313 C1.79252217,0.690430503 1.95928363,0.598726421 2.13466556,0.523100328 C2.31004748,0.447474235 2.49167181,0.389712573 2.67983581,0.350410824 C2.86799981,0.310811334 3.05586655,0.290862719 3.24403054,0.290862719 C3.46935173,0.290862719 3.6863497,0.314681961 3.89561898,0.362618185 C4.10459101,0.410256669 4.31356303,0.476950547 4.52253505,0.562997558 L4.52253505,2.2413609 Z" id="Fill-11"></path>
                    <path d="M8.5535251,1.61333681 C8.34455308,1.61333681 8.14836313,1.65234082 7.96495525,1.73034883 C7.78125011,1.80805911 7.62043381,1.91286378 7.48220907,2.04416735 C7.34428159,2.17576866 7.23489083,2.3267231 7.15492856,2.49792391 C7.07466904,2.66882697 7.03483653,2.84747128 7.03483653,3.03355911 C7.03483653,3.26609446 7.07466904,3.48046764 7.15492856,3.67727413 C7.23489083,3.87378287 7.34428159,4.04349497 7.48220907,4.18670816 C7.62043381,4.32962362 7.78125011,4.44127631 7.96495525,4.52166625 C8.14836313,4.60175845 8.34455308,4.64195343 8.5535251,4.64195343 C8.76249712,4.64195343 8.95928158,4.60175845 9.14387849,4.52166625 C9.3284754,4.44127631 9.48929171,4.32962362 9.62632741,4.18670816 C9.76336312,4.04349497 9.87215937,3.87378287 9.95212163,3.67727413 C10.0323812,3.48046764 10.0722137,3.26609446 10.0722137,3.03355911 C10.0722137,2.84747128 10.0323812,2.66882697 9.95212163,2.49792391 C9.87215937,2.3267231 9.76336312,2.17576866 9.62632741,2.04416735 C9.48929171,1.91286378 9.3284754,1.80805911 9.14387849,1.73034883 C8.95928158,1.65234082 8.76249712,1.61333681 8.5535251,1.61333681 M8.5535251,0.255937755 C8.81124735,0.255937755 9.06391622,0.28690277 9.31123446,0.348535058 C9.5585527,0.410167347 9.79249436,0.498000802 10.0130594,0.612035423 C10.2336245,0.726070044 10.4369486,0.864817128 10.6227346,1.02887216 C10.8085205,1.19292719 10.9681478,1.37782405 11.1016164,1.58356276 C11.235085,1.7895992 11.3397196,2.01350007 11.415223,2.25526538 C11.4907265,2.49732843 11.5284782,2.7542785 11.5284782,3.02641334 C11.5284782,3.46379417 11.4547583,3.86455292 11.3073186,4.22839184 C11.1598789,4.5925285 10.9535821,4.90545379 10.689023,5.16716771 C10.4241665,5.42858389 10.1099654,5.63283389 9.7467167,5.77932223 C9.38317078,5.92581057 8.98544024,5.99905474 8.5535251,5.99905474 C8.26548258,5.99905474 7.99200568,5.96600554 7.7330944,5.8996094 C7.47418312,5.83351101 7.23489083,5.73853178 7.0155148,5.6152672 C6.79613876,5.49200262 6.59757075,5.34253688 6.41981077,5.16716771 C6.24234804,4.9915008 6.09134123,4.79320561 5.96708759,4.57228214 C5.84283396,4.35106093 5.74711704,4.11108207 5.67963959,3.85175007 C5.61216214,3.59212034 5.57857204,3.31730583 5.57857204,3.02641334 C5.57857204,2.7542785 5.61632374,2.49732843 5.69182715,2.25526538 C5.76733055,2.01350007 5.87226245,1.7895992 6.00721736,1.58356276 C6.141875,1.37782405 6.30150228,1.19292719 6.48609919,1.02887216 C6.6706961,0.864817128 6.87342571,0.726070044 7.09399078,0.612035423 C7.31455584,0.498000802 7.54849749,0.410167347 7.79581573,0.348535058 C8.04313397,0.28690277 8.29580285,0.255937755 8.5535251,0.255937755" id="Fill-12"></path>
                    <polygon id="Fill-13" points="14.1259439 4.63492675 15.8048543 4.63492675 15.8048543 5.821125 12.7291309 5.821125 12.7291309 0.434105685 14.1259439 0.434105685"></polygon>
                    <polygon id="Fill-14" points="18.4573721 4.63492675 20.1362825 4.63492675 20.1362825 5.821125 17.0605591 5.821125 17.0605591 0.434105685 18.4573721 0.434105685"></polygon>
                    <polygon id="Fill-15" points="22.7887706 1.62030394 22.7887706 2.52037354 24.3669107 2.52037354 24.3669107 3.70686953 22.7887706 3.70686953 22.7887706 4.63492675 24.4540071 4.63492675 24.4540071 5.821125 21.3919576 5.821125 21.3919576 0.434105685 24.4540071 0.434105685 24.4540071 1.62030394"></polygon>
                    <path d="M31.3422065,2.81358841 C31.3374504,3.0089062 31.3294244,3.19856691 31.3178314,3.38227281 C31.3062384,3.56597872 31.2812687,3.74581399 31.2429225,3.9214809 C31.2045763,4.09714781 31.1501782,4.26924184 31.0791336,4.43776297 C31.0083863,4.60628411 30.9126694,4.77450751 30.7916856,4.94183768 C30.659406,5.12584133 30.5119663,5.28453703 30.3493665,5.41822252 C30.1867666,5.55190802 30.0113847,5.66177427 29.8235179,5.74782128 C29.6353539,5.83416603 29.4367859,5.89728703 29.2278139,5.93807748 C29.0188419,5.97886793 28.8015467,5.99911429 28.5762255,5.99911429 C28.1535253,5.99911429 27.766496,5.93063397 27.4145432,5.79337558 C27.0628875,5.6561172 26.7602794,5.46228812 26.507016,5.21248382 C26.2540499,4.96238178 26.0572654,4.66285481 25.9166626,4.31390292 C25.7760598,3.96495102 25.7059071,3.57878156 25.7059071,3.15539453 C25.7059071,2.71831144 25.7766543,2.32112558 25.9184462,1.96383695 C26.0599407,1.60684606 26.2591033,1.30225751 26.5159337,1.04977354 C26.772467,0.797587318 27.079534,0.601971793 27.4371347,0.463522449 C27.7947355,0.325370845 28.1906825,0.255997303 28.6249757,0.255997303 C29.1778747,0.255997303 29.6621071,0.381048324 30.0776731,0.631150364 C30.4935364,0.881252405 30.8172498,1.25848965 31.0497051,1.76345758 L29.7224504,2.31814818 C29.6737002,2.19011975 29.6121679,2.07400095 29.5378535,1.96919628 C29.4635391,1.86439162 29.3776317,1.77447398 29.2801312,1.69884789 C29.1823335,1.62322179 29.07324,1.56516239 28.9525535,1.52437194 C28.8318669,1.48358149 28.7004791,1.46333513 28.5589845,1.46333513 C28.3289072,1.46333513 28.1270694,1.51335554 27.9528765,1.61339636 C27.7786836,1.71343717 27.6327302,1.84414526 27.5156107,2.00581837 C27.398194,2.16749147 27.3102058,2.34941093 27.2507543,2.55187449 C27.1916,2.75433805 27.1618743,2.95769483 27.1618743,3.16254031 C27.1618743,3.3718519 27.1927891,3.57699512 27.2543214,3.77826771 C27.3158537,3.97954031 27.4065172,4.15967332 27.5260147,4.31926224 C27.6455122,4.47855343 27.794141,4.60628411 27.971901,4.70304978 C28.149661,4.79951771 28.3532824,4.84775168 28.5833597,4.84775168 C28.7340692,4.84775168 28.8752665,4.8281008 29.0063571,4.78850131 C29.1377449,4.74890182 29.2527835,4.69024694 29.351473,4.61223892 C29.4501625,4.5342309 29.5307193,4.43716749 29.5934406,4.32075095 C29.656162,4.20463214 29.6945082,4.06856472 29.7084793,3.91254869 L28.5658215,3.91254869 L28.5658215,2.81358841 L31.3422065,2.81358841 Z" id="Fill-16"></path>
                    <polygon id="Fill-17" points="33.9222827 1.62030394 33.9222827 2.52037354 35.5004228 2.52037354 35.5004228 3.70686953 33.9222827 3.70686953 33.9222827 4.63492675 35.5875192 4.63492675 35.5875192 5.821125 32.5254697 5.821125 32.5254697 0.434105685 35.5875192 0.434105685 35.5875192 1.62030394"></polygon>
                    <path d="M41.4550553,2.81680401 C41.305832,2.81680401 41.1655265,2.84449388 41.0347332,2.90017136 C40.9036426,2.95614657 40.7889012,3.03058171 40.690509,3.12436997 C40.5918195,3.21845598 40.5136408,3.32623805 40.4565673,3.44831166 C40.3991966,3.57038528 40.3706599,3.69811596 40.3706599,3.8306105 C40.3706599,3.99704745 40.3991966,4.14978834 40.4565673,4.29032187 C40.5136408,4.43085539 40.5918195,4.55173805 40.690509,4.65416079 C40.7889012,4.75628579 40.9036426,4.83608025 41.0347332,4.89324643 C41.1655265,4.95071035 41.305832,4.97929344 41.4550553,4.97929344 C41.6042785,4.97929344 41.7448813,4.95071035 41.8765664,4.89324643 C42.0085487,4.83608025 42.1232901,4.75628579 42.2210879,4.65416079 C42.3188856,4.55173805 42.3964698,4.43085539 42.4535432,4.29032187 C42.5109139,4.14978834 42.5394506,3.99704745 42.5394506,3.8306105 C42.5394506,3.69811596 42.5109139,3.57038528 42.4535432,3.44831166 C42.3964698,3.32623805 42.3188856,3.21845598 42.2210879,3.12436997 C42.1232901,3.03058171 42.0085487,2.95614657 41.8765664,2.90017136 C41.7448813,2.84449388 41.6042785,2.81680401 41.4550553,2.81680401 M41.4550553,1.8476586 C41.6390577,1.8476586 41.819493,1.8696914 41.9960639,1.913757 C42.1726349,1.95752485 42.3396936,2.0203481 42.4972401,2.10192901 C42.6547865,2.18321217 42.7998482,2.28235977 42.9327223,2.39966953 C43.0650019,2.51638382 43.1791488,2.64828287 43.2745684,2.79566443 C43.3696908,2.94274825 43.4443025,3.10263491 43.4984033,3.27532442 C43.5522069,3.44801392 43.5789601,3.63112434 43.5789601,3.82584665 C43.5789601,4.13787872 43.5266428,4.42400736 43.4211164,4.6836371 C43.3158872,4.94356458 43.169042,5.16746545 42.979689,5.35414876 C42.7906332,5.54083207 42.5665011,5.68702267 42.3069953,5.79123185 C42.0474895,5.89603652 41.7636086,5.94843885 41.4550553,5.94843885 C41.2496503,5.94843885 41.0540549,5.92461961 40.8691607,5.87727886 C40.6842666,5.82993812 40.5136408,5.76235102 40.3569861,5.67421983 C40.2003314,5.58638637 40.0585395,5.47949752 39.9316106,5.35414876 C39.8046816,5.22850226 39.6970744,5.08737325 39.6081944,4.92927303 C39.5196117,4.77147055 39.4512425,4.59997201 39.403384,4.41507515 C39.3552283,4.2295828 39.3308532,4.03337179 39.3308532,3.82584665 C39.3308532,3.63112434 39.3579036,3.44801392 39.4120045,3.27532442 C39.4658081,3.10263491 39.5410142,2.94274825 39.6370284,2.79566443 C39.7330426,2.64828287 39.8471895,2.51638382 39.9788745,2.39966953 C40.1105596,2.28235977 40.255324,2.18321217 40.4128705,2.10192901 C40.570417,2.0203481 40.7374757,1.95752485 40.9143439,1.913757 C41.0906176,1.8696914 41.2710529,1.8476586 41.4550553,1.8476586" id="Fill-18"></path>
                    <polygon id="Fill-19" points="45.2392621 2.8217465 45.2392621 3.46427055 46.3364396 3.46427055 46.3364396 4.31164009 45.2392621 4.31164009 45.2392621 5.82118455 44.2419632 5.82118455 44.2419632 1.97467471 46.4479111 1.97467471 46.4479111 2.8217465"></polygon>
                    <path d="M52.3246919,2.09832635 L52.3107208,2.09832635 L51.732555,3.81509821 L52.8960208,3.81509821 L52.3246919,2.09832635 Z M51.345823,4.88607088 L50.9766291,5.82127387 L49.4927197,5.82127387 L51.5619292,0.433956815 L53.0874547,0.433956815 L55.1150481,5.82127387 L53.6240044,5.82127387 L53.2723488,4.88607088 L51.345823,4.88607088 Z" id="Fill-20"></path>
                    <path d="M61.5321241,2.81358841 C61.5273679,3.0089062 61.519342,3.19856691 61.5077489,3.38227281 C61.4961559,3.56597872 61.4711863,3.74581399 61.43284,3.9214809 C61.3944938,4.09714781 61.3400957,4.26924184 61.2690512,4.43776297 C61.1983039,4.60628411 61.102587,4.77450751 60.9816032,4.94183768 C60.8493236,5.12584133 60.7018839,5.28453703 60.539284,5.41822252 C60.3766842,5.55190802 60.2013022,5.66177427 60.0134355,5.74782128 C59.8252715,5.83416603 59.6267035,5.89728703 59.4177315,5.93807748 C59.2087594,5.97886793 58.9914642,5.99911429 58.766143,5.99911429 C58.3434429,5.99911429 57.9564136,5.93063397 57.6044607,5.79337558 C57.2528051,5.6561172 56.950197,5.46228812 56.6969336,5.21248382 C56.4439674,4.96238178 56.247183,4.66285481 56.1065802,4.31390292 C55.9659774,3.96495102 55.8958246,3.57878156 55.8958246,3.15539453 C55.8958246,2.71831144 55.9665719,2.32112558 56.1083637,1.96383695 C56.2498583,1.60684606 56.4490208,1.30225751 56.7058513,1.04977354 C56.9623845,0.797587318 57.2694515,0.601971793 57.6270523,0.463522449 C57.9846531,0.325370845 58.3806,0.255997303 58.8148932,0.255997303 C59.3677922,0.255997303 59.8520247,0.381048324 60.2675906,0.631150364 C60.6834539,0.881252405 61.0071673,1.25848965 61.2396227,1.76345758 L59.9123679,2.31814818 C59.8636177,2.19011975 59.8020854,2.07400095 59.727771,1.96919628 C59.6534567,1.86439162 59.5675492,1.77447398 59.4700488,1.69884789 C59.3722511,1.62322179 59.2631576,1.56516239 59.142471,1.52437194 C59.0217845,1.48358149 58.8903967,1.46333513 58.7489021,1.46333513 C58.5188248,1.46333513 58.3169869,1.51335554 58.142794,1.61339636 C57.9686011,1.71343717 57.8226477,1.84414526 57.7055283,2.00581837 C57.5881115,2.16749147 57.5001233,2.34941093 57.4406718,2.55187449 C57.3815176,2.75433805 57.3517918,2.95769483 57.3517918,3.16254031 C57.3517918,3.3718519 57.3827066,3.57699512 57.4442389,3.77826771 C57.5057712,3.97954031 57.5964348,4.15967332 57.7159323,4.31926224 C57.8354298,4.47855343 57.9840585,4.60628411 58.1618185,4.70304978 C58.3395785,4.79951771 58.5431999,4.84775168 58.7732772,4.84775168 C58.924284,4.84775168 59.0651841,4.8281008 59.1965719,4.78850131 C59.3276624,4.74890182 59.4427011,4.69024694 59.5413906,4.61223892 C59.6400801,4.5342309 59.7206368,4.43716749 59.7833582,4.32075095 C59.8460795,4.20463214 59.8844257,4.06856472 59.8983968,3.91254869 L58.755739,3.91254869 L58.755739,2.81358841 L61.5321241,2.81358841 Z" id="Fill-21"></path>
                    <path d="M64.3975674,2.8484836 L64.5334141,2.8484836 C64.6472637,2.8484836 64.7623024,2.84104009 64.8782328,2.82585532 C64.9944605,2.81067055 65.0987979,2.7794078 65.1918395,2.73147157 C65.2845838,2.68383309 65.3600872,2.61654373 65.4183497,2.52930576 C65.4763149,2.44206778 65.5054461,2.32505576 65.5054461,2.17856742 C65.5054461,2.03207908 65.4763149,1.91447157 65.4183497,1.82604264 C65.3600872,1.73791144 65.2845838,1.66972886 65.1918395,1.62209038 C65.0987979,1.5744519 64.9944605,1.5428914 64.8782328,1.52770663 C64.7623024,1.51281961 64.6472637,1.50507835 64.5334141,1.50507835 L64.3975674,1.50507835 L64.3975674,2.8484836 Z M67.473588,5.821125 L65.7316591,5.821125 L64.4151056,3.74855321 L64.3975674,3.74855321 L64.3975674,5.821125 L63.0007545,5.821125 L63.0007545,0.434105685 L65.0907719,0.434105685 C65.3556284,0.434105685 65.6023521,0.466559402 65.8309431,0.531764577 C66.0598314,0.596969752 66.2578049,0.696712828 66.4248636,0.831887026 C66.5922196,0.966763484 66.7233101,1.13826203 66.8187298,1.34638265 C66.9138522,1.55450328 66.9614134,1.80281888 66.9614134,2.09132945 C66.9614134,2.27741727 66.9358492,2.45487063 66.8847209,2.62339176 C66.8335927,2.79221064 66.7580892,2.94376057 66.6582107,3.07863703 C66.5586295,3.21381122 66.4352676,3.3275481 66.2890169,3.42074089 C66.1427662,3.51363593 65.9745185,3.57765015 65.7839764,3.61248579 L67.473588,5.821125 Z" id="Fill-22"></path>
                    <polygon id="Fill-23" points="68.6878849 5.821125 70.0846979 5.821125 70.0846979 0.433807945 68.6878849 0.433807945"></polygon>
                    <path d="M75.5386299,2.2413609 C75.4666936,2.143702 75.3846505,2.05825047 75.2930952,1.9850063 C75.2012426,1.91176214 75.1025531,1.85012985 74.9970267,1.80010944 C74.8912031,1.75008903 74.780326,1.71227598 74.6643956,1.6866703 C74.5481679,1.66106461 74.4310485,1.64826177 74.3124427,1.64826177 C74.0987146,1.64826177 73.9037137,1.6866703 73.7271427,1.76348735 C73.550869,1.84000667 73.3998622,1.9460023 73.2744195,2.08087875 C73.1489769,2.21575521 73.0514764,2.37385543 72.9819181,2.55547715 C72.9120626,2.73680113 72.8772835,2.93211891 72.8772835,3.14172824 C72.8772835,3.35550594 72.9120626,3.55201469 72.9819181,3.73125448 C73.0514764,3.91049428 73.1501659,4.06442613 73.2779866,4.19364552 C73.4055101,4.32256716 73.558895,4.42379894 73.7375467,4.49704311 C73.9164957,4.57028728 74.1150637,4.60690937 74.3332507,4.60690937 C74.4471004,4.60690937 74.5603555,4.59351104 74.6730161,4.56701214 C74.7856767,4.54021549 74.8935811,4.50180696 74.9970267,4.45178655 C75.1001751,4.40176614 75.1979728,4.3419203 75.2895281,4.27195128 C75.3813807,4.20227999 75.4643155,4.12308101 75.5386299,4.03494982 L75.5386299,5.71301542 C75.4224022,5.74785106 75.3133087,5.781198 75.2113494,5.81246075 C75.1090928,5.84402125 75.0092143,5.87081789 74.9117138,5.89285069 C74.8142134,5.91488349 74.7158211,5.93245018 74.6171317,5.94525302 C74.5184422,5.95805587 74.4146993,5.96430842 74.3056058,5.96430842 C73.9292778,5.96430842 73.5687044,5.8958281 73.2238857,5.75856972 C72.8790671,5.62131133 72.5660549,5.42569581 72.2851466,5.17231862 C71.9878891,4.90256571 71.7694048,4.59589297 71.6302883,4.25289588 C71.4908745,3.9098988 71.4213163,3.53712766 71.4213163,3.13458247 C71.4213163,2.76478874 71.4884965,2.41017977 71.6231541,2.07045784 C71.7578118,1.7307359 71.9551907,1.42852926 72.2152911,1.16324246 C72.3478679,1.028366 72.4929296,0.906887864 72.6507733,0.798510313 C72.808617,0.690430503 72.9753785,0.598726421 73.1507604,0.523100328 C73.3261423,0.447474235 73.5077667,0.389712573 73.6959307,0.350410824 C73.8840947,0.310811334 74.0719614,0.290862719 74.2601254,0.290862719 C74.4854466,0.290862719 74.7027418,0.314681961 74.9117138,0.362618185 C75.1206859,0.410256669 75.3296579,0.476950547 75.5386299,0.562997558 L75.5386299,2.2413609 Z" id="Fill-24"></path>
                    <path d="M81.8730683,0.433986589 L81.8730683,3.46260321 C81.8730683,3.63707915 81.8689067,3.80917318 81.8608808,3.97888528 C81.8528548,4.14889512 81.829966,4.31443885 81.7928088,4.47611195 C81.7556516,4.63778506 81.6994699,4.79380109 81.6239665,4.94356458 C81.5484631,5.0936258 81.4447203,5.23386159 81.3121434,5.36427194 C81.2006718,5.47592464 81.0740402,5.56941516 80.9325456,5.64504125 C80.7907538,5.72066735 80.642125,5.78229964 80.4866593,5.82993812 C80.3308964,5.8775766 80.1712691,5.91181676 80.0077775,5.93295634 C79.8439886,5.95379818 79.6843613,5.9642191 79.5285984,5.9642191 C79.3707547,5.9642191 79.2099384,5.95379818 79.0461495,5.93295634 C78.8823606,5.91181676 78.7233278,5.8775766 78.5690512,5.82993812 C78.4144773,5.78229964 78.2664431,5.72066735 78.1249485,5.64504125 C77.9831567,5.56941516 77.856525,5.47592464 77.7450534,5.36427194 C77.6103958,5.23386159 77.5054639,5.0936258 77.4299605,4.94356458 C77.3544571,4.79380109 77.2979781,4.63778506 77.2608209,4.47611195 C77.2236638,4.31443885 77.2010722,4.14889512 77.1930462,3.97888528 C77.184723,3.80917318 77.1808587,3.63707915 77.1808587,3.46260321 L77.1808587,0.433986589 L78.5776717,0.433986589 L78.5776717,3.27056057 C78.5776717,3.38697711 78.5806442,3.50458462 78.5862921,3.62308535 C78.5922373,3.74158608 78.6050194,3.85502522 78.6246384,3.96340277 C78.6445546,4.07148258 78.6745776,4.17271436 78.7153019,4.26680036 C78.7560262,4.36088637 78.8116133,4.44306276 78.8823606,4.51273404 C78.9534052,4.58270306 79.0410961,4.63718958 79.1454335,4.67678907 C79.2500681,4.71638856 79.3775916,4.73603943 79.5285984,4.73603943 C79.6772272,4.73603943 79.8044534,4.71638856 79.9099798,4.67678907 C80.0158035,4.63718958 80.1034944,4.58270306 80.1730527,4.51273404 C80.2429082,4.44306276 80.2979008,4.36088637 80.3386251,4.26680036 C80.3793494,4.17271436 80.4099669,4.07148258 80.4307749,3.96340277 C80.4518802,3.85502522 80.4646623,3.74158608 80.4691211,3.62308535 C80.4738773,3.50458462 80.4762553,3.38697711 80.4762553,3.27056057 L80.4762553,0.433986589 L81.8730683,0.433986589 Z" id="Fill-25"></path>
                    <polygon id="Fill-26" points="84.9965907 4.63492675 86.675501 4.63492675 86.675501 5.821125 83.5997777 5.821125 83.5997777 0.434105685 84.9965907 0.434105685"></polygon>
                    <polygon id="Fill-27" points="89.6917431 5.8212441 88.2949302 5.8212441 88.2949302 1.62042303 87.1383012 1.62042303 87.1383012 0.433927041 90.8483721 0.433927041 90.8483721 1.62042303 89.6917431 1.62042303"></polygon>
                    <path d="M96.7989322,0.433986589 L96.7989322,3.46260321 C96.7989322,3.63707915 96.7947705,3.80917318 96.7867446,3.97888528 C96.7787186,4.14889512 96.7558298,4.31443885 96.7186726,4.47611195 C96.6815154,4.63778506 96.6253338,4.79380109 96.5498304,4.94356458 C96.474327,5.0936258 96.3705841,5.23386159 96.2380073,5.36427194 C96.1265357,5.47592464 95.999904,5.56941516 95.8584094,5.64504125 C95.7166176,5.72066735 95.5679888,5.78229964 95.4125232,5.82993812 C95.2570575,5.8775766 95.097133,5.91181676 94.9336413,5.93295634 C94.7698525,5.95379818 94.6102252,5.9642191 94.4544623,5.9642191 C94.2966185,5.9642191 94.1358022,5.95379818 93.9720133,5.93295634 C93.8082244,5.91181676 93.6491917,5.8775766 93.494915,5.82993812 C93.3403411,5.78229964 93.1923069,5.72066735 93.0508123,5.64504125 C92.9090205,5.56941516 92.7823888,5.47592464 92.6709173,5.36427194 C92.5362596,5.23386159 92.4313277,5.0936258 92.3558243,4.94356458 C92.2803209,4.79380109 92.223842,4.63778506 92.1866848,4.47611195 C92.1495276,4.31443885 92.126936,4.14889512 92.1189101,3.97888528 C92.1105869,3.80917318 92.1067225,3.63707915 92.1067225,3.46260321 L92.1067225,0.433986589 L93.5035355,0.433986589 L93.5035355,3.27056057 C93.5035355,3.38697711 93.5065081,3.50458462 93.512156,3.62308535 C93.5181011,3.74158608 93.5308832,3.85502522 93.5505022,3.96340277 C93.5704185,4.07148258 93.6004415,4.17271436 93.6411657,4.26680036 C93.68189,4.36088637 93.7374772,4.44306276 93.8082244,4.51273404 C93.879269,4.58270306 93.96696,4.63718958 94.0712973,4.67678907 C94.175932,4.71638856 94.3034554,4.73603943 94.4544623,4.73603943 C94.603091,4.73603943 94.7303172,4.71638856 94.8358436,4.67678907 C94.9416673,4.63718958 95.0293583,4.58270306 95.0989165,4.51273404 C95.168772,4.44306276 95.2237647,4.36088637 95.2644889,4.26680036 C95.3052132,4.17271436 95.3358307,4.07148258 95.3566388,3.96340277 C95.377744,3.85502522 95.3905261,3.74158608 95.394985,3.62308535 C95.3997411,3.50458462 95.4021192,3.38697711 95.4021192,3.27056057 L95.4021192,0.433986589 L96.7989322,0.433986589 Z" id="Fill-28"></path>
                    <path d="M99.9224545,2.8484836 L100.058301,2.8484836 C100.172151,2.8484836 100.287189,2.84104009 100.40312,2.82585532 C100.519348,2.81067055 100.623685,2.7794078 100.716727,2.73147157 C100.809471,2.68383309 100.884974,2.61654373 100.943237,2.52930576 C101.001202,2.44206778 101.030333,2.32505576 101.030333,2.17856742 C101.030333,2.03207908 101.001202,1.91447157 100.943237,1.82604264 C100.884974,1.73791144 100.809471,1.66972886 100.716727,1.62209038 C100.623685,1.5744519 100.519348,1.5428914 100.40312,1.52770663 C100.287189,1.51281961 100.172151,1.50507835 100.058301,1.50507835 L99.9224545,1.50507835 L99.9224545,2.8484836 Z M102.998475,5.821125 L101.256546,5.821125 L99.9399927,3.74855321 L99.9224545,3.74855321 L99.9224545,5.821125 L98.5256415,5.821125 L98.5256415,0.434105685 L100.615659,0.434105685 C100.880515,0.434105685 101.127239,0.466559402 101.35583,0.531764577 C101.584718,0.596969752 101.782692,0.696712828 101.949751,0.831887026 C102.117107,0.966763484 102.248197,1.13826203 102.343617,1.34638265 C102.438739,1.55450328 102.4863,1.80281888 102.4863,2.09132945 C102.4863,2.27741727 102.460736,2.45487063 102.409608,2.62339176 C102.35848,2.79221064 102.282976,2.94376057 102.183098,3.07863703 C102.083517,3.21381122 101.960155,3.3275481 101.813904,3.42074089 C101.667653,3.51363593 101.499406,3.57765015 101.308863,3.61248579 L102.998475,5.821125 Z" id="Fill-29"></path>
                    <path d="M106.803222,2.09832635 L106.789251,2.09832635 L106.211086,3.81509821 L107.374551,3.81509821 L106.803222,2.09832635 Z M105.824354,4.88607088 L105.45516,5.82127387 L103.97125,5.82127387 L106.04046,0.433956815 L107.565985,0.433956815 L109.593579,5.82127387 L108.102535,5.82127387 L107.750879,4.88607088 L105.824354,4.88607088 Z" id="Fill-30"></path>
                    <polygon id="Fill-31" points="112.228469 4.63492675 113.907379 4.63492675 113.907379 5.821125 110.831656 5.821125 110.831656 0.434105685 112.228469 0.434105685"></polygon>
                    <path d="M2.22286186,11.4998109 L2.21305236,11.4998109 L1.79986443,12.7256087 L2.63069915,12.7256087 L2.22286186,11.4998109 Z M1.52371222,13.4905041 L1.26034207,14.1580383 L0.200619086,14.1580383 L1.67828612,10.3115285 L2.7674376,10.3115285 L4.21478436,14.1580383 L3.15060251,14.1580383 L2.89912267,13.4905041 L1.52371222,13.4905041 Z" id="Fill-32"></path>
                    <polygon id="Fill-33" points="4.70308925 10.311469 5.70068542 10.311469 7.53119711 12.6630236 7.5410066 12.6630236 7.5410066 10.311469 8.53830551 10.311469 8.53830551 14.1579788 7.5410066 14.1579788 5.71317024 11.8010648 5.70068542 11.8010648 5.70068542 14.1579788 4.70308925 14.1579788"></polygon>
                    <path d="M10.3939652,13.3109963 L10.6204754,13.3109963 C10.7696987,13.3109963 10.9105987,13.2904522 11.0443646,13.2484708 C11.1778332,13.2070849 11.2943581,13.1424752 11.3948312,13.054344 C11.4953042,12.9665105 11.5755637,12.8548578 11.6350152,12.7193859 C11.6944667,12.583914 11.724787,12.4225386 11.724787,12.2349621 C11.724787,12.0622726 11.6974393,11.9086384 11.6436357,11.774953 C11.5898321,11.6415652 11.514626,11.5290193 11.4174228,11.4376129 C11.3205168,11.3462066 11.2051809,11.2768331 11.071415,11.2294923 C10.9379464,11.1824493 10.7911012,11.1586301 10.6302849,11.1586301 L10.3939652,11.1586301 L10.3939652,13.3109963 Z M9.39666627,10.3115583 L10.811612,10.3115583 C10.9890747,10.3115583 11.1608895,10.3338888 11.326462,10.3785499 C11.4923316,10.4235087 11.6480946,10.4872252 11.792859,10.5694016 C11.9379206,10.6512802 12.0702002,10.7507255 12.1896977,10.8671421 C12.308898,10.9835586 12.4108573,11.112778 12.4955757,11.2556935 C12.5802941,11.3986089 12.645988,11.5528385 12.6932519,11.7177868 C12.7408131,11.8830328 12.7642965,12.0551268 12.7642965,12.2349621 C12.7642965,12.4139041 12.7408131,12.5862959 12.6932519,12.7518396 C12.645988,12.9170856 12.5799968,13.0710175 12.4943867,13.2136352 C12.4087765,13.3565506 12.3065199,13.4863655 12.1870224,13.6024843 C12.0678222,13.7186031 11.9358398,13.8177507 11.7916699,13.9002248 C11.6475001,13.9824012 11.4923316,14.0458199 11.326462,14.090481 C11.1608895,14.1357376 10.9890747,14.1580681 10.811612,14.1580681 L9.39666627,14.1580681 L9.39666627,10.3115583 Z" id="Fill-34"></path>
                    <polygon id="Fill-35" points="17.5978223 9.95703863 17.5978223 10.8571082 19.1759624 10.8571082 19.1759624 12.0436042 17.5978223 12.0436042 17.5978223 12.9716614 19.2630588 12.9716614 19.2630588 14.1578597 16.2010093 14.1578597 16.2010093 8.77084038 19.2630588 8.77084038 19.2630588 9.95703863"></polygon>
                    <polygon id="Fill-36" points="20.832519 8.77072128 22.229332 8.77072128 24.7931779 12.0646247 24.807149 12.0646247 24.807149 8.77072128 26.203962 8.77072128 26.203962 14.1580383 24.807149 14.1580383 22.2468702 10.8572869 22.229332 10.8572869 22.229332 14.1580383 20.832519 14.1580383"></polygon>
                    <polygon id="Fill-37" points="30.0538925 12.0435447 31.360042 8.77078083 32.8790278 8.77078083 30.5833081 14.1580979 29.4965347 14.1580979 27.2358914 8.77078083 28.7581471 8.77078083"></polygon>
                    <polygon id="Fill-38" points="33.9144054 14.1578597 35.3112184 14.1578597 35.3112184 8.77054264 33.9144054 8.77054264"></polygon>
                    <path d="M38.3239826,11.1852183 L38.4598293,11.1852183 C38.5736789,11.1852183 38.6887175,11.1777748 38.804648,11.16259 C38.9208756,11.1474052 39.025213,11.1161425 39.1182546,11.0682063 C39.210999,11.0205678 39.2865024,10.9532784 39.3447648,10.8660405 C39.40273,10.7788025 39.4318613,10.6617905 39.4318613,10.5153021 C39.4318613,10.3688138 39.40273,10.2512063 39.3447648,10.1627773 C39.2865024,10.0746461 39.210999,10.0064636 39.1182546,9.95882507 C39.025213,9.91118659 38.9208756,9.87962609 38.804648,9.86444133 C38.6887175,9.8495543 38.5736789,9.84181305 38.4598293,9.84181305 L38.3239826,9.84181305 L38.3239826,11.1852183 Z M41.4000032,14.1578597 L39.6580742,14.1578597 L38.3415208,12.0852879 L38.3239826,12.0852879 L38.3239826,14.1578597 L36.9271696,14.1578597 L36.9271696,8.77084038 L39.0171871,8.77084038 C39.2820435,8.77084038 39.5287672,8.8032941 39.7573582,8.86849927 C39.9862465,8.93370445 40.18422,9.03344752 40.3512787,9.16862172 C40.5186347,9.30349818 40.6497253,9.47499672 40.7451449,9.68311735 C40.8402673,9.89123797 40.8878285,10.1395536 40.8878285,10.4280641 C40.8878285,10.614152 40.8622644,10.7916053 40.8111361,10.9601265 C40.7600078,11.1289453 40.6845044,11.2804953 40.5846259,11.4153717 C40.4850446,11.5505459 40.3616827,11.6642828 40.2154321,11.7574756 C40.0691814,11.8503706 39.9009336,11.9143848 39.7103916,11.9492205 L41.4000032,14.1578597 Z" id="Fill-39"></path>
                    <path d="M45.0430425,9.9500715 C44.8340704,9.9500715 44.6378805,9.98907551 44.4544726,10.0670835 C44.2707675,10.1447938 44.1099512,10.2495985 43.9717264,10.380902 C43.833799,10.5125034 43.7244082,10.6634578 43.6444459,10.8346586 C43.5641864,11.0055617 43.5243539,11.184206 43.5243539,11.3702938 C43.5243539,11.6028292 43.5641864,11.8172023 43.6444459,12.0140088 C43.7244082,12.2105176 43.833799,12.3802297 43.9717264,12.5234429 C44.1099512,12.6663583 44.2707675,12.778011 44.4544726,12.8584009 C44.6378805,12.9384931 44.8340704,12.9786881 45.0430425,12.9786881 C45.2520145,12.9786881 45.448799,12.9384931 45.6333959,12.8584009 C45.8179928,12.778011 45.9788091,12.6663583 46.1158448,12.5234429 C46.2528805,12.3802297 46.3616767,12.2105176 46.441639,12.0140088 C46.5218985,11.8172023 46.561731,11.6028292 46.561731,11.3702938 C46.561731,11.184206 46.5218985,11.0055617 46.441639,10.8346586 C46.3616767,10.6634578 46.2528805,10.5125034 46.1158448,10.380902 C45.9788091,10.2495985 45.8179928,10.1447938 45.6333959,10.0670835 C45.448799,9.98907551 45.2520145,9.9500715 45.0430425,9.9500715 M45.0430425,8.59267245 C45.3007647,8.59267245 45.5534336,8.62363746 45.8007518,8.68526975 C46.0480701,8.74690204 46.2820117,8.8347355 46.5025768,8.94877012 C46.7231419,9.06280474 46.926466,9.20155182 47.1122519,9.36560685 C47.2980379,9.52966188 47.4576651,9.71455875 47.5911338,9.92029745 C47.7246024,10.1263339 47.829237,10.3502348 47.9047404,10.5920001 C47.9802438,10.8340631 48.0179955,11.0910132 48.0179955,11.363148 C48.0179955,11.8005289 47.9442757,12.2012876 47.7968359,12.5651265 C47.6493962,12.9292632 47.4430995,13.2421885 47.1785403,13.5039024 C46.9136839,13.7653186 46.5994827,13.9695686 46.2362341,14.1160569 C45.8726882,14.2625453 45.4749576,14.3357894 45.0430425,14.3357894 C44.755,14.3357894 44.4815231,14.3027402 44.2226118,14.2366418 C43.9637005,14.1702457 43.7244082,14.0752665 43.5050322,13.9520019 C43.2856561,13.8287373 43.0870881,13.6792716 42.9093281,13.5039024 C42.7318654,13.3282355 42.5808586,13.1299403 42.456605,12.9090168 C42.3323513,12.6877956 42.2366344,12.4478168 42.169157,12.1884848 C42.1016795,11.928855 42.0680894,11.6540405 42.0680894,11.363148 C42.0680894,11.0910132 42.1058411,10.8340631 42.1813445,10.5920001 C42.2568479,10.3502348 42.3617798,10.1263339 42.4967347,9.92029745 C42.6313924,9.71455875 42.7910197,9.52966188 42.9756166,9.36560685 C43.1602135,9.20155182 43.3629431,9.06280474 43.5835081,8.94877012 C43.8040732,8.8347355 44.0380149,8.74690204 44.2853331,8.68526975 C44.5326513,8.62363746 44.7853202,8.59267245 45.0430425,8.59267245" id="Fill-40"></path>
                    <polygon id="Fill-41" points="49.5039263 8.77072128 50.9007393 8.77072128 53.4645852 12.0646247 53.4785563 12.0646247 53.4785563 8.77072128 54.8753693 8.77072128 54.8753693 14.1580383 53.4785563 14.1580383 50.9182775 10.8572869 50.9007393 10.8572869 50.9007393 14.1580383 49.5039263 14.1580383"></polygon>
                    <polygon id="Fill-42" points="57.0680298 8.77072128 58.4440348 8.77072128 59.5379424 11.6492767 60.6910042 8.77072128 62.0842501 8.77072128 62.8957631 14.1580383 61.4989501 14.1580383 61.1053812 11.0561776 61.0914101 11.0561776 59.7992317 14.1580383 59.2451438 14.1580383 58.0085526 11.0561776 57.9945815 11.0561776 57.5451281 14.1580383 56.1554493 14.1580383"></polygon>
                    <polygon id="Fill-43" points="65.5912644 9.95703863 65.5912644 10.8571082 67.1694045 10.8571082 67.1694045 12.0436042 65.5912644 12.0436042 65.5912644 12.9716614 67.2565009 12.9716614 67.2565009 14.1578597 64.1944514 14.1578597 64.1944514 8.77084038 67.2565009 8.77084038 67.2565009 9.95703863"></polygon>
                    <polygon id="Fill-44" points="68.825961 8.77072128 70.222774 8.77072128 72.78662 12.0646247 72.8005911 12.0646247 72.8005911 8.77072128 74.1974041 8.77072128 74.1974041 14.1580383 72.8005911 14.1580383 70.2403122 10.8572869 70.222774 10.8572869 70.222774 14.1580383 68.825961 14.1580383"></polygon>
                    <polygon id="Fill-45" points="77.8783734 14.1579788 76.4815604 14.1579788 76.4815604 9.95715773 75.3249315 9.95715773 75.3249315 8.77066173 79.0350023 8.77066173 79.0350023 9.95715773 77.8783734 9.95715773"></polygon>
                    <path d="M82.1703258,10.435061 L82.1563547,10.435061 L81.5781889,12.1518329 L82.7416547,12.1518329 L82.1703258,10.435061 Z M81.1914569,13.2228056 L80.8222631,14.1580086 L79.3383536,14.1580086 L81.4075631,8.77069151 L82.9330886,8.77069151 L84.960682,14.1580086 L83.4696383,14.1580086 L83.1176855,13.2228056 L81.1914569,13.2228056 Z" id="Fill-46"></path>
                    <polygon id="Fill-47" points="87.5955724 12.9716614 89.2744828 12.9716614 89.2744828 14.1578597 86.1987594 14.1578597 86.1987594 8.77084038 87.5955724 8.77084038"></polygon>
                    <path d="M96.5571132,10.1559293 C96.4272116,10.0490405 96.2830418,9.96299344 96.125198,9.89778827 C95.9673543,9.83258309 95.8023764,9.80012937 95.6305616,9.80012937 C95.5654622,9.80012937 95.4979847,9.80935933 95.4284265,9.82781924 C95.3588682,9.8465769 95.2943633,9.8745645 95.2352091,9.91178207 C95.1760548,9.94899964 95.1273046,9.99604264 95.0889584,10.0529111 C95.0506122,10.1100773 95.0312904,10.1755802 95.0312904,10.2500153 C95.0312904,10.3292143 95.0523957,10.3968014 95.0940118,10.4524789 C95.1359251,10.5084541 95.1882424,10.5560926 95.2506665,10.5956921 C95.3133878,10.6349938 95.3808653,10.6683407 95.4528016,10.6951374 C95.5247379,10.7216363 95.5910263,10.7445623 95.6513696,10.7630222 L96.0065923,10.871102 C96.1947563,10.9270773 96.3695437,10.9937711 96.5309545,11.0717792 C96.6923653,11.1497872 96.8323736,11.2468506 96.9506821,11.3632671 C97.0692878,11.4793859 97.1626267,11.6172398 97.2312932,11.776531 C97.2996624,11.9361199 97.333847,12.1248874 97.333847,12.3437267 C97.333847,12.4762212 97.3252266,12.6093112 97.3076884,12.7429967 C97.2904474,12.87698 97.2601272,13.0064971 97.2173221,13.1321436 C97.1742197,13.2577901 97.116849,13.3768863 97.0449127,13.48973 C96.9726792,13.6025736 96.8835019,13.7044009 96.7764892,13.7952117 C96.5651391,13.9741538 96.3267386,14.1033732 96.0606932,14.1822744 C95.7949449,14.2614734 95.5247379,14.3010729 95.2506665,14.3010729 C94.9117929,14.3010729 94.5809453,14.2468841 94.2581237,14.1388043 C93.935302,14.0307245 93.6356665,13.8800678 93.359217,13.6868342 L93.9584881,12.5566112 C94.0467736,12.6331305 94.1383289,12.7054814 94.2337486,12.7727708 C94.328871,12.8403579 94.4287495,12.8996082 94.5330869,12.9508196 C94.6377215,13.002031 94.745626,13.0419282 94.8570975,13.0711068 C94.9685691,13.1002853 95.0836078,13.1148746 95.2019162,13.1148746 C95.2833648,13.1148746 95.3645161,13.104156 95.4459646,13.0833141 C95.5271159,13.0624723 95.5996468,13.0297208 95.6635571,12.9856552 C95.7274675,12.9412919 95.7791903,12.885019 95.8187255,12.8165386 C95.8579635,12.7477606 95.8778798,12.6658819 95.8778798,12.5703072 C95.8778798,12.4726483 95.8475595,12.3901742 95.7872163,12.3225871 C95.726873,12.2552977 95.6531531,12.1975361 95.5660567,12.1498976 C95.4789602,12.1022591 95.3865131,12.0632551 95.2890127,12.0331833 C95.1915122,12.0028138 95.1056048,11.9772081 95.0312904,11.9563663 C94.8107254,11.893543 94.6109683,11.8283378 94.4323166,11.7610485 C94.2533676,11.6934614 94.1005772,11.604437 93.9742428,11.4939752 C93.8476111,11.3835135 93.7495161,11.2444687 93.6796606,11.0771385 C93.6101023,10.9095106 93.5753232,10.6954351 93.5753232,10.4349122 C93.5753232,10.1627773 93.6211009,9.91505722 93.7129534,9.69175182 C93.8045087,9.46844643 93.932924,9.27848797 94.0979019,9.12128098 C94.2625825,8.96437172 94.4584752,8.84289359 94.6846882,8.75684657 C94.9111984,8.67079956 95.1591112,8.62762719 95.4284265,8.62762719 C95.5630841,8.62762719 95.7048759,8.6380481 95.8535047,8.65918768 C96.0021334,8.68002952 96.1495731,8.70980357 96.2958238,8.74791436 C96.4420745,8.78632289 96.5850554,8.83306815 96.7241719,8.88755466 C96.8635857,8.94233892 96.9937844,9.00337573 97.114471,9.07066509 L96.5571132,10.1559293 Z" id="Fill-48"></path>
                    <path d="M102.501996,10.5780956 C102.430059,10.4804367 102.348016,10.3949852 102.256461,10.321741 C102.164608,10.2484968 102.065919,10.1868645 101.960392,10.1368441 C101.854569,10.0868237 101.743692,10.0490107 101.627761,10.023405 C101.511534,9.99779931 101.394117,9.98499647 101.275808,9.98499647 C101.06208,9.98499647 100.867079,10.023405 100.690508,10.100222 C100.514235,10.1767414 100.363228,10.282737 100.237785,10.4176134 C100.112343,10.5524899 100.014842,10.7105901 99.9449866,10.8922118 C99.8754284,11.0735358 99.8406492,11.2688536 99.8406492,11.4781652 C99.8406492,11.6922406 99.8754284,11.8887494 99.9449866,12.0679892 C100.014842,12.2469312 100.113532,12.4011608 100.241352,12.5303802 C100.368876,12.6593019 100.522261,12.7605336 100.700912,12.8337778 C100.879861,12.907022 101.078429,12.9436441 101.296616,12.9436441 C101.410466,12.9436441 101.523721,12.9302457 101.636382,12.9037468 C101.749042,12.8769502 101.856947,12.8385417 101.960392,12.7885212 C102.063541,12.7385008 102.161339,12.678655 102.252894,12.608686 C102.344746,12.5390147 102.427681,12.4598157 102.501996,12.3713868 L102.501996,14.0497501 C102.385768,14.0845858 102.276674,14.1179327 102.174418,14.1491954 C102.072459,14.1807559 101.97258,14.2072548 101.87508,14.2295854 C101.777282,14.2516182 101.679187,14.2688871 101.580497,14.28169 C101.481808,14.2944928 101.378065,14.3010431 101.268972,14.3010431 C100.892644,14.3010431 100.53207,14.2322651 100.187251,14.0953044 C99.8424328,13.958046 99.5294206,13.7624305 99.2485123,13.5090533 C98.9512548,13.2393004 98.7327705,12.9326277 98.593654,12.5896306 C98.4542403,12.2466335 98.3843848,11.8738624 98.3843848,11.4713172 C98.3843848,11.1015234 98.4518622,10.7466167 98.5865199,10.4071925 C98.7211775,10.0674706 98.9185565,9.76526396 99.1786568,9.49997715 C99.3112336,9.36510069 99.4562953,9.24362256 99.614139,9.13524501 C99.7719828,9.0271652 99.9387442,8.93516337 100.114126,8.85983502 C100.289508,8.78420893 100.471132,8.72644727 100.659296,8.68684778 C100.84746,8.64754603 101.035327,8.62759741 101.223491,8.62759741 C101.448812,8.62759741 101.66581,8.65141665 101.87508,8.69905514 C102.084052,8.74699136 102.293024,8.81368524 102.501996,8.89973225 L102.501996,10.5780956 Z" id="Fill-49"></path>
                    <polygon id="Fill-50" points="104.079363 14.1578597 105.476176 14.1578597 105.476176 8.77054264 104.079363 8.77054264"></polygon>
                    <polygon id="Fill-51" points="108.489237 9.95703863 108.489237 10.8571082 110.06708 10.8571082 110.06708 12.0436042 108.489237 12.0436042 108.489237 12.9716614 110.154177 12.9716614 110.154177 14.1578597 107.092424 14.1578597 107.092424 8.77084038 110.154177 8.77084038 110.154177 9.95703863"></polygon>
                    <polygon id="Fill-52" points="111.863556 8.77072128 113.260369 8.77072128 115.824215 12.0646247 115.838186 12.0646247 115.838186 8.77072128 117.234999 8.77072128 117.234999 14.1580383 115.838186 14.1580383 113.277907 10.8572869 113.260369 10.8572869 113.260369 14.1580383 111.863556 14.1580383"></polygon>
                    <path d="M122.550022,10.5780956 C122.478086,10.4804367 122.396043,10.3949852 122.304488,10.321741 C122.212635,10.2484968 122.113946,10.1868645 122.008419,10.1368441 C121.902596,10.0868237 121.791718,10.0490107 121.675788,10.023405 C121.55956,9.99779931 121.442144,9.98499647 121.323835,9.98499647 C121.110107,9.98499647 120.915106,10.023405 120.738535,10.100222 C120.562261,10.1767414 120.411255,10.282737 120.285812,10.4176134 C120.160369,10.5524899 120.062869,10.7105901 119.993013,10.8922118 C119.923455,11.0735358 119.888676,11.2688536 119.888676,11.4781652 C119.888676,11.6922406 119.923455,11.8887494 119.993013,12.0679892 C120.062869,12.2469312 120.161558,12.4011608 120.289379,12.5303802 C120.416903,12.6593019 120.570287,12.7605336 120.748939,12.8337778 C120.927888,12.907022 121.126456,12.9436441 121.344643,12.9436441 C121.458493,12.9436441 121.571748,12.9302457 121.684409,12.9037468 C121.797069,12.8769502 121.904974,12.8385417 122.008419,12.7885212 C122.111568,12.7385008 122.209068,12.678655 122.300921,12.608686 C122.392773,12.5390147 122.475708,12.4598157 122.550022,12.3713868 L122.550022,14.0497501 C122.433795,14.0845858 122.324701,14.1179327 122.222445,14.1491954 C122.120485,14.1807559 122.020607,14.2072548 121.923106,14.2295854 C121.825309,14.2516182 121.727214,14.2688871 121.628524,14.28169 C121.529835,14.2944928 121.426092,14.3010431 121.316998,14.3010431 C120.94067,14.3010431 120.580097,14.2322651 120.235278,14.0953044 C119.89046,13.958046 119.577447,13.7624305 119.296539,13.5090533 C118.999282,13.2393004 118.780797,12.9326277 118.641681,12.5896306 C118.502267,12.2466335 118.432411,11.8738624 118.432411,11.4713172 C118.432411,11.1015234 118.499889,10.7466167 118.634547,10.4071925 C118.769204,10.0674706 118.966583,9.76526396 119.226684,9.49997715 C119.35926,9.36510069 119.504322,9.24362256 119.662166,9.13524501 C119.820009,9.0271652 119.986771,8.93516337 120.162153,8.85983502 C120.337535,8.78420893 120.519159,8.72644727 120.707323,8.68684778 C120.895487,8.64754603 121.083354,8.62759741 121.271518,8.62759741 C121.496839,8.62759741 121.713837,8.65141665 121.923106,8.69905514 C122.132078,8.74699136 122.34105,8.81368524 122.550022,8.89973225 L122.550022,10.5780956 Z" id="Fill-53"></path>
                    <polygon id="Fill-54" points="125.519417 9.95703863 125.519417 10.8571082 127.097557 10.8571082 127.097557 12.0436042 125.519417 12.0436042 125.519417 12.9716614 127.184653 12.9716614 127.184653 14.1578597 124.122604 14.1578597 124.122604 8.77084038 127.184653 8.77084038 127.184653 9.95703863"></polygon>
                    <path d="M131.627999,10.1559293 C131.498097,10.0490405 131.353927,9.96299344 131.196084,9.89778827 C131.03824,9.83258309 130.873262,9.80012937 130.701447,9.80012937 C130.636348,9.80012937 130.56887,9.80935933 130.499312,9.82781924 C130.429754,9.8465769 130.365249,9.8745645 130.306095,9.91178207 C130.246643,9.94899964 130.197893,9.99604264 130.159547,10.0529111 C130.121498,10.1100773 130.102176,10.1755802 130.102176,10.2500153 C130.102176,10.3292143 130.123281,10.3968014 130.164897,10.4524789 C130.206811,10.5084541 130.259128,10.5560926 130.321552,10.5956921 C130.384273,10.6349938 130.451751,10.6683407 130.523687,10.6951374 C130.595624,10.7216363 130.661912,10.7445623 130.722255,10.7630222 L131.077478,10.871102 C131.265642,10.9270773 131.440429,10.9937711 131.60184,11.0717792 C131.763251,11.1497872 131.903259,11.2468506 132.021568,11.3632671 C132.140174,11.4793859 132.233512,11.6172398 132.302179,11.776531 C132.370548,11.9361199 132.404733,12.1248874 132.404733,12.3437267 C132.404733,12.4762212 132.396112,12.6093112 132.378574,12.7429967 C132.361333,12.87698 132.331013,13.0064971 132.288208,13.1321436 C132.245105,13.2577901 132.187735,13.3768863 132.115798,13.48973 C132.043565,13.6025736 131.954388,13.7044009 131.847375,13.7952117 C131.636025,13.9741538 131.397624,14.1033732 131.131579,14.1822744 C130.865533,14.2614734 130.595624,14.3010729 130.321552,14.3010729 C129.982679,14.3010729 129.651831,14.2468841 129.329009,14.1388043 C129.006188,14.0307245 128.706552,13.8800678 128.430103,13.6868342 L129.029374,12.5566112 C129.117659,12.6331305 129.209215,12.7054814 129.304634,12.7727708 C129.399757,12.8403579 129.499635,12.8996082 129.603973,12.9508196 C129.708607,13.002031 129.816512,13.0419282 129.927983,13.0711068 C130.039455,13.1002853 130.154493,13.1148746 130.272802,13.1148746 C130.35425,13.1148746 130.435402,13.104156 130.51685,13.0833141 C130.598002,13.0624723 130.670532,13.0297208 130.734443,12.9856552 C130.798353,12.9412919 130.850076,12.885019 130.889611,12.8165386 C130.928849,12.7477606 130.948765,12.6658819 130.948765,12.5703072 C130.948765,12.4726483 130.918445,12.3901742 130.858102,12.3225871 C130.797759,12.2552977 130.724039,12.1975361 130.636942,12.1498976 C130.549846,12.1022591 130.457399,12.0632551 130.359898,12.0331833 C130.262398,12.0028138 130.17649,11.9772081 130.102176,11.9563663 C129.881611,11.893543 129.681854,11.8283378 129.503202,11.7610485 C129.324253,11.6934614 129.171463,11.604437 129.044831,11.4939752 C128.918497,11.3835135 128.820402,11.2444687 128.750546,11.0771385 C128.680988,10.9095106 128.646209,10.6954351 128.646209,10.4349122 C128.646209,10.1627773 128.691987,9.91505722 128.783839,9.69175182 C128.875394,9.46844643 129.00381,9.27848797 129.168788,9.12128098 C129.333468,8.96437172 129.529064,8.84289359 129.755574,8.75684657 C129.982084,8.67079956 130.229997,8.62762719 130.499312,8.62762719 C130.63397,8.62762719 130.775762,8.6380481 130.92439,8.65918768 C131.073019,8.68002952 131.220459,8.70980357 131.36671,8.74791436 C131.51296,8.78632289 131.655941,8.83306815 131.795058,8.88755466 C131.934471,8.94233892 132.06467,9.00337573 132.185357,9.07066509 L131.627999,10.1559293 Z" id="Fill-55"></path>
                </g>
                <g id="ucdavis" fill="#FFFFFF">
                    <path d="M80.4203204,13.2797492 L81.8721578,9.52913907 L82.1228896,9.74256291 C83.0126867,10.4522756 84.2210134,11.0564534 85.3599375,11.0803851 C86.3793127,11.1031399 86.8767646,10.8379294 86.7411689,9.99443443 C86.6412773,9.36475564 85.9131522,9.25372816 85.4590267,9.1666324 L84.4625182,8.97204008 C82.5240605,8.61698755 80.8933009,7.44707966 80.8933009,5.2308457 C80.8933009,1.87883598 83.8463198,0 86.8169902,0 C88.3771437,0 89.8101262,0.388792327 91.1500369,1.24131072 L89.8915638,4.56546549 C89.2007476,4.07859236 88.1556974,3.39398831 86.8334382,3.34730185 C86.3985689,3.33121659 85.4012581,3.55444852 85.7209913,4.54271075 C85.8589941,4.9640659 86.4759949,5.14100368 86.8551014,5.2308457 L87.9811881,5.49644853 C90.0809165,5.9754752 91.6017553,7.14459845 91.6017553,9.53855483 C91.6017553,12.9074345 88.6298814,14.5744159 85.6788684,14.5744159 C83.9558394,14.5744159 81.9616189,14.0946046 80.4203204,13.2797492" id="Fill-1"></path>
                    <polygon id="Fill-3" points="74.2930579 0 79.404571 0 79.404571 13.954228 74.2930579 13.954228"></polygon>
                    <polygon id="Fill-5" points="68.5159647 0 73.6705018 0 68.4053934 13.954228 64.2228456 13.954228 58.9749016 0 64.1114759 0 66.3141195 8.42049452"></polygon>
                    <path d="M54.3452431,4.02759725 L54.3452431,4.02759725 C54.4385707,4.62145188 55.3539929,8.89232422 55.3539929,8.89232422 L53.3429856,8.89232422 L54.3452431,4.02759725 Z M46.7203766,13.954228 L52.0359932,13.954228 L52.4405481,12.202105 L56.2320841,12.202105 L56.736459,13.954228 L62.0549159,13.954228 L57.0764961,0 L51.5003738,0 L46.7203766,13.954228 Z" id="Fill-6"></path>
                    <path d="M32.934036,0 L38.1464555,0 C42.7978355,0 46.3517579,2.04963134 46.3517579,7.17893934 C46.3517579,11.3111294 43.4553414,13.954228 39.3876038,13.954228 L32.934036,13.9468677 L32.934036,0 Z M38.056447,9.94793666 L38.3983178,9.94793666 C40.074978,9.94793666 41.3189517,8.98180917 41.3189517,7.16073244 C41.3189517,5.20019867 40.2170542,4.10662292 38.3749075,4.10662292 L38.056447,4.10662292 L38.056447,9.94793666 Z" id="Fill-7"></path>
                    <path d="M30.4548494,0.805437285 L30.7265271,3.09974962 C30.7903088,3.64422191 31.1140615,4.9508778 30.714013,4.77546691 C30.4637304,4.66796953 30.2582564,4.07576374 30.0543972,3.54953108 C29.9502474,3.28214589 29.4545264,2.01934273 29.3249446,1.92698036 C28.698027,1.47642274 27.1353755,0.968429704 26.0785371,0.9633847 C22.8729015,0.952130462 20.752362,3.22548662 20.752362,7.26032514 C20.752362,10.1542167 22.1931016,13.6251791 25.8589343,13.6251791 C27.1721106,13.6251791 29.688258,13.227788 30.3724983,11.4309907 C30.6821221,10.6175809 30.9659103,9.89498116 31.1701732,10.1146328 C31.3227648,10.2745207 31.1245572,10.9261022 31.0333251,11.2765359 C30.6009821,12.9417752 30.578376,13.4470517 30.4415279,13.5110844 C28.7852223,14.3116876 26.6610497,14.5744159 24.8020959,14.5744159 C18.8905824,14.5744159 16.8499719,11.2590725 16.8499719,7.94450522 C16.8499719,2.19203707 20.5250892,-0.231116882 26.2218441,0.0172525181 C27.6629874,0.068866784 29.1053418,0.315295798 30.4548494,0.805437285" id="Fill-8"></path>
                    <path d="M12.562139,0.725648968 L11.6179953,0.407627954 C11.3024758,0.131983823 11.6880213,0.0550056315 11.6880213,0.0550056315 C11.6880213,0.0550056315 13.0519186,0.299547463 16.4493873,0.0211818806 C16.4493873,0.0211818806 16.744382,0.0779435775 16.5407431,0.309266931 L15.4259613,0.770358524 C14.6999445,1.07671618 14.6999445,0.900988183 14.6999445,1.66999254 L14.6935053,8.80719276 C14.6935053,14.389278 8.81615007,14.2640912 7.67198949,14.2640912 C7.12586712,14.2640912 1.73547433,14.2640912 1.73547433,9.78302741 L1.73547433,2.22750126 C1.73547433,0.910707651 1.88156307,0.944920181 1.42840627,0.790963797 L0.064911359,0.296437233 C0.064911359,0.296437233 -0.166898873,-0.0196398877 0.245610654,0.000965385784 C1.35999005,0.0550056315 2.97300292,0.285551428 6.76728567,0.0211818806 C6.76728567,0.0211818806 7.09729329,0.0989376298 6.8799712,0.329483426 L5.74587184,0.637784972 C4.88221774,1.01179013 4.99611062,0.725648968 4.97357351,1.58212855 L5.00094,9.03190687 C5.00094,10.8583894 5.97365759,13.1203042 9.03387461,13.1203042 C13.1996172,13.1203042 13.2386546,9.63917928 13.2386546,8.86550957 L13.2463012,1.48571142 C13.2909729,0.790963797 13.1996172,0.988852179 12.562139,0.725648968" id="Fill-9"></path>
                </g>
                <path d="M4.5639041,38.4549112 L4.5639041,23.5315124 L1.93086003,23.5315124 L1.93086003,38.4549112 L4.5639041,38.4549112 Z M17.3915547,38.4549112 L17.3915547,30.8477814 C17.3915547,28.6327642 16.2213129,27.3798251 13.8808293,27.3798251 C12.1704759,27.3798251 10.7751875,28.2747816 10.0550387,29.1249902 L10.0550387,27.6483121 L7.69205047,27.6483121 L7.69205047,38.4549112 L10.0550387,38.4549112 L10.0550387,30.9149031 C10.5951503,30.176564 11.6303643,29.4605989 12.8456154,29.4605989 C14.1733897,29.4605989 15.0285664,30.0199467 15.0285664,31.69799 L15.0285664,38.4549112 L17.3915547,38.4549112 Z M23.7153614,38.7233981 C24.8180892,38.7233981 25.5157334,38.4325373 25.9433217,38.0298069 L25.3807055,36.2622679 C25.2006683,36.4636331 24.7730799,36.6426244 24.3229869,36.6426244 C23.6478474,36.6426244 23.287773,36.1056505 23.287773,35.3673114 L23.287773,29.7067119 L25.4932287,29.7067119 L25.4932287,27.6483121 L23.287773,27.6483121 L23.287773,24.6949558 L20.9247848,24.6949558 L20.9247848,27.6483121 L19.1244128,27.6483121 L19.1244128,29.7067119 L20.9247848,29.7067119 L20.9247848,35.9490331 C20.9247848,37.738946 21.8924847,38.7233981 23.7153614,38.7233981 L23.7153614,38.7233981 Z M32.6497075,38.7233981 C34.3825656,38.7233981 35.9803957,38.1864242 37.0606189,37.1572243 L35.9803957,35.6134245 C35.2152376,36.3741374 33.9549772,36.7992418 32.8972586,36.7992418 C30.8493355,36.7992418 29.6115797,35.4568071 29.4315425,33.8235116 L37.825777,33.8235116 L37.825777,33.2641638 C37.825777,29.8633293 35.7328446,27.3798251 32.4696703,27.3798251 C29.2515053,27.3798251 26.956031,29.9080771 26.956031,33.0404247 C26.956031,36.4636331 29.3865332,38.7233981 32.6497075,38.7233981 L32.6497075,38.7233981 Z M35.5303027,32.1678421 L29.4090379,32.1678421 C29.5215611,30.8477814 30.4442518,29.3039815 32.4696703,29.3039815 C34.6076121,29.3039815 35.4852934,30.8925292 35.5303027,32.1678421 L35.5303027,32.1678421 Z M42.5292489,38.4549112 L42.5292489,31.0938944 C43.0018466,30.3331814 44.3296209,29.6619641 45.3198255,29.6619641 C45.612386,29.6619641 45.8599371,29.684338 46.062479,29.7290858 L46.062479,27.402199 C44.644686,27.402199 43.3394163,28.2076599 42.5292489,29.2368598 L42.5292489,27.6483121 L40.1662606,27.6483121 L40.1662606,38.4549112 L42.5292489,38.4549112 Z M57.6748785,38.4549112 L57.6748785,30.8477814 C57.6748785,28.6327642 56.5046367,27.3798251 54.164153,27.3798251 C52.4537996,27.3798251 51.0585113,28.2747816 50.3383625,29.1249902 L50.3383625,27.6483121 L47.9753742,27.6483121 L47.9753742,38.4549112 L50.3383625,38.4549112 L50.3383625,30.9149031 C50.8784741,30.176564 51.913688,29.4605989 53.1289391,29.4605989 C54.4567135,29.4605989 55.3118902,30.0199467 55.3118902,31.69799 L55.3118902,38.4549112 L57.6748785,38.4549112 Z M69.7373709,38.4549112 L69.7373709,31.2952596 C69.7373709,28.3866511 67.6219338,27.3798251 65.2139363,27.3798251 C63.4810782,27.3798251 61.9057527,27.9391729 60.6454923,29.1249902 L61.6131922,30.7582857 C62.5583875,29.8409554 63.6161061,29.3934771 64.8313572,29.3934771 C66.3391688,29.3934771 67.3743827,30.1541901 67.3743827,31.4071292 L67.3743827,33.0180508 C66.5867199,32.1007204 65.3264595,31.6308683 63.8636573,31.6308683 C62.0857899,31.6308683 60.082876,32.6600682 60.082876,35.1435723 C60.082876,37.5375808 62.0857899,38.7233981 63.8636573,38.7233981 C65.3039549,38.7233981 66.5642153,38.2087982 67.3743827,37.2914678 L67.3743827,38.4549112 L69.7373709,38.4549112 Z M64.7863479,37.1124765 C63.4585736,37.1124765 62.4683689,36.3517635 62.4683689,35.1883201 C62.4683689,34.0025029 63.4585736,33.2417899 64.7863479,33.2417899 C65.8215618,33.2417899 66.8342711,33.6221464 67.3743827,34.3604854 L67.3743827,35.9937809 C66.8342711,36.73212 65.8215618,37.1124765 64.7863479,37.1124765 L64.7863479,37.1124765 Z M76.0611776,38.7233981 C77.1639055,38.7233981 77.8615497,38.4325373 78.289138,38.0298069 L77.7265218,36.2622679 C77.5464846,36.4636331 77.1188962,36.6426244 76.6688032,36.6426244 C75.9936637,36.6426244 75.6335893,36.1056505 75.6335893,35.3673114 L75.6335893,29.7067119 L77.839045,29.7067119 L77.839045,27.6483121 L75.6335893,27.6483121 L75.6335893,24.6949558 L73.270601,24.6949558 L73.270601,27.6483121 L71.470229,27.6483121 L71.470229,29.7067119 L73.270601,29.7067119 L73.270601,35.9490331 C73.270601,37.738946 74.238301,38.7233981 76.0611776,38.7233981 L76.0611776,38.7233981 Z M81.1472286,26.3282513 C81.957396,26.3282513 82.6100308,25.6794079 82.6100308,24.8739471 C82.6100308,24.0684863 81.957396,23.4196429 81.1472286,23.4196429 C80.3595658,23.4196429 79.6844263,24.0684863 79.6844263,24.8739471 C79.6844263,25.6794079 80.3595658,26.3282513 81.1472286,26.3282513 L81.1472286,26.3282513 Z M82.339975,38.4549112 L82.339975,27.6483121 L79.9769868,27.6483121 L79.9769868,38.4549112 L82.339975,38.4549112 Z M90.3066212,38.7233981 C93.794842,38.7233981 95.9102791,36.1503983 95.9102791,33.0404247 C95.9102791,29.9528249 93.794842,27.3798251 90.3066212,27.3798251 C86.8634097,27.3798251 84.725468,29.9528249 84.725468,33.0404247 C84.725468,36.1503983 86.8634097,38.7233981 90.3066212,38.7233981 L90.3066212,38.7233981 Z M90.3066212,36.6426244 C88.3037073,36.6426244 87.1784748,34.964581 87.1784748,33.0404247 C87.1784748,31.1386422 88.3037073,29.4605989 90.3066212,29.4605989 C92.3320397,29.4605989 93.4572722,31.1386422 93.4572722,33.0404247 C93.4572722,34.964581 92.3320397,36.6426244 90.3066212,36.6426244 L90.3066212,36.6426244 Z M107.995276,38.4549112 L107.995276,30.8477814 C107.995276,28.6327642 106.825034,27.3798251 104.484551,27.3798251 C102.774197,27.3798251 101.378909,28.2747816 100.65876,29.1249902 L100.65876,27.6483121 L98.295772,27.6483121 L98.295772,38.4549112 L100.65876,38.4549112 L100.65876,30.9149031 C101.198872,30.176564 102.234086,29.4605989 103.449337,29.4605989 C104.777111,29.4605989 105.632288,30.0199467 105.632288,31.69799 L105.632288,38.4549112 L107.995276,38.4549112 Z M120.057769,38.4549112 L120.057769,31.2952596 C120.057769,28.3866511 117.942332,27.3798251 115.534334,27.3798251 C113.801476,27.3798251 112.22615,27.9391729 110.96589,29.1249902 L111.93359,30.7582857 C112.878785,29.8409554 113.936504,29.3934771 115.151755,29.3934771 C116.659567,29.3934771 117.69478,30.1541901 117.69478,31.4071292 L117.69478,33.0180508 C116.907118,32.1007204 115.646857,31.6308683 114.184055,31.6308683 C112.406188,31.6308683 110.403274,32.6600682 110.403274,35.1435723 C110.403274,37.5375808 112.406188,38.7233981 114.184055,38.7233981 C115.624353,38.7233981 116.884613,38.2087982 117.69478,37.2914678 L117.69478,38.4549112 L120.057769,38.4549112 Z M115.106746,37.1124765 C113.778971,37.1124765 112.788767,36.3517635 112.788767,35.1883201 C112.788767,34.0025029 113.778971,33.2417899 115.106746,33.2417899 C116.14196,33.2417899 117.154669,33.6221464 117.69478,34.3604854 L117.69478,35.9937809 C117.154669,36.73212 116.14196,37.1124765 115.106746,37.1124765 L115.106746,37.1124765 Z M125.481389,38.4549112 L125.481389,23.5315124 L123.118401,23.5315124 L123.118401,38.4549112 L125.481389,38.4549112 Z M137.026275,38.4549112 L137.026275,32.8838073 L140.987093,32.8838073 C144.11524,32.8838073 145.893107,30.7359118 145.893107,28.2076599 C145.893107,25.6794079 144.137744,23.5315124 140.987093,23.5315124 L134.393231,23.5315124 L134.393231,38.4549112 L137.026275,38.4549112 Z M140.627019,30.5792944 L137.026275,30.5792944 L137.026275,25.8360253 L140.627019,25.8360253 C142.112326,25.8360253 143.192549,26.7757295 143.192549,28.2076599 C143.192549,29.6395902 142.112326,30.5792944 140.627019,30.5792944 L140.627019,30.5792944 Z M150.371532,38.4549112 L150.371532,31.0938944 C150.84413,30.3331814 152.171904,29.6619641 153.162109,29.6619641 C153.45467,29.6619641 153.702221,29.684338 153.904763,29.7290858 L153.904763,27.402199 C152.48697,27.402199 151.1817,28.2076599 150.371532,29.2368598 L150.371532,27.6483121 L148.008544,27.6483121 L148.008544,38.4549112 L150.371532,38.4549112 Z M160.723672,38.7233981 C164.211892,38.7233981 166.327329,36.1503983 166.327329,33.0404247 C166.327329,29.9528249 164.211892,27.3798251 160.723672,27.3798251 C157.28046,27.3798251 155.142518,29.9528249 155.142518,33.0404247 C155.142518,36.1503983 157.28046,38.7233981 160.723672,38.7233981 L160.723672,38.7233981 Z M160.723672,36.6426244 C158.720758,36.6426244 157.595525,34.964581 157.595525,33.0404247 C157.595525,31.1386422 158.720758,29.4605989 160.723672,29.4605989 C162.74909,29.4605989 163.874323,31.1386422 163.874323,33.0404247 C163.874323,34.964581 162.74909,36.6426244 160.723672,36.6426244 L160.723672,36.6426244 Z M173.123734,42.8401978 C175.801787,42.8401978 178.704887,41.7886239 178.704887,37.8955634 L178.704887,27.6483121 L176.341899,27.6483121 L176.341899,29.1473641 C175.464217,28.0062947 174.226462,27.3798251 172.853678,27.3798251 C170.063101,27.3798251 168.037683,29.438225 168.037683,32.9285551 C168.037683,36.486007 170.085606,38.4772851 172.853678,38.4772851 C174.271471,38.4772851 175.509227,37.7613199 176.341899,36.6873722 L176.341899,37.985059 C176.341899,40.2000763 174.676555,40.9160414 173.123734,40.9160414 C171.683436,40.9160414 170.558204,40.5356849 169.680522,39.5288589 L168.577794,41.2292762 C169.905569,42.4374674 171.278352,42.8401978 173.123734,42.8401978 L173.123734,42.8401978 Z M173.551322,36.3965113 C171.683436,36.3965113 170.49069,35.0093289 170.49069,32.9285551 C170.49069,30.8477814 171.683436,29.4605989 173.551322,29.4605989 C174.65405,29.4605989 175.824292,30.1094423 176.341899,30.9149031 L176.341899,34.9422071 C175.824292,35.7476679 174.65405,36.3965113 173.551322,36.3965113 L173.551322,36.3965113 Z M184.128508,38.4549112 L184.128508,31.0938944 C184.601105,30.3331814 185.92888,29.6619641 186.919084,29.6619641 C187.211645,29.6619641 187.459196,29.684338 187.661738,29.7290858 L187.661738,27.402199 C186.243945,27.402199 184.938675,28.2076599 184.128508,29.2368598 L184.128508,27.6483121 L181.765519,27.6483121 L181.765519,38.4549112 L184.128508,38.4549112 Z M198.576493,38.4549112 L198.576493,31.2952596 C198.576493,28.3866511 196.461056,27.3798251 194.053058,27.3798251 C192.3202,27.3798251 190.744875,27.9391729 189.484614,29.1249902 L190.452314,30.7582857 C191.39751,29.8409554 192.455228,29.3934771 193.670479,29.3934771 C195.178291,29.3934771 196.213505,30.1541901 196.213505,31.4071292 L196.213505,33.0180508 C195.425842,32.1007204 194.165582,31.6308683 192.702779,31.6308683 C190.924912,31.6308683 188.921998,32.6600682 188.921998,35.1435723 C188.921998,37.5375808 190.924912,38.7233981 192.702779,38.7233981 C194.143077,38.7233981 195.403337,38.2087982 196.213505,37.2914678 L196.213505,38.4549112 L198.576493,38.4549112 Z M193.62547,37.1124765 C192.297696,37.1124765 191.307491,36.3517635 191.307491,35.1883201 C191.307491,34.0025029 192.297696,33.2417899 193.62547,33.2417899 C194.660684,33.2417899 195.673393,33.6221464 196.213505,34.3604854 L196.213505,35.9937809 C195.673393,36.73212 194.660684,37.1124765 193.62547,37.1124765 L193.62547,37.1124765 Z M217.322867,38.4549112 L217.322867,30.6464162 C217.322867,28.4537729 216.197634,27.3798251 214.19472,27.3798251 C212.574385,27.3798251 211.134088,28.3866511 210.503958,29.3711032 C210.143883,28.1852859 209.153679,27.3798251 207.533344,27.3798251 C205.890504,27.3798251 204.450207,28.4537729 204.000114,29.1249902 L204.000114,27.6483121 L201.637125,27.6483121 L201.637125,38.4549112 L204.000114,38.4549112 L204.000114,30.9149031 C204.495216,30.1989379 205.462916,29.4605989 206.49813,29.4605989 C207.780895,29.4605989 208.298502,30.2436858 208.298502,31.4071292 L208.298502,38.4549112 L210.66149,38.4549112 L210.66149,30.8925292 C211.134088,30.1989379 212.124292,29.4605989 213.182011,29.4605989 C214.442271,29.4605989 214.959878,30.2436858 214.959878,31.4071292 L214.959878,38.4549112 L217.322867,38.4549112 Z M224.096766,38.7233981 C227.022371,38.7233981 228.620201,37.2690939 228.620201,35.3673114 C228.620201,31.0715205 222.048843,32.5034508 222.048843,30.5792944 C222.048843,29.8185815 222.836506,29.2592337 224.074262,29.2592337 C225.424541,29.2592337 226.639792,29.8185815 227.292427,30.5569205 L228.282631,28.9012511 C227.292427,28.0286686 225.897138,27.3798251 224.051757,27.3798251 C221.30619,27.3798251 219.775874,28.9012511 219.775874,30.6687901 C219.775874,34.8079637 226.347231,33.2865377 226.347231,35.4120593 C226.347231,36.2622679 225.627083,36.8663635 224.20929,36.8663635 C222.791497,36.8663635 221.283685,36.1280244 220.518527,35.3449375 L219.438304,37.0453548 C220.563536,38.1416764 222.251385,38.7233981 224.096766,38.7233981 L224.096766,38.7233981 Z" id="International-Progra" fill="#FFFFFF"></path>
                <path d="M0.965430017,19.5 L228.27383,19.5" id="Line" stroke="#FFFFFF" stroke-linecap="square"></path>
            </g>
        </g>
    </g>
</svg>