<?xml version="1.0" encoding="UTF-8" standalone="no"?>
<svg width="240px" height="52px" viewBox="0 0 240 52" version="1.1" xmlns="http://www.w3.org/2000/svg" xmlns:xlink="http://www.w3.org/1999/xlink">
    <!-- Generator: Sketch 39.1 (31720) - http://www.bohemiancoding.com/sketch -->
    <title>cornell</title>
    <desc>Created with Sketch.</desc>
    <defs>
        <polyline id="path-1" points="0 0.379166667 51.7542472 0.379166667 51.7542472 51.974 0 51.974"></polyline>
    </defs>
    <g id="live" stroke="none" stroke-width="1" fill="none" fill-rule="evenodd">
        <g id="landing" transform="translate(-881.000000, -1128.000000)">
            <g id="sponsors" transform="translate(0.000000, 1080.000000)">
                <g id="cornell" transform="translate(881.000000, 48.000000)">
                    <path d="M19.7869064,39.9152 C22.7346966,42.2331 25.6386067,43.4585667 25.7615581,43.5088333 L25.9861723,43.6037333 L26.211221,43.5075333 C26.3341723,43.4538 29.2280899,42.2114333 32.1667566,39.9186667 C36.1242247,36.8307333 38.2157004,33.3159667 38.2157004,29.7509333 L38.2122247,13.4515333 L13.7305768,13.4532667 L13.7297079,29.4692667 C13.7297079,33.1825 15.8233558,36.7934667 19.7869064,39.9152 L19.7869064,39.9152 Z M25.428764,34.9188667 C25.3027715,34.8751 25.1637453,34.8426 24.990397,34.8426 L24.9625918,34.8426 C24.3665169,34.8426 23.9211985,34.8837667 23.4480749,34.9258 C22.9814682,34.9687 22.4979176,35.0129 21.7884494,35.0280667 C21.4630412,35.035 21.1702172,35.0324 20.9486442,35.0280667 L20.9486442,27.3632667 L21.0498727,27.3632667 C21.3453034,27.3658667 21.7076404,27.3632667 22.160779,27.3550333 C22.5457079,27.3446333 22.9671311,27.2991333 23.4558951,27.2471333 C23.7243895,27.2176667 24.0106966,27.1886333 24.3313258,27.1604667 C24.8396404,27.105 25.307985,27.196 25.307985,27.196 C25.3557753,27.2068333 25.3896629,27.2215667 25.428764,27.2345667 L25.428764,34.9188667 L25.428764,34.9188667 Z M37.0552659,29.7509333 C37.0552659,36.4234 28.8401199,40.9465333 26.4206292,42.1325667 L26.4206292,36.062 C26.4666816,36.0186667 26.5083895,35.9749 26.5418427,35.9363333 C26.6630562,35.7955 26.7390861,35.7114333 26.9710861,35.7101333 C27.5302322,35.7183667 27.951221,35.7461 28.4308614,35.7903 C28.8896479,35.8306 29.4075206,35.8791333 30.1465318,35.8951667 C30.8746816,35.9133667 31.4425169,35.8813 31.4659775,35.8791333 L31.8778427,35.8574667 L31.8774082,33.5902667 L32.8405993,33.5902667 L32.8405993,32.3804 L31.8769738,32.3804 L31.8765393,30.1847 L32.8405993,30.1847 L32.8405993,28.9765667 L31.8761049,28.9765667 L31.875236,26.5100333 L31.4520749,26.5005 C31.2961049,26.4961667 31.1179775,26.4961667 30.9068315,26.4970333 C30.6114007,26.4931333 30.260794,26.4970333 29.8163446,26.4866333 C29.4700824,26.4792667 29.0634307,26.4355 28.5942172,26.3852333 C28.3213783,26.3562 28.0272509,26.3254333 27.7218277,26.2981333 C27.0640599,26.2227333 26.4836255,26.3423333 26.4488689,26.351 C26.4384419,26.3531667 26.4310562,26.3566333 26.4206292,26.3592333 L26.4206292,24.0296333 L37.054397,24.0296333 L37.0552659,29.7509333 L37.0552659,29.7509333 Z M26.4206292,34.9565667 L26.4206292,27.2722667 C26.4771086,27.2458333 26.544015,27.2194 26.6356854,27.1986 C26.6408989,27.1968667 27.1122846,27.1011 27.6340674,27.1622 C27.9451386,27.1886333 28.2331835,27.2176667 28.5025468,27.2493 C28.9908764,27.2991333 29.4118652,27.3446333 29.7954906,27.3550333 C30.1825918,27.3632667 30.503221,27.3632667 30.7738876,27.3632667 L31.0063221,27.3632667 L31.007191,35.0280667 C30.7860524,35.0324 30.4940974,35.0367333 30.1673858,35.0280667 C29.4587865,35.0129 28.975236,34.9687 28.5086292,34.9271 C28.0307266,34.8824667 27.6019176,34.8413 26.9684794,34.8426 C26.7438652,34.8426 26.5696479,34.8915667 26.4206292,34.9565667 L26.4206292,34.9565667 Z M14.8892734,14.6098333 L37.0535281,14.6072333 L37.0539625,22.8722 L14.888839,22.8722 L14.8892734,14.6098333 L14.8892734,14.6098333 Z M14.8884045,24.0296333 L25.428764,24.0296333 L25.428764,26.3362667 C25.2567191,26.3059333 24.7740375,26.2357333 24.244,26.2972667 C23.9303221,26.3254333 23.638367,26.3562 23.3650936,26.3852333 C22.8941423,26.4355 22.4896629,26.4792667 22.1399251,26.4866333 C21.6959101,26.4970333 21.3422622,26.4974667 21.0498727,26.4970333 C20.84003,26.4970333 20.6597303,26.4970333 20.5033258,26.5005 L20.0788614,26.5100333 L20.0788614,28.7369333 L19.0379026,28.7369333 L19.0379026,29.9472333 L20.0788614,29.9472333 L20.0788614,32.1741333 L19.0379026,32.1741333 L19.0379026,33.3805333 L20.0788614,33.3805333 L20.0788614,35.8574667 L20.4889888,35.8791333 C20.5133184,35.8813 21.0785468,35.9103333 21.8101723,35.8951667 C22.5483146,35.8791333 23.0670562,35.8306 23.5258427,35.7903 C23.9976629,35.7478333 24.405618,35.7101333 24.9625918,35.7101333 C25.1811236,35.7075333 25.2541124,35.7755667 25.3718502,35.9237667 C25.3879251,35.9437 25.4092135,35.9666667 25.428764,35.9887667 L25.428764,42.0792667 C22.8724195,40.8256333 14.88797,36.3553667 14.88797,29.4692667 L14.8884045,24.0296333 L14.8884045,24.0296333 Z" id="Fill-1" fill="#646464"></path>
                    <path d="M24.1427715,15.4370667 L17.9569738,15.4370667 L17.9569738,15.8695333 C17.9548015,17.2172 17.9530637,19.4956667 17.9621873,19.6001 C17.9912959,20.0672333 18.3014981,20.4901667 18.9075655,20.8927333 C19.654397,21.3923667 20.7679101,22.0428 20.8148315,22.0705333 L21.0268464,22.1944667 L21.2405993,22.0770333 C21.2914307,22.0493 22.4927041,21.3962667 23.2434457,20.8927333 C24.1210487,20.3094667 24.1358202,19.7773333 24.1419026,19.6001 C24.1492884,19.5039 24.1471161,17.5183667 24.1427715,15.8695333 L24.1427715,15.4370667 L24.1427715,15.4370667 Z M18.827191,16.3033 L23.275161,16.3033 C23.2755955,16.6638333 23.27603,17.0508 23.27603,17.4269333 L18.8258876,17.4269333 C18.8263221,17.0508 18.8267566,16.6642667 18.827191,16.3033 L18.827191,16.3033 Z M23.2729888,19.5758333 C23.2673408,19.7912 22.9901573,20.0195667 22.7598951,20.1721 C22.226382,20.5300333 21.4230712,20.9850333 21.0420524,21.1982333 C20.6792809,20.9811333 19.926367,20.5300333 19.3928539,20.1716667 C19.0448539,19.9411333 18.8389213,19.7119 18.8276255,19.5433333 C18.8263221,19.4800667 18.8254532,18.9657 18.8254532,18.2944667 L23.2764644,18.2944667 C23.2764644,18.9700333 23.2755955,19.4939333 23.2729888,19.5758333 L23.2729888,19.5758333 Z" id="Fill-2" fill="#646464"></path>
                    <path d="M34.6696629,15.2537667 L28.3452734,15.2537667 L28.3452734,15.6866667 C28.34397,17.3801333 28.34397,19.4163667 28.3500524,19.5216667 C28.3852434,19.9918333 28.7010936,20.4238667 29.3184569,20.8338 C30.0822322,21.3451333 31.2226816,22.0124667 31.2717753,22.0410667 L31.4833558,22.165 L31.698412,22.0462667 C31.7496779,22.0202667 32.9831011,21.3516333 33.7538277,20.8338 C34.6540225,20.2353667 34.6666217,19.6919667 34.6696629,19.5121333 C34.6761798,19.4163667 34.6744419,17.3784 34.6705318,15.6862333 L34.6696629,15.2537667 L34.6696629,15.2537667 Z M33.8003146,19.4943667 C33.7951011,19.7175333 33.5100974,19.9532667 33.2711461,20.1153333 C32.7198202,20.4819333 31.8869663,20.9512333 31.4985618,21.1679 C31.1284045,20.9486333 30.3533333,20.4819333 29.8028764,20.1153333 C29.6334382,20.0013667 29.2363446,19.7101667 29.2176629,19.4566667 C29.216794,19.4332667 29.2163596,19.3526667 29.2159251,19.2287333 L31.4077603,17.6501 L33.8033558,19.2426 C33.8024869,19.3747667 33.801618,19.4636 33.8003146,19.4943667 L33.8003146,19.4943667 Z M31.3886442,16.5932 L29.2133184,18.161 C29.2124494,17.5378667 29.2124494,16.7864667 29.2137528,16.1208667 L33.8003146,16.1208667 C33.8024869,16.7990333 33.8050936,17.5682 33.8050936,18.2021667 L31.3886442,16.5932 L31.3886442,16.5932 Z" id="Fill-3" fill="#646464"></path>
                    <path d="M27.5493483,28.9891333 L27.9629513,29.0307333 C28.2444794,29.0632333 28.4873408,29.0866333 28.6989213,29.0918333 L29.9779625,29.1286667 L29.9979476,28.2589667 L28.7202097,28.2243 C28.5290487,28.2204 28.3105169,28.197 28.0559251,28.1697 L27.6331985,28.1272333 C27.5202397,28.1151 27.4120599,28.1129333 27.3130037,28.1172667 L27.3508015,28.9822 C27.4103221,28.9791667 27.476794,28.9822 27.5493483,28.9891333" id="Fill-4" fill="#646464"></path>
                    <path d="M28.7267266,30.628 C28.5446891,30.6223667 28.3352809,30.5989667 28.096764,30.5742667 C27.9529588,30.5578 27.80003,30.5417667 27.6444944,30.5279 C27.5337079,30.5162 27.4294382,30.5144667 27.3316854,30.5162 L27.345588,31.3837333 C27.4072809,31.3815667 27.476794,31.3837333 27.557603,31.3915333 C27.7179176,31.4067 27.8660674,31.4218667 28.0046592,31.4366 C28.2709813,31.4647667 28.5034157,31.4886 28.7067416,31.4946667 C28.9730637,31.4977 29.3619026,31.5102667 29.6512509,31.5159 L29.9853483,31.525 L30.0053333,30.6600667 L29.6725393,30.6492333 C29.3840599,30.6427333 28.9926142,30.6310333 28.7267266,30.628" id="Fill-5" fill="#646464"></path>
                    <path d="M28.727161,33.0273667 C28.5412135,33.0208667 28.3300674,32.9987667 28.0859026,32.9714667 C27.9438352,32.9558667 27.7961199,32.9407 27.6462322,32.9268333 C27.5306667,32.9147 27.4246592,32.9108 27.3264719,32.9147 L27.3525393,33.7800667 C27.4120599,33.7800667 27.4785318,33.7800667 27.557603,33.7896 C27.7109663,33.8039 27.8569438,33.8212333 27.9916255,33.8325 C28.263161,33.8632667 28.4990712,33.8871 28.7054382,33.8936 L29.065603,33.9022667 C29.4340225,33.9122333 29.8432809,33.9217667 29.9862172,33.9252333 L30.0035955,33.0568333 C29.8597903,33.0538 29.4522697,33.046 29.0894981,33.0347333 L28.727161,33.0273667" id="Fill-6" fill="#646464"></path>
                    <path d="M23.2308464,29.0814333 C23.4428614,29.0779667 23.6857228,29.0515333 23.9668165,29.0203333 C24.0971536,29.0069 24.2353109,28.9930333 24.3825918,28.9765667 C24.450367,28.9722333 24.5194457,28.9674667 24.5798352,28.9700667 L24.5928689,28.1016667 C24.5033708,28.1016667 24.4034457,28.1055667 24.3017828,28.1151 C24.1484195,28.1281 24.0054831,28.1445667 23.8725393,28.1601667 C23.6209888,28.1853 23.4046292,28.2117333 23.2112959,28.2134667 L21.9335581,28.2464 L21.9539775,29.1148 L23.2308464,29.0814333" id="Fill-7" fill="#646464"></path>
                    <path d="M23.8803596,30.5578 C23.6283745,30.5851 23.4094082,30.6093667 23.2182472,30.6141333 L21.9405094,30.6475 L21.9604944,31.5154667 L23.2377978,31.4821 C23.451985,31.4769 23.6935431,31.4496 23.9746367,31.4201333 L24.3825918,31.3776667 C24.4481948,31.3724667 24.5129288,31.3694333 24.5728839,31.3720333 L24.6124195,30.5053667 C24.5220524,30.5010333 24.4182172,30.5053667 24.3074307,30.5144667 L23.8803596,30.5578" id="Fill-8" fill="#646464"></path>
                    <path d="M23.8812285,32.9558667 C23.6283745,32.9840333 23.4102772,33.0096 23.1761049,33.0130667 C22.7716255,33.0239 22.131236,33.0438333 21.9422472,33.0486 L21.9583221,33.9148333 C22.1481798,33.9092 22.7937828,33.8923 23.2391011,33.8806 C23.4511161,33.8749667 23.6935431,33.8481 23.9755056,33.8182 L24.3977978,33.7761667 C24.4620974,33.7688 24.526397,33.7675 24.5850487,33.7688 L24.5985169,32.903 C24.506412,32.9004 24.4043146,32.903 24.3087341,32.9116667 L23.8812285,32.9558667" id="Fill-9" fill="#646464"></path>
                    <path d="M3.9218427,26.3276 C5.00885393,26.3276 5.67531086,25.6338333 5.75611985,24.4291667 C5.76785019,24.1925667 5.75047191,23.9304 5.69138577,23.608 L5.67096629,23.5022667 L4.77381273,23.4940333 L4.85766292,23.6777667 C4.92196255,23.8212 4.96019476,24.1236667 4.94542322,24.3771667 C4.90501873,25.0042 4.43232959,25.3872667 3.76630712,25.3417667 C3.08898876,25.2988667 2.6588764,24.8607667 2.69493633,24.2493333 C2.70840449,24.0508667 2.74229213,23.8311667 2.90738577,23.5859 L3.01947566,23.4125667 L2.13405243,23.283 L2.09277903,23.3714 C1.98025468,23.6101667 1.90379026,23.9148 1.88771536,24.1839 C1.80994757,25.4436 2.50725094,26.2444 3.75501124,26.3224 C3.81105618,26.3254333 3.86710112,26.3276 3.9218427,26.3276" id="Fill-10" fill="#646464"></path>
                    <path d="M4.06391011,22.0722667 C4.30459925,22.139 4.53920599,22.1741 4.76077903,22.1741 C5.58581273,22.1741 6.19622472,21.6935333 6.43604494,20.8554667 C6.57854682,20.3549667 6.53814232,19.8809 6.31830712,19.4900333 C6.07805243,19.0558333 5.64142322,18.7451333 5.06055431,18.5809 C4.82855431,18.5150333 4.60307116,18.4825333 4.38975281,18.4825333 C3.55907116,18.4825333 2.94648689,18.9626667 2.70927341,19.7994333 C2.40080899,20.8762667 2.92128839,21.7459667 4.06391011,22.0722667 M3.48955805,20.0195667 C3.62076404,19.5524333 4.01872659,19.4545 4.32979775,19.4545 C4.47664419,19.4545 4.63652434,19.4779 4.7933633,19.5216667 C5.17307865,19.6308667 5.46937828,19.8284667 5.60319101,20.0672333 C5.69746816,20.2353667 5.71441199,20.4247333 5.65619476,20.6344667 C5.52151311,21.1029 5.13050187,21.2008333 4.82507865,21.2008333 C4.67041199,21.2008333 4.5048839,21.1757 4.33066667,21.1271667 C3.8371236,20.9863333 3.31968539,20.6128 3.48955805,20.0195667" id="Fill-11" fill="#646464"></path>
                    <path d="M7.80849438,17.2068 L6.52814981,16.5238667 L6.56942322,16.445 C6.68976779,16.2162 6.78274157,16.2361333 6.98041948,16.2599667 L8.22948315,16.419 L8.72259176,15.4899333 L7.06253184,15.3174667 C6.95217978,15.3092333 6.83096629,15.3127 6.73842697,15.3352333 C6.75232959,14.9820667 6.56855431,14.651 6.2327191,14.4724667 C6.04459925,14.3736667 5.86429963,14.3229667 5.69529588,14.3229667 C5.08879401,14.3229667 4.76686142,14.9331 4.48142322,15.4721667 L4.04696629,16.2851 L7.3614382,18.0466 L7.80849438,17.2068 M5.85734831,16.0606333 L5.80955805,16.1451333 L5.20826966,15.8249 L5.25345318,15.7408333 C5.40507865,15.4617667 5.56756554,15.2303667 5.82432959,15.366 C5.916,15.4154 5.96900375,15.4721667 5.99159551,15.5432333 C6.03895131,15.6944667 5.93555056,15.9107 5.85734831,16.0606333" id="Fill-12" fill="#646464"></path>
                    <polyline id="Fill-13" fill="#646464" points="9.8791161 13.9494333 8.17604494 12.5411 10.5916255 13.0892667 11.2645993 12.2811 8.37502622 9.88866667 7.78720599 10.5993333 9.4898427 12.0081 7.07773783 11.4521333 6.40041948 12.2668 9.29042697 14.6562 9.8791161 13.9494333"></polyline>
                    <polyline id="Fill-14" fill="#646464" points="14.0555506 9.90123333 13.5441948 9.27246667 12.4958502 10.1239667 12.0405393 9.56496667 12.9972135 8.79146667 12.4810787 8.164 11.5287491 8.93836667 11.151206 8.4734 12.1908614 7.62926667 11.6786367 7.00093333 9.90127341 8.44566667 12.2694981 11.3503 14.0555506 9.90123333"></polyline>
                    <polyline id="Fill-15" fill="#646464" points="17.1723446 8.0457 16.7713408 7.3372 15.6087341 7.99066667 14.1654682 5.43356667 13.3339176 5.90243333 15.1734082 9.16326667 17.1723446 8.0457"></polyline>
                    <polyline id="Fill-16" fill="#646464" points="20.3243296 6.84103333 20.0458427 6.0801 18.7902622 6.53423333 17.788839 3.77563333 16.8929888 4.1002 18.1689888 7.61843333 20.3243296 6.84103333"></polyline>
                    <path d="M24.1036704,6.22136667 C24.178397,6.22136667 24.2552959,6.21703333 24.3330637,6.20966667 C24.8526742,6.1659 25.2341273,6.0034 25.4704719,5.72693333 C25.6929139,5.46216667 25.7863221,5.096 25.747221,4.64013333 L25.5530187,2.2906 L24.6032959,2.36686667 L24.7809888,4.5045 C24.8431161,5.2585 24.5398652,5.37983333 24.2691985,5.4054 C24.2453034,5.4054 24.2218427,5.408 24.2001199,5.408 C23.9776779,5.408 23.6731236,5.32436667 23.6127341,4.6007 L23.4372135,2.4648 L22.4896629,2.54323333 L22.6838652,4.8932 C22.7555506,5.76073333 23.2443146,6.22136667 24.1036704,6.22136667" id="Fill-17" fill="#646464"></path>
                    <polyline id="Fill-18" fill="#646464" points="28.4008839 3.9858 29.212015 6.32406667 30.2568839 6.46533333 30.7612884 2.7534 29.8476255 2.63033333 29.5517603 4.81953333 28.7414981 2.4817 27.6948914 2.34 27.1922247 6.05323333 28.1050187 6.17586667 28.4008839 3.9858"></polyline>
                    <polyline id="Fill-19" fill="#646464" points="33.579176 3.5555 32.67203 3.26863333 31.5467865 6.84406667 32.455236 7.12703333 33.579176 3.5555"></polyline>
                    <polyline id="Fill-20" fill="#646464" points="38.2852135 5.65933333 37.4275955 5.2286 35.6163446 7.0668 36.0182172 4.52096667 35.1106367 4.05903333 34.5532285 7.9768 35.4773184 8.44046667 38.2852135 5.65933333"></polyline>
                    <polyline id="Fill-21" fill="#646464" points="39.2245094 11.0127333 39.7254382 10.3774667 38.6575431 9.54546667 39.1028614 8.97736667 40.0699625 9.73396667 40.569588 9.09653333 39.6003146 8.33993333 39.9704719 7.8689 41.0279401 8.69266667 41.5293034 8.05783333 39.722397 6.6469 37.4102172 9.5966 39.2245094 11.0127333"></polyline>
                    <path d="M40.7781273,12.5831333 L41.8681798,11.6293667 L41.9290037,11.6995667 C42.0688989,11.8590333 42.0732434,11.9266333 41.9576779,12.1489333 L41.3676854,13.2574 L42.0632509,14.0465 L42.8139925,12.5545333 C42.8396255,12.5003667 42.8934981,12.3842333 42.9113109,12.2503333 C43.232809,12.3907333 43.6194757,12.3270333 43.8992659,12.0835 C44.7069213,11.3745667 44.0608839,10.6387667 43.5894981,10.1027333 L42.9725693,9.4016 L40.1485993,11.8720333 L40.7781273,12.5831333 M42.9882097,10.6496 L43.0529438,10.7232667 C43.1867566,10.8779667 43.3257828,11.0517333 43.3131835,11.1956 C43.3114457,11.2614667 43.2745169,11.3234333 43.202397,11.3867 C43.1324494,11.4473667 43.0646742,11.4785667 42.995161,11.4785667 C42.8352809,11.4785667 42.6684494,11.3139 42.541588,11.1704667 L42.4781573,11.0976667 L42.9882097,10.6496" id="Fill-22" fill="#646464"></path>
                    <path d="M44.2772434,15.5796333 C44.0925993,15.6879667 43.8623371,15.5042333 43.7571985,15.3283 C43.6403296,15.1294 43.5729888,14.8802333 43.5647341,14.6111333 L43.5573483,14.4157 L42.698427,14.8113333 L42.7592509,15.0028667 C42.84397,15.2923333 42.8965393,15.4674 43.0781423,15.7742 C43.3835655,16.2898667 43.7902172,16.5741333 44.220764,16.5741333 C44.4214831,16.5741333 44.6239401,16.5143333 44.8246592,16.3934333 C45.4893783,16.0021333 45.3846742,15.3794333 45.3095131,14.9248667 C45.2569438,14.6033333 45.2313109,14.404 45.3655581,14.3247 C45.4324644,14.287 45.4945918,14.2683667 45.5536779,14.2683667 C45.7257228,14.2683667 45.839985,14.4308667 45.8816929,14.4993333 C45.9907416,14.6839333 46.062427,14.9023333 46.0924045,15.1276667 L46.1158652,15.3018667 L46.8965843,14.9491333 L46.8757303,14.846 C46.8209888,14.5808 46.7132434,14.3156 46.5490187,14.0361 C46.1397603,13.3501333 45.4685243,13.1278333 44.8411685,13.4983333 C44.1986067,13.8762 44.2911461,14.4854667 44.3606592,14.9279 C44.4180075,15.2789 44.4414682,15.4838667 44.2772434,15.5796333" id="Fill-23" fill="#646464"></path>
                    <polyline id="Fill-24" fill="#646464" points="44.7069213 18.9700333 48.1834457 17.5552 47.8228464 16.6759667 44.3484944 18.0912333 44.7069213 18.9700333"></polyline>
                    <polyline id="Fill-25" fill="#646464" points="48.1964794 20.2002667 45.3386217 20.9001 45.5649738 21.8252667 48.4237004 21.1215333 48.6617828 22.0796333 49.4472809 21.8868 48.7473708 19.0510667 47.9579625 19.2434667 48.1964794 20.2002667"></polyline>
                    <polyline id="Fill-26" fill="#646464" points="45.9981273 24.7381333 46.0511311 25.6871333 47.5252434 25.6043667 49.8730487 26.8055667 49.8178727 25.7746667 48.447161 25.0973667 49.7340225 24.2918 49.672764 23.1781333 47.4713708 24.6571 45.9981273 24.7381333"></polyline>
                    <polyline id="Fill-27" fill="#646464" points="4.65303371 33.3094667 5.43158052 33.085 5.10530337 31.9561667 5.67922097 31.7902 6.02461423 32.9784 6.80402996 32.7513333 6.19535581 30.6466333 2.58458427 31.6849 2.85394757 32.6022667 4.3263221 32.1771667 4.65303371 33.3094667"></polyline>
                    <path d="M7.99704869,36.4143 C8.14346067,35.9818333 8.09740824,35.5017 7.85889139,35.0246 C7.52740075,34.3486 6.97650936,33.9776667 6.31570037,33.9776667 C5.9976779,33.9776667 5.66271161,34.0621667 5.32209738,34.229 C4.77381273,34.4981 4.40061423,34.8824667 4.24551311,35.3409333 C4.0973633,35.7690667 4.14732584,36.2496333 4.38453933,36.7284667 C4.71559551,37.3992667 5.26779026,37.7676 5.94380524,37.7676 C6.26617228,37.7676 6.6028764,37.6826667 6.94044944,37.5175667 C7.47352809,37.2549667 7.83847191,36.8749333 7.99704869,36.4143 M6.50382022,36.6314 C6.26530337,36.7488333 6.0289588,36.8108 5.8191161,36.8108 C5.49327341,36.8108 5.25692884,36.6621667 5.11138577,36.3714 C5.01406742,36.1725 4.99625468,35.9788 5.05968539,35.7950667 C5.14744569,35.5368 5.40247191,35.2893667 5.75872659,35.1151667 C5.97986517,35.0077 6.20838951,34.9483333 6.41562547,34.9483333 C6.74928839,34.9483333 6.99171536,35.0943667 7.13117603,35.3825333 C7.22805993,35.5788333 7.24326592,35.7729667 7.17940075,35.9610333 C7.08946816,36.2210333 6.84313109,36.4684667 6.50382022,36.6314" id="Fill-28" fill="#646464"></path>
                    <path d="M10.5842397,39.3150333 L8.90289139,40.6497 C8.44975281,41.0111 8.12564794,41.0436 7.86497378,40.7155667 C7.75766292,40.5808 7.71334831,40.4521 7.72985768,40.3221 C7.75201498,40.1357667 7.89929588,39.9364333 8.16909363,39.7215 L9.84826966,38.3894333 L9.25045693,37.6415 L7.40097378,39.1057333 C7.01604494,39.4108 6.81098127,39.7535667 6.79490637,40.1249333 C6.77752809,40.4685667 6.92524345,40.8386333 7.23197004,41.2199667 C7.59604494,41.6784333 7.98705618,41.9081 8.39761798,41.9081 C8.70130337,41.9081 9.01498127,41.782 9.33126592,41.5315333 L11.1820524,40.0647 L10.5842397,39.3150333" id="Fill-29" fill="#646464"></path>
                    <polyline id="Fill-30" fill="#646464" points="13.7770637 42.3626667 12.3737678 44.0713 12.9081498 41.6507 12.0787715 40.9768667 9.69881648 43.875 10.4204494 44.4582667 11.8250487 42.7466 11.2967491 45.1758667 12.1161348 45.8466667 14.4956554 42.9481 13.7770637 42.3626667"></polyline>
                    <path d="M16.5497678,44.1345667 L15.5831011,43.6492333 L13.8948015,46.9971667 L14.8619026,47.4790333 C15.327206,47.7130333 15.7338577,47.8252667 16.1057528,47.8252667 C16.7552659,47.8252667 17.2653184,47.4712333 17.6202697,46.7679333 C18.1789813,45.6581667 17.8205543,44.7724333 16.5497678,44.1345667 M16.7352809,46.3220333 C16.5410787,46.7098667 16.204809,46.9295667 15.8124944,46.9295667 C15.6521798,46.9295667 15.4927341,46.8905667 15.3493633,46.8177667 L15.1169288,46.7046667 L16.0757753,44.8010333 L16.3069064,44.9176 C16.54803,45.0385 16.734412,45.2495333 16.8169588,45.5 C16.9016779,45.7608667 16.8738727,46.0455667 16.7352809,46.3220333" id="Fill-31" fill="#646464"></path>
                    <polyline id="Fill-32" fill="#646464" points="18.6216929 49.0758667 20.8682697 49.6721333 21.0776779 48.8925667 19.7564944 48.5389667 19.9407041 47.8456333 21.1406742 48.1645667 21.3518202 47.3854333 20.1505468 47.0643333 20.3039101 46.4854 21.6142322 46.8329333 21.8258127 46.0533667 19.5874906 45.4558 18.6216929 49.0758667"></polyline>
                    <path d="M24.1605843,46.3428333 L23.0761798,46.2808667 L22.8663371,50.0214 L23.9459625,50.0829333 C24.0289438,50.0881333 24.1110562,50.0894333 24.1927341,50.0894333 C25.4509213,50.0894333 26.1234607,49.4988 26.190367,48.334 C26.2216479,47.7563667 26.0904419,47.2983333 25.7954457,46.9685667 C25.4557004,46.5911333 24.920015,46.3857333 24.1605843,46.3428333 M24.1266966,49.2817 L23.8681948,49.2687 L23.9915805,47.1462333 L24.2461723,47.1596667 C24.7514457,47.1869667 25.242382,47.5813 25.2041498,48.2746333 C25.161573,48.997 24.6158951,49.3081333 24.1266966,49.2817" id="Fill-33" fill="#646464"></path>
                    <path d="M29.4961498,46.0603 L28.8579326,50.0248667 L29.8406742,49.8134 L29.9697079,48.9736 L31.1753258,48.7101333 L31.6336779,49.4329333 L32.6633408,49.2089 L30.4402247,45.8592333 L29.4961498,46.0603 M30.0870112,48.1190667 L30.2069213,47.1410333 L30.7195805,47.9834333 L30.0870112,48.1190667" id="Fill-34" fill="#646464"></path>
                    <polyline id="Fill-35" fill="#646464" points="33.0639101 47.9955667 33.3893184 48.8956 34.2925543 48.5710333 33.9636704 47.6688333 33.0639101 47.9955667"></polyline>
                    <path d="M34.8925393,44.2060667 L33.9393408,44.7182667 L35.7310412,48.0124667 L36.681633,47.4972333 C37.9298277,46.8251333 38.2617528,45.9277 37.6687191,44.8357 C37.0817678,43.7506333 36.1398652,43.5287667 34.8925393,44.2060667 M36.4140075,46.7228667 L36.1885243,46.8450667 L35.1718951,44.9778333 L35.3995506,44.8552 C35.5498727,44.7724333 35.7201798,44.7269333 35.8913558,44.7269333 C36.2697678,44.7269333 36.6021273,44.9401333 36.8006742,45.3028333 C37.1317303,45.9151333 36.8571536,46.4819333 36.4140075,46.7228667" id="Fill-36" fill="#646464"></path>
                    <polyline id="Fill-37" fill="#646464" points="38.3842697 45.3864667 38.9355955 46.1742667 39.7245693 45.6274 39.1758502 44.8383 38.3842697 45.3864667"></polyline>
                    <polyline id="Fill-38" fill="#646464" points="39.884015 40.5920667 39.7171835 42.0615 40.5417828 42.1737333 40.6099925 41.5614333 42.4016929 43.3745 43.0855281 42.7011 40.448809 40.0339333 39.884015 40.5920667"></polyline>
                    <path d="M44.9723745,38.6308 C44.6586966,38.4011333 44.3076554,38.3634333 43.9179476,38.5138 C43.92403,38.1459 43.7324345,37.83 43.5034757,37.6597 C43.036,37.3173667 42.4112509,37.5106333 41.9533333,38.1272667 C41.4997603,38.7387 41.5410337,39.3575 42.062382,39.7449 C42.3217528,39.9364333 42.6606292,39.9802 42.985603,39.8640667 C42.9625768,40.2727 43.0942172,40.5786333 43.3844345,40.7909667 C43.5955805,40.9465333 43.8145468,41.0254 44.0395955,41.0254 C44.4162697,41.0254 44.7929438,40.7944333 45.1057528,40.3775667 C45.3677303,40.0205 45.4828614,39.6625667 45.4342022,39.3410333 C45.3916255,39.0641333 45.2373933,38.8284 44.9723745,38.6308 L44.9723745,38.6308 Z M43.1867566,38.9042333 C43.0529438,38.9887333 42.9130487,39.0606667 42.7896629,39.0606667 C42.7305768,39.0606667 42.6788764,39.0459333 42.6323895,39.0112667 C42.4477453,38.8734667 42.5394157,38.6468333 42.622397,38.5367667 C42.6849588,38.4492333 42.7635955,38.4072 42.8509213,38.4072 C42.9130487,38.4072 42.9834307,38.4314667 43.0499026,38.4795667 C43.1628614,38.5658 43.2123895,38.7603667 43.1867566,38.9042333 L43.1867566,38.9042333 Z M44.4757903,39.9139 C44.3484944,40.0855 44.1091086,40.1357667 43.9461873,40.0161667 C43.797603,39.9052333 43.7489438,39.7535667 43.7889139,39.4974667 C44.0587116,39.3219667 44.2555206,39.2933667 44.4245243,39.4194667 C44.5035955,39.4771 44.5470412,39.5494667 44.5609438,39.6322333 C44.574412,39.7215 44.5435655,39.8220333 44.4757903,39.9139 L44.4757903,39.9139 Z" id="Fill-39" fill="#646464"></path>
                    <path d="M46.6745768,34.9687 C46.0237603,34.6445667 45.4055281,34.8382667 45.0927191,35.4609667 C45.0045243,35.6373333 44.9684644,35.8072 44.9854082,35.9757667 C44.7525393,35.7846667 44.5409588,35.4878333 44.7238652,35.1208 C44.816839,34.9340333 44.9397903,34.8105333 45.0892434,34.6801 L45.2156704,34.5717667 L44.5253184,34.0777667 L44.4475506,34.1536 C44.2555206,34.3399333 44.1043296,34.5483667 43.9852884,34.7858333 C43.8002097,35.1589333 43.7641498,35.5194667 43.8818876,35.8674333 C44.0834757,36.4732333 44.7025768,36.8866333 45.1826517,37.1241 C45.6014682,37.3351333 45.9590262,37.4378333 46.2722697,37.4378333 C46.7488689,37.4378333 47.1068614,37.2012333 47.3414682,36.7354 C47.7042397,36.0091333 47.4605094,35.3652 46.6745768,34.9687 M46.6402547,36.3865667 C46.5811685,36.5096333 46.4860225,36.5694333 46.3522097,36.5694333 C46.2609738,36.5694333 46.1554007,36.5412667 46.0459176,36.4845 C45.8612734,36.3935 45.7357154,36.2791 45.699221,36.1625333 C45.6761948,36.0932 45.6831461,36.0251667 45.7200749,35.9480333 C45.7765543,35.8362333 45.8677903,35.7816333 46.0029064,35.7816333 C46.1045693,35.7816333 46.2227416,35.8132667 46.344824,35.8739333 C46.5051386,35.9549667 46.6211386,36.0663333 46.6589363,36.1811667 C46.682397,36.2500667 46.6745768,36.3181 46.6402547,36.3865667" id="Fill-40" fill="#646464"></path>
                    <path d="M48.0035805,31.1887333 C47.2537079,30.9638333 46.6485094,31.3014 46.4360599,32.0229 C46.4147715,32.0896333 46.3995655,32.1511667 46.3917453,32.2049 L45.9520749,32.0653667 L46.334397,30.7770667 L45.5853933,30.5573667 L44.9419625,32.7188333 L47.0230112,33.3792333 L47.0221423,33.1976667 C47.020839,32.9966 47.0473408,32.8063667 47.1046891,32.6126667 C47.1581273,32.4341333 47.3501573,31.9917 47.7524644,32.1104333 C48.1791011,32.2391333 48.0804794,32.6971667 48.0418127,32.8349667 C47.9657828,33.0884667 47.816764,33.2704667 47.6925094,33.4212667 L47.5730337,33.5673 L48.4488989,33.8554667 L48.5023371,33.761 C48.6461423,33.5083667 48.7734382,33.2158667 48.840779,32.9840333 C48.9728539,32.5459333 48.9550412,32.1429333 48.7916854,31.8188 C48.6370187,31.5159 48.3589663,31.2936 48.0035805,31.1887333" id="Fill-41" fill="#646464"></path>
                    <g id="Group-45">
                        <mask id="mask-2" fill="white">
                            <use xlink:href="#path-1"></use>
                        </mask>
                        <g id="Clip-43"></g>
                        <path d="M6.95782772,26.1885 C6.95782772,36.5967333 15.4436404,45.0627667 25.8771236,45.0627667 C36.3106067,45.0627667 44.7972884,36.5967333 44.7972884,26.1885 C44.7972884,15.7828667 36.3106067,7.3177 25.8771236,7.3177 C15.4436404,7.3177 6.95782772,15.7828667 6.95782772,26.1885 M25.8771236,7.97116667 C35.9487041,7.97116667 44.1434307,16.1451333 44.1434307,26.1885 C44.1434307,36.2344667 35.9487041,44.4075667 25.8771236,44.4075667 C15.8042397,44.4075667 7.61125094,36.2344667 7.61125094,26.1885 C7.61125094,16.1451333 15.8042397,7.97116667 25.8771236,7.97116667" id="Fill-42" fill="#646464" mask="url(#mask-2)"></path>
                        <path d="M25.8771236,0.379166667 C11.6078202,0.379166667 0,11.9574 0,26.1906667 C0,40.4196 11.6078202,52 25.8771236,52 C40.1468614,52 51.7542472,40.4196 51.7542472,26.1906667 C51.7542472,11.9574 40.1468614,0.379166667 25.8771236,0.379166667 M25.8771236,51.3266 C11.9805843,51.3266 0.676449438,40.0517 0.676449438,26.1906667 C0.676449438,12.3309333 11.9805843,1.05386667 25.8771236,1.05386667 C39.7736629,1.05386667 51.0782322,12.3309333 51.0782322,26.1906667 C51.0782322,40.0517 39.7736629,51.3266 25.8771236,51.3266" id="Fill-44" fill="#646464" mask="url(#mask-2)"></path>
                    </g>
                    <path d="M76.7169944,33.1058728 L76.3061798,34.0829741 C75.4845465,34.4962305 74.6804815,34.7956618 73.8939607,34.9812769 C73.1074399,35.1668921 72.2507069,35.2596983 71.323736,35.2596983 C70.2352474,35.2596983 69.2240215,35.1231156 68.2900281,34.8499461 C67.3560347,34.5767767 66.5396805,34.1862903 65.840941,33.6784752 C65.1422016,33.1706602 64.5716314,32.6015657 64.1292135,31.9711746 C63.6867955,31.3407835 63.3497203,30.656119 63.1179775,29.9171606 C62.8862348,29.1782021 62.7703652,28.3674613 62.7703652,27.4849138 C62.7703652,25.2505276 63.5516074,23.3996571 65.1141152,21.9322468 C66.676623,20.4648364 68.8096775,19.7311422 71.5133427,19.7311422 C72.1523908,19.7311422 72.7440282,19.7679145 73.2882725,19.8414601 C73.8325168,19.9150058 74.4961337,20.0550906 75.2791433,20.2617188 C76.0621528,20.4683469 76.5414317,20.5891701 76.7169944,20.6241918 C76.5624992,21.0094308 76.4466296,21.3876598 76.369382,21.7588901 C76.2570219,22.3542594 76.1797755,23.0441771 76.1376404,23.8286638 L75.4740169,23.8286638 L75.4634831,22.5889009 C75.3932581,21.902475 75.0122928,21.3911655 74.3205758,21.0549569 C73.6288589,20.7187483 72.6158775,20.5506466 71.2816011,20.5506466 C70.2844051,20.5646552 69.4382057,20.6924826 68.7429775,20.9341325 C68.0477493,21.1757825 67.4350448,21.5575136 66.9048455,22.0793373 C66.3746462,22.601161 65.9410129,23.2630617 65.6039326,24.0650593 C65.2668522,24.8670568 65.0948034,25.8739164 65.0877809,27.0856681 C65.0877809,29.2079847 65.7373531,30.9152683 67.0365169,32.20757 C68.3356807,33.4998718 70.0526579,34.1460129 72.1875,34.1460129 C73.1495835,34.1460129 74.0414285,34.0129324 74.8630618,33.7467672 C75.4248624,33.5646543 75.9831433,33.2774804 76.5379213,32.8852371 L76.7169944,33.1058728 Z M78.0337079,30.1325431 C78.0337079,28.5635697 78.534054,27.2835448 79.5347612,26.29243 C80.5354685,25.3013151 81.8188124,24.8057651 83.3848315,24.8057651 C84.8595579,24.8057651 86.0603886,25.2680449 86.9873596,26.1926185 C87.9143305,27.1171921 88.377809,28.3114151 88.377809,29.7753233 C88.377809,30.7979577 88.1390473,31.7330238 87.6615169,32.5805496 C87.1839864,33.4280754 86.5098358,34.0917271 85.6390449,34.5715248 C84.7682541,35.0513224 83.8096962,35.2912177 82.7633427,35.2912177 C81.9487319,35.2912177 81.2587809,35.154635 80.6934691,34.8814655 C80.1281573,34.608296 79.6699456,34.2650883 79.3188202,33.8518319 C78.9676949,33.4385755 78.7008436,33.014819 78.5182584,32.5805496 C78.1952231,31.8170759 78.0337079,31.0010819 78.0337079,30.1325431 L78.0337079,30.1325431 Z M80.0245787,29.3550647 C80.0245787,30.2165991 80.1685379,31.0921292 80.4564607,31.981681 C80.7443835,32.8712329 81.1604608,33.5208762 81.7047051,33.9306304 C82.2489494,34.3403846 82.8405867,34.5452586 83.4796348,34.5452586 C84.2942456,34.5452586 84.9754186,34.2230636 85.5231742,33.5786638 C86.0709297,32.934264 86.3448034,31.943164 86.3448034,30.6053341 C86.3448034,29.4916431 86.1815325,28.5303112 85.854986,27.7213093 C85.5284394,26.9123074 85.1123621,26.3414618 84.6067416,26.0087554 C84.1011211,25.676049 83.5428401,25.5096983 82.931882,25.5096983 C82.0681137,25.5096983 81.3676291,25.821387 80.8304073,26.4447737 C80.2931855,27.0681604 80.0245787,28.0382477 80.0245787,29.3550647 L80.0245787,29.3550647 Z M89.5891854,34.9655172 L89.5891854,34.3666487 C90.3827287,34.35264 90.8110952,34.3386315 90.8742978,34.3246228 C90.9936804,34.3036098 91.083216,34.2703397 91.1429073,34.2248114 C91.2025986,34.1792832 91.2499998,34.114494 91.2851124,34.0304418 C91.3553374,33.8693419 91.3974718,33.6171892 91.4115169,33.2739763 C91.4536519,31.4038161 91.4747191,30.4267246 91.4747191,30.3426724 L91.4747191,29.092403 C91.4747191,28.5320554 91.4641855,27.9296907 91.443118,27.2852909 C91.429073,26.8720346 91.3992278,26.6268862 91.3535815,26.5498384 C91.3079352,26.4727906 91.2271775,26.4150056 91.1113062,26.3764817 C90.9954348,26.3379578 90.5372231,26.3221982 89.7366573,26.3292026 L89.7366573,25.7303341 C91.1552037,25.5342124 92.191008,25.2785576 92.8441011,24.9633621 C92.9845513,24.8933186 93.0793537,24.8582974 93.1285112,24.8582974 C93.1776688,24.8582974 93.216292,24.875808 93.244382,24.9108297 C93.2724721,24.9458515 93.2865169,24.9983833 93.2865169,25.0684267 C93.2865169,25.1174571 93.2830057,25.1734911 93.2759831,25.2365302 C93.2408706,25.6637952 93.2198034,26.3256959 93.2127809,27.2222522 C93.5287937,26.8580262 93.8202234,26.4973078 94.0870787,26.1400862 C94.3539339,25.7828646 94.54705,25.5517247 94.6664326,25.4466595 C94.8771078,25.2645465 95.1193807,25.1192085 95.3932584,25.0106412 C95.6671362,24.9020738 95.9515435,24.8477909 96.2464888,24.8477909 C96.5414341,24.8477909 96.8328637,24.9108291 97.1207865,25.0369073 L97.1839888,25.1839978 C97.0786512,26.1155758 97.0189607,26.9350719 97.0049157,27.6425108 L96.5308989,27.6425108 C96.3693812,27.3063022 96.181532,27.0611538 95.9673455,26.9070582 C95.753159,26.7529626 95.4845522,26.6759159 95.1615169,26.6759159 C94.6207838,26.6759159 94.1608165,26.8983006 93.7816011,27.3430765 C93.4023857,27.7878524 93.2127809,28.4550063 93.2127809,29.3445582 L93.2127809,30.4267241 C93.2127809,30.8890109 93.2303369,31.7330219 93.2654494,32.9587823 C93.2724719,33.3930517 93.2900279,33.6697192 93.318118,33.7887931 C93.346208,33.907867 93.3830756,33.9936689 93.4287219,34.0462015 C93.4743682,34.0987341 93.549859,34.1425106 93.6551966,34.1775323 C93.8658718,34.2405714 94.4346864,34.3036096 95.3616573,34.3666487 L95.3616573,34.9655172 C94.1256961,34.9164868 93.0723358,34.891972 92.2015449,34.891972 C91.302664,34.891972 90.4318862,34.9164868 89.5891854,34.9655172 L89.5891854,34.9655172 Z M97.9108146,34.9655172 L97.9108146,34.3666487 L98.9115169,34.3561422 C99.0589895,34.3491379 99.1731035,34.322872 99.2538624,34.2773438 C99.3346212,34.2318155 99.3960672,34.1740305 99.4382022,34.1039871 C99.5154498,33.9639002 99.5646066,33.7152496 99.5856742,33.358028 C99.5856742,33.2669715 99.6067414,32.261863 99.6488764,30.3426724 L99.6488764,29.092403 C99.6488764,28.5320554 99.6383428,27.9296907 99.6172753,27.2852909 C99.5962078,26.8720346 99.5628514,26.6268862 99.5172051,26.5498384 C99.4715588,26.4727906 99.3925567,26.4150056 99.2801966,26.3764817 C99.1678365,26.3379578 98.7113804,26.3221982 97.9108146,26.3292026 L97.9108146,25.7303341 C99.329361,25.5342124 100.365165,25.2785576 101.018258,24.9633621 C101.158709,24.8933186 101.253511,24.8582974 101.302669,24.8582974 C101.351826,24.8582974 101.390449,24.875808 101.418539,24.9108297 C101.446629,24.9458515 101.460674,24.9983833 101.460674,25.0684267 C101.460674,25.1174571 101.457163,25.1734911 101.45014,25.2365302 C101.429073,25.4886866 101.408006,26.0210089 101.386938,26.8335129 L103.346208,25.1629849 C103.922053,24.9528546 104.46629,24.8477909 104.978933,24.8477909 C105.547756,24.8477909 106.086725,24.9633609 106.595857,25.1945043 C107.104989,25.4256477 107.487709,25.7163237 107.744031,26.0665409 C108.000352,26.4167582 108.170646,26.8580254 108.254916,27.3903556 C108.304073,27.7055511 108.328652,28.5845833 108.328652,30.0274784 L108.328652,31.8871228 C108.328652,32.7976877 108.35323,33.417563 108.402388,33.7467672 C108.4375,33.9568976 108.491924,34.1022356 108.56566,34.1827856 C108.639396,34.2633355 108.75351,34.3141163 108.908006,34.3351293 L110.035112,34.3666487 L110.035112,34.9655172 C109.346907,34.9164868 108.774581,34.891972 108.318118,34.891972 C107.924858,34.891972 107.271774,34.9164868 106.358848,34.9655172 C106.457163,33.2354439 106.50632,32.1427824 106.50632,31.6875 L106.50632,29.9224138 C106.50632,28.8227316 106.464186,28.1012948 106.379916,27.7580819 C106.260533,27.2887908 105.990171,26.9105618 105.56882,26.6233836 C105.14747,26.3362055 104.638346,26.1926185 104.041433,26.1926185 C103.514745,26.1926185 103.03371,26.3169438 102.598315,26.5655981 C102.162919,26.8142523 101.852178,27.1014262 101.666081,27.4271282 C101.479985,27.7528303 101.386938,28.3009121 101.386938,29.0713901 L101.386938,30.3426724 C101.429073,32.1638022 101.45014,33.147898 101.45014,33.2949892 C101.464185,33.6452065 101.50632,33.9008613 101.576545,34.0619612 C101.604635,34.1250003 101.646769,34.1792832 101.702949,34.2248114 C101.759129,34.2703397 101.84691,34.3071119 101.966292,34.3351293 C102.008427,34.3421337 102.394659,34.35264 103.125,34.3666487 L103.125,34.9655172 C102.268254,34.9164868 101.492279,34.891972 100.797051,34.891972 C100.20716,34.891972 99.2450909,34.9164868 97.9108146,34.9655172 L97.9108146,34.9655172 Z M119.483848,33.3370151 L119.14677,34.0934806 C118.662217,34.3946675 118.307585,34.5942883 118.082865,34.6923491 C117.752807,34.8394404 117.375353,34.9637657 116.950492,35.0653287 C116.52563,35.1668917 116.077952,35.2176724 115.607444,35.2176724 C114.680473,35.2176724 113.841296,35.0250558 113.089888,34.6398168 C112.338479,34.2545778 111.753864,33.6784791 111.336025,32.9115032 C110.918186,32.1445274 110.70927,31.2462336 110.70927,30.2165948 C110.70927,29.4110951 110.819872,28.6844052 111.041081,28.0365032 C111.26229,27.3886013 111.513341,26.9105619 111.794242,26.6023707 C111.997894,26.3782316 112.313902,26.1208258 112.742275,25.8301455 C113.170648,25.5394651 113.595504,25.3100763 114.016854,25.141972 C114.571632,24.9108286 115.172047,24.7952586 115.818118,24.7952586 C116.604639,24.7952586 117.315657,24.9738667 117.951194,25.3310884 C118.586731,25.68831 119.051965,26.1751047 119.34691,26.7914871 C119.641855,27.4078695 119.789326,28.1047914 119.789326,28.8822737 C119.789326,29.0783954 119.775281,29.3165395 119.747191,29.5967134 C119.241571,29.6947742 118.788626,29.7578124 118.388343,29.7858297 C117.629912,29.8418645 116.871493,29.8698815 116.113062,29.8698815 L112.731742,29.8698815 C112.745787,30.8715029 112.919591,31.6822437 113.25316,32.3021282 C113.586729,32.9220128 114.046697,33.3790395 114.633076,33.673222 C115.219455,33.9674045 115.828649,34.1144935 116.460674,34.1144935 C116.889047,34.1144935 117.315658,34.0462022 117.74052,33.9096175 C118.165381,33.7730327 118.690306,33.5226311 119.315309,33.1584052 L119.483848,33.3370151 Z M112.731742,29.0398707 C112.928372,29.0608837 113.300559,29.0818964 113.848315,29.1029095 C114.894668,29.1379312 115.614464,29.1554418 116.007725,29.1554418 C116.941718,29.1554418 117.556178,29.1379312 117.851124,29.1029095 C117.858146,28.9348052 117.861657,28.8052267 117.861657,28.7141703 C117.861657,27.6074837 117.63694,26.7949918 117.1875,26.2766703 C116.73806,25.7583487 116.137644,25.4991918 115.386236,25.4991918 C114.592693,25.4991918 113.953654,25.7828635 113.469101,26.3502155 C112.984548,26.9175675 112.738764,27.8141103 112.731742,29.0398707 L112.731742,29.0398707 Z M121.042837,34.9655172 L121.042837,34.3666487 L122.033006,34.3561422 C122.187501,34.3491379 122.305126,34.322872 122.385885,34.2773438 C122.466644,34.2318155 122.52809,34.1740305 122.570225,34.1039871 C122.647472,33.9639002 122.693118,33.7152496 122.707163,33.358028 C122.714185,33.2669715 122.738764,32.261863 122.780899,30.3426724 L122.780899,25.9824892 C122.780899,24.8127635 122.759832,23.6045321 122.717697,22.3577586 C122.689607,21.5172372 122.650983,21.0479531 122.601826,20.9498922 C122.566713,20.8798488 122.510534,20.8308191 122.433287,20.8028017 C122.327949,20.7537713 121.843403,20.7292565 120.979635,20.7292565 L120.979635,20.109375 C122.566721,19.9132533 123.669238,19.6681049 124.287219,19.3739224 C124.378512,19.3318963 124.448736,19.3108836 124.497893,19.3108836 C124.547051,19.3108836 124.585674,19.3266432 124.613764,19.3581627 C124.641854,19.3896823 124.655899,19.4334588 124.655899,19.4894935 C124.655899,19.538524 124.648876,19.6085664 124.634831,19.6996228 L124.624298,20.0463362 C124.589185,21.300114 124.568118,22.3682607 124.561096,23.2508082 L124.540028,24.8898168 L124.540028,30.3426724 C124.575141,32.1638022 124.596208,33.147898 124.60323,33.2949892 C124.610253,33.6452065 124.652387,33.9008613 124.729635,34.0619612 C124.757725,34.1250003 124.799859,34.1792832 124.856039,34.2248114 C124.912219,34.2703397 124.996488,34.3071119 125.108848,34.3351293 C125.158006,34.3421337 125.547749,34.35264 126.27809,34.3666487 L126.27809,34.9655172 C125.323029,34.9094825 124.483852,34.8814655 123.760534,34.8814655 C123.072328,34.8814655 122.166438,34.9094825 121.042837,34.9655172 L121.042837,34.9655172 Z M127.320927,34.9655172 L127.320927,34.3666487 L128.311096,34.3561422 C128.465591,34.3491379 128.583216,34.322872 128.663975,34.2773438 C128.744734,34.2318155 128.80618,34.1740305 128.848315,34.1039871 C128.925562,33.9639002 128.971208,33.7152496 128.985253,33.358028 C128.992275,33.2669715 129.016854,32.261863 129.058989,30.3426724 L129.058989,25.9824892 C129.058989,24.8127635 129.037922,23.6045321 128.995787,22.3577586 C128.967696,21.5172372 128.929073,21.0479531 128.879916,20.9498922 C128.844803,20.8798488 128.788624,20.8308191 128.711376,20.8028017 C128.606039,20.7537713 128.121493,20.7292565 127.257725,20.7292565 L127.257725,20.109375 C128.844811,19.9132533 129.947328,19.6681049 130.565309,19.3739224 C130.656602,19.3318963 130.726826,19.3108836 130.775983,19.3108836 C130.825141,19.3108836 130.863764,19.3266432 130.891854,19.3581627 C130.919944,19.3896823 130.933989,19.4334588 130.933989,19.4894935 C130.933989,19.538524 130.926966,19.6085664 130.912921,19.6996228 L130.902388,20.0463362 C130.867275,21.300114 130.846208,22.3682607 130.839185,23.2508082 L130.818118,24.8898168 L130.818118,30.3426724 C130.853231,32.1638022 130.874298,33.147898 130.88132,33.2949892 C130.888343,33.6452065 130.930477,33.9008613 131.007725,34.0619612 C131.035815,34.1250003 131.077949,34.1792832 131.134129,34.2248114 C131.190309,34.2703397 131.274578,34.3071119 131.386938,34.3351293 C131.436096,34.3421337 131.825839,34.35264 132.55618,34.3666487 L132.55618,34.9655172 C131.601119,34.9094825 130.761942,34.8814655 130.038624,34.8814655 C129.350418,34.8814655 128.444528,34.9094825 127.320927,34.9655172 L127.320927,34.9655172 Z M138.771067,20.7082435 L138.771067,20.0358297 C139.915736,20.0918645 140.97963,20.1198815 141.962781,20.1198815 C142.959977,20.1198815 143.950136,20.0918645 144.933287,20.0358297 L144.933287,20.7082435 C144.104631,20.7222522 143.599018,20.7590245 143.416433,20.8185614 C143.233847,20.8780984 143.110955,20.9603982 143.047753,21.0654634 C142.95646,21.2055503 142.900281,21.5452559 142.879213,22.0845905 C142.872191,22.2246774 142.858146,23.2192795 142.837079,25.0684267 L142.837079,28.955819 C142.837079,30.4617532 142.933637,31.4546043 143.126756,31.9344019 C143.319875,32.4141996 143.627105,32.8116902 144.048455,33.1268858 C144.37149,33.3650335 144.806879,33.5558991 145.354635,33.6994881 C145.90239,33.8430772 146.513339,33.9148707 147.1875,33.9148707 C147.974021,33.9148707 148.67275,33.8185624 149.283708,33.6259429 C149.894666,33.4333234 150.352878,33.1986813 150.658357,32.9220097 C150.963836,32.6453381 151.192064,32.3354004 151.343048,31.9921875 C151.494032,31.6489746 151.602879,31.1779394 151.669593,30.5790679 C151.736307,29.9801964 151.769663,29.2219873 151.769663,28.3044181 L151.769663,25.0684267 C151.769663,24.1158358 151.755618,23.1842718 151.727528,22.2737069 C151.713483,21.6082941 151.666082,21.2143056 151.585323,21.0917295 C151.504564,20.9691535 151.372894,20.8780984 151.190309,20.8185614 C151.007724,20.7590245 150.502111,20.7222522 149.673455,20.7082435 L149.673455,20.0358297 C150.832169,20.0918645 151.678368,20.1198815 152.212079,20.1198815 C152.696632,20.1198815 153.570921,20.0918645 154.834972,20.0358297 L154.834972,20.7082435 C153.999294,20.7222522 153.491925,20.7590245 153.312851,20.8185614 C153.133777,20.8780984 153.00913,20.9603982 152.938904,21.0654634 C152.854634,21.2055503 152.801966,21.5452559 152.780899,22.0845905 C152.773876,22.2246774 152.759832,23.2192795 152.738764,25.0684267 L152.738764,28.5880927 C152.738764,30.318166 152.617628,31.5263974 152.375351,32.2128233 C152.133075,32.8992491 151.688908,33.5051159 151.042837,34.0304418 C150.558284,34.4226852 149.935046,34.7273696 149.173104,34.9445043 C148.411162,35.161639 147.566718,35.2702047 146.639747,35.2702047 C145.558281,35.2702047 144.62079,35.1423774 143.827247,34.8867188 C143.033704,34.6310601 142.429777,34.2948566 142.015449,33.8780981 C141.601122,33.4613395 141.316714,33.0358319 141.162219,32.6015625 C140.965589,32.0272062 140.867275,31.0641231 140.867275,29.7122845 L140.867275,25.0684267 C140.867275,24.1158358 140.856742,23.1842718 140.835674,22.2737069 C140.814607,21.6082941 140.763694,21.2143056 140.682935,21.0917295 C140.602177,20.9691535 140.472262,20.8780984 140.293188,20.8185614 C140.114114,20.7590245 139.606746,20.7222522 138.771067,20.7082435 L138.771067,20.7082435 Z M155.530197,34.9655172 L155.530197,34.3666487 L156.530899,34.3561422 C156.678372,34.3491379 156.792486,34.322872 156.873244,34.2773438 C156.954003,34.2318155 157.015449,34.1740305 157.057584,34.1039871 C157.134832,33.9639002 157.183989,33.7152496 157.205056,33.358028 C157.205056,33.2669715 157.226123,32.261863 157.268258,30.3426724 L157.268258,29.092403 C157.268258,28.5320554 157.257725,27.9296907 157.236657,27.2852909 C157.21559,26.8720346 157.182233,26.6268862 157.136587,26.5498384 C157.090941,26.4727906 157.011939,26.4150056 156.899579,26.3764817 C156.787219,26.3379578 156.330762,26.3221982 155.530197,26.3292026 L155.530197,25.7303341 C156.948743,25.5342124 157.984547,25.2785576 158.63764,24.9633621 C158.778091,24.8933186 158.872893,24.8582974 158.922051,24.8582974 C158.971208,24.8582974 159.009831,24.875808 159.037921,24.9108297 C159.066011,24.9458515 159.080056,24.9983833 159.080056,25.0684267 C159.080056,25.1174571 159.076545,25.1734911 159.069522,25.2365302 C159.048455,25.4886866 159.027388,26.0210089 159.00632,26.8335129 L160.96559,25.1629849 C161.541435,24.9528546 162.085672,24.8477909 162.598315,24.8477909 C163.167138,24.8477909 163.706107,24.9633609 164.215239,25.1945043 C164.724371,25.4256477 165.107091,25.7163237 165.363413,26.0665409 C165.619734,26.4167582 165.790028,26.8580254 165.874298,27.3903556 C165.923455,27.7055511 165.948034,28.5845833 165.948034,30.0274784 L165.948034,31.8871228 C165.948034,32.7976877 165.972612,33.417563 166.02177,33.7467672 C166.056882,33.9568976 166.111306,34.1022356 166.185042,34.1827856 C166.258778,34.2633355 166.372892,34.3141163 166.527388,34.3351293 L167.654494,34.3666487 L167.654494,34.9655172 C166.966289,34.9164868 166.393963,34.891972 165.9375,34.891972 C165.54424,34.891972 164.891156,34.9164868 163.97823,34.9655172 C164.076545,33.2354439 164.125702,32.1427824 164.125702,31.6875 L164.125702,29.9224138 C164.125702,28.8227316 164.083568,28.1012948 163.999298,27.7580819 C163.879915,27.2887908 163.609553,26.9105618 163.188202,26.6233836 C162.766852,26.3362055 162.257728,26.1926185 161.660815,26.1926185 C161.134127,26.1926185 160.653092,26.3169438 160.217697,26.5655981 C159.782301,26.8142523 159.47156,27.1014262 159.285463,27.4271282 C159.099367,27.7528303 159.00632,28.3009121 159.00632,29.0713901 L159.00632,30.3426724 C159.048455,32.1638022 159.069522,33.147898 159.069522,33.2949892 C159.083567,33.6452065 159.125702,33.9008613 159.195927,34.0619612 C159.224017,34.1250003 159.266151,34.1792832 159.322331,34.2248114 C159.378512,34.2703397 159.466292,34.3071119 159.585674,34.3351293 C159.627809,34.3421337 160.014041,34.35264 160.744382,34.3666487 L160.744382,34.9655172 C159.887636,34.9164868 159.111661,34.891972 158.416433,34.891972 C157.826542,34.891972 156.864473,34.9164868 155.530197,34.9655172 L155.530197,34.9655172 Z M170.835674,20.1724138 C171.165732,20.1724138 171.444872,20.2879838 171.673104,20.5191272 C171.901335,20.7502706 172.015449,21.0304402 172.015449,21.3596444 C172.015449,21.6818443 171.89958,21.9585118 171.667837,22.1896552 C171.436094,22.4207986 171.158709,22.5363685 170.835674,22.5363685 C170.505616,22.5363685 170.22472,22.4207986 169.992978,22.1896552 C169.761235,21.9585118 169.645365,21.6818443 169.645365,21.3596444 C169.645365,21.0304402 169.761235,20.7502706 169.992978,20.5191272 C170.22472,20.2879838 170.505616,20.1724138 170.835674,20.1724138 L170.835674,20.1724138 Z M168.265449,26.3186961 L168.265449,25.7198276 C169.627816,25.565732 170.772467,25.2715539 171.699438,24.8372845 L171.93118,25.0053879 C171.875,26.4973135 171.84691,27.6390047 171.84691,28.4304957 L171.84691,30.3426724 C171.882023,32.1638022 171.90309,33.147898 171.910112,33.2949892 C171.917135,33.6452065 171.955758,33.9008613 172.025983,34.0619612 C172.061096,34.1250003 172.106741,34.1792832 172.162921,34.2248114 C172.219101,34.2703397 172.30337,34.3071119 172.41573,34.3351293 C172.457865,34.3421337 172.847609,34.35264 173.584972,34.3666487 L173.584972,34.9655172 C172.517551,34.9164868 171.664329,34.891972 171.025281,34.891972 C170.46348,34.891972 169.543546,34.9164868 168.265449,34.9655172 L168.265449,34.3666487 L169.266152,34.3561422 C169.413624,34.3491379 169.527738,34.322872 169.608497,34.2773438 C169.689256,34.2318155 169.750702,34.1740305 169.792837,34.1039871 C169.870085,33.9639002 169.919241,33.7152496 169.940309,33.358028 C169.940309,33.2669715 169.961376,32.261863 170.003511,30.3426724 L170.003511,28.4935345 C170.003511,27.449887 169.968399,26.8300118 169.898174,26.6338901 C169.856039,26.5288249 169.780548,26.4500272 169.671699,26.3974946 C169.562851,26.344962 169.094105,26.3186961 168.265449,26.3186961 L168.265449,26.3186961 Z M179.441713,35.0705819 C179.167836,34.3561387 178.978231,33.8763482 178.872893,33.6311961 L178.009129,31.6244612 L175.849719,26.6128772 C175.709269,26.2976816 175.589888,26.0875544 175.491573,25.9824892 C175.393258,25.877424 175.284411,25.8108838 175.165028,25.7828664 C175.066713,25.754849 174.806884,25.7338363 174.385534,25.7198276 L174.385534,25.0894397 C175.55127,25.1384701 176.40098,25.1629849 176.934691,25.1629849 C177.524582,25.1629849 178.332158,25.1384701 179.357444,25.0894397 L179.357444,25.7198276 C178.599013,25.7408406 178.153091,25.7898703 178.019663,25.8669181 C177.886235,25.9439659 177.819522,26.0490295 177.819522,26.1821121 C177.819522,26.3922424 177.959971,26.8440159 178.240871,27.5374461 L179.525983,30.7314116 L179.831461,31.4458513 C180.175564,32.2793684 180.410814,32.8362055 180.537219,33.1163793 L181.59059,30.7314116 C181.653792,30.5913247 181.973312,29.8033477 182.549157,28.3674569 C182.886238,27.5339398 183.110954,26.8965539 183.223315,26.4552802 C183.251405,26.3362063 183.265449,26.2311427 183.265449,26.1400862 C183.265449,26.0210123 183.219804,25.9369615 183.128511,25.887931 C182.959971,25.7968745 182.510537,25.7408406 181.780197,25.7198276 L181.780197,25.0894397 C182.82655,25.1384701 183.49719,25.1629849 183.792135,25.1629849 C184.037923,25.1629849 184.708562,25.1384701 185.804073,25.0894397 L185.804073,25.7198276 C185.368678,25.7408406 185.079004,25.7916214 184.935042,25.8721713 C184.791081,25.9527213 184.648877,26.119072 184.508427,26.3712284 C184.410112,26.5393327 184.030902,27.2957907 183.370787,28.640625 L182.359551,30.7944504 C182.183988,31.1796894 181.57655,32.6050523 180.537219,35.0705819 L179.441713,35.0705819 Z M195.56882,33.3370151 L195.231742,34.0934806 C194.747189,34.3946675 194.392557,34.5942883 194.167837,34.6923491 C193.837779,34.8394404 193.460325,34.9637657 193.035463,35.0653287 C192.610602,35.1668917 192.162924,35.2176724 191.692416,35.2176724 C190.765445,35.2176724 189.926268,35.0250558 189.17486,34.6398168 C188.423451,34.2545778 187.838836,33.6784791 187.420997,32.9115032 C187.003158,32.1445274 186.794242,31.2462336 186.794242,30.2165948 C186.794242,29.4110951 186.904844,28.6844052 187.126053,28.0365032 C187.347262,27.3886013 187.598313,26.9105619 187.879213,26.6023707 C188.082866,26.3782316 188.398874,26.1208258 188.827247,25.8301455 C189.25562,25.5394651 189.680475,25.3100763 190.101826,25.141972 C190.656604,24.9108286 191.257019,24.7952586 191.90309,24.7952586 C192.689611,24.7952586 193.400629,24.9738667 194.036166,25.3310884 C194.671703,25.68831 195.136937,26.1751047 195.431882,26.7914871 C195.726827,27.4078695 195.874298,28.1047914 195.874298,28.8822737 C195.874298,29.0783954 195.860253,29.3165395 195.832163,29.5967134 C195.326542,29.6947742 194.873598,29.7578124 194.473315,29.7858297 C193.714884,29.8418645 192.956464,29.8698815 192.198034,29.8698815 L188.816713,29.8698815 C188.830758,30.8715029 189.004563,31.6822437 189.338132,32.3021282 C189.671701,32.9220128 190.131668,33.3790395 190.718048,33.673222 C191.304427,33.9674045 191.91362,34.1144935 192.545646,34.1144935 C192.974019,34.1144935 193.40063,34.0462022 193.825492,33.9096175 C194.250353,33.7730327 194.775278,33.5226311 195.400281,33.1584052 L195.56882,33.3370151 Z M188.816713,29.0398707 C189.013344,29.0608837 189.385531,29.0818964 189.933287,29.1029095 C190.97964,29.1379312 191.699436,29.1554418 192.092697,29.1554418 C193.02669,29.1554418 193.64115,29.1379312 193.936096,29.1029095 C193.943118,28.9348052 193.946629,28.8052267 193.946629,28.7141703 C193.946629,27.6074837 193.721912,26.7949918 193.272472,26.2766703 C192.823031,25.7583487 192.222616,25.4991918 191.471208,25.4991918 C190.677665,25.4991918 190.038626,25.7828635 189.554073,26.3502155 C189.06952,26.9175675 188.823736,27.8141103 188.816713,29.0398707 L188.816713,29.0398707 Z M197.085674,34.9655172 L197.085674,34.3666487 C197.879217,34.35264 198.307584,34.3386315 198.370787,34.3246228 C198.490169,34.3036098 198.579705,34.2703397 198.639396,34.2248114 C198.699087,34.1792832 198.746489,34.114494 198.781601,34.0304418 C198.851826,33.8693419 198.893961,33.6171892 198.908006,33.2739763 C198.950141,31.4038161 198.971208,30.4267246 198.971208,30.3426724 L198.971208,29.092403 C198.971208,28.5320554 198.960674,27.9296907 198.939607,27.2852909 C198.925562,26.8720346 198.895717,26.6268862 198.85007,26.5498384 C198.804424,26.4727906 198.723666,26.4150056 198.607795,26.3764817 C198.491924,26.3379578 198.033712,26.3221982 197.233146,26.3292026 L197.233146,25.7303341 C198.651692,25.5342124 199.687497,25.2785576 200.34059,24.9633621 C200.48104,24.8933186 200.575842,24.8582974 200.625,24.8582974 C200.674158,24.8582974 200.712781,24.875808 200.740871,24.9108297 C200.768961,24.9458515 200.783006,24.9983833 200.783006,25.0684267 C200.783006,25.1174571 200.779494,25.1734911 200.772472,25.2365302 C200.737359,25.6637952 200.716292,26.3256959 200.70927,27.2222522 C201.025282,26.8580262 201.316712,26.4973078 201.583567,26.1400862 C201.850423,25.7828646 202.043539,25.5517247 202.162921,25.4466595 C202.373597,25.2645465 202.615869,25.1192085 202.889747,25.0106412 C203.163625,24.9020738 203.448032,24.8477909 203.742978,24.8477909 C204.037923,24.8477909 204.329352,24.9108291 204.617275,25.0369073 L204.680478,25.1839978 C204.57514,26.1155758 204.51545,26.9350719 204.501404,27.6425108 L204.027388,27.6425108 C203.86587,27.3063022 203.678021,27.0611538 203.463834,26.9070582 C203.249648,26.7529626 202.981041,26.6759159 202.658006,26.6759159 C202.117273,26.6759159 201.657305,26.8983006 201.27809,27.3430765 C200.898875,27.7878524 200.70927,28.4550063 200.70927,29.3445582 L200.70927,30.4267241 C200.70927,30.8890109 200.726826,31.7330219 200.761938,32.9587823 C200.768961,33.3930517 200.786517,33.6697192 200.814607,33.7887931 C200.842697,33.907867 200.879564,33.9936689 200.925211,34.0462015 C200.970857,34.0987341 201.046348,34.1425106 201.151685,34.1775323 C201.362361,34.2405714 201.931175,34.3036096 202.858146,34.3666487 L202.858146,34.9655172 C201.622185,34.9164868 200.568825,34.891972 199.698034,34.891972 C198.799153,34.891972 197.928375,34.9164868 197.085674,34.9655172 L197.085674,34.9655172 Z M206.091994,31.7925647 L206.724017,31.7925647 C206.731039,32.1988167 206.752107,32.5210117 206.787219,32.7591595 C206.822332,32.9973072 206.882022,33.2301982 206.966292,33.4578394 C207.050562,33.6854807 207.180477,33.8780973 207.356039,34.035695 C207.531602,34.1932928 207.722962,34.315867 207.930126,34.4034213 C208.13729,34.4909757 208.347962,34.5487606 208.562149,34.576778 C208.776335,34.6047954 209.101121,34.6188039 209.536517,34.6188039 C210.252813,34.6188039 210.840939,34.4296894 211.300913,34.0514547 C211.760887,33.6732201 211.990871,33.1549063 211.990871,32.4964978 C211.990871,32.2023153 211.918891,31.9431584 211.77493,31.7190194 C211.630968,31.4948803 211.423808,31.3197743 211.153441,31.1936961 C210.883074,31.0676179 210.301971,30.9030183 209.410112,30.6998922 C208.518254,30.4967662 207.942417,30.3496772 207.682584,30.2586207 C207.289324,30.1115294 206.976827,29.9329213 206.745084,29.7227909 C206.513342,29.5126606 206.329003,29.2464995 206.192065,28.9242996 C206.055126,28.6020997 205.986657,28.2518877 205.986657,27.873653 C205.986657,27.3203097 206.132372,26.8107513 206.423806,26.3449623 C206.71524,25.8791733 207.173452,25.5009443 207.798455,25.210264 C208.423458,24.9195837 209.104631,24.7742457 209.841994,24.7742457 C210.284412,24.7742457 210.797048,24.8355328 211.379916,24.9581088 C211.962784,25.0806849 212.436796,25.2330271 212.801966,25.4151401 C212.752809,26.1926224 212.717697,26.9841016 212.696629,27.7896013 L212.096208,27.7896013 C212.061095,27.2782841 212.020717,26.9420805 211.97507,26.7809806 C211.929424,26.6198807 211.867978,26.4762937 211.79073,26.3502155 C211.713483,26.2241373 211.580057,26.0893057 211.390449,25.9457166 C211.200842,25.8021275 210.956813,25.6743001 210.658357,25.5622306 C210.3599,25.4501611 209.99298,25.3941272 209.557584,25.3941272 C208.939604,25.3941272 208.442769,25.5762374 208.067065,25.9404634 C207.69136,26.3046893 207.503511,26.731948 207.503511,27.2222522 C207.503511,27.4954216 207.557935,27.7300637 207.666784,27.9261853 C207.775633,28.122307 207.921347,28.2816535 208.103933,28.4042295 C208.286518,28.5268056 208.542835,28.6371224 208.872893,28.7351832 L210.621489,29.1659483 C211.506325,29.3900873 212.115518,29.5827039 212.449087,29.7438039 C212.782656,29.9049038 213.051263,30.1553054 213.254916,30.4950162 C213.458568,30.8347269 213.560393,31.2427239 213.560393,31.7190194 C213.560393,32.664606 213.168894,33.4893553 212.385885,34.193292 C211.602875,34.8972287 210.554782,35.2491918 209.241573,35.2491918 C208.637637,35.2491918 207.833572,35.1581367 206.829354,34.9760237 C206.274576,34.8709585 205.976124,34.797414 205.933989,34.7553879 C205.905899,34.7343749 205.891854,34.6993537 205.891854,34.6503233 C205.891854,34.6012929 205.898876,34.5417568 205.912921,34.4717134 C205.976124,34.1705265 206.018258,33.8763484 206.039326,33.5891703 C206.060393,33.3019921 206.077949,32.7031296 206.091994,31.7925647 L206.091994,31.7925647 Z M217.29986,20.1724138 C217.629917,20.1724138 217.909058,20.2879838 218.137289,20.5191272 C218.365521,20.7502706 218.479635,21.0304402 218.479635,21.3596444 C218.479635,21.6818443 218.363765,21.9585118 218.132022,22.1896552 C217.90028,22.4207986 217.622895,22.5363685 217.29986,22.5363685 C216.969802,22.5363685 216.688906,22.4207986 216.457163,22.1896552 C216.22542,21.9585118 216.109551,21.6818443 216.109551,21.3596444 C216.109551,21.0304402 216.22542,20.7502706 216.457163,20.5191272 C216.688906,20.2879838 216.969802,20.1724138 217.29986,20.1724138 L217.29986,20.1724138 Z M214.729635,26.3186961 L214.729635,25.7198276 C216.092001,25.565732 217.236653,25.2715539 218.163624,24.8372845 L218.395365,25.0053879 C218.339185,26.4973135 218.311096,27.6390047 218.311096,28.4304957 L218.311096,30.3426724 C218.346208,32.1638022 218.367275,33.147898 218.374298,33.2949892 C218.38132,33.6452065 218.419943,33.9008613 218.490169,34.0619612 C218.525281,34.1250003 218.570927,34.1792832 218.627107,34.2248114 C218.683287,34.2703397 218.767556,34.3071119 218.879916,34.3351293 C218.922051,34.3421337 219.311794,34.35264 220.049157,34.3666487 L220.049157,34.9655172 C218.981736,34.9164868 218.128514,34.891972 217.489466,34.891972 C216.927666,34.891972 216.007731,34.9164868 214.729635,34.9655172 L214.729635,34.3666487 L215.730337,34.3561422 C215.87781,34.3491379 215.991924,34.322872 216.072683,34.2773438 C216.153441,34.2318155 216.214887,34.1740305 216.257022,34.1039871 C216.33427,33.9639002 216.383427,33.7152496 216.404494,33.358028 C216.404494,33.2669715 216.425562,32.261863 216.467697,30.3426724 L216.467697,28.4935345 C216.467697,27.449887 216.432585,26.8300118 216.36236,26.6338901 C216.320225,26.5288249 216.244734,26.4500272 216.135885,26.3974946 C216.027036,26.344962 215.558291,26.3186961 214.729635,26.3186961 L214.729635,26.3186961 Z M221.018258,26.7284483 L221.018258,26.2871767 C221.720509,26.0210116 222.27879,25.7828674 222.693118,25.5727371 C222.693118,23.9057029 222.672051,22.8410583 222.629916,22.3787716 C223.360256,22.1266151 223.953649,21.8569519 224.410112,21.5697737 L224.662921,21.779903 C224.585674,22.3612637 224.501405,23.6430397 224.410112,25.6252694 C224.971913,25.6322737 225.308988,25.6357759 225.421348,25.6357759 C225.484551,25.6357759 225.846205,25.6287716 226.50632,25.6147629 C226.871491,25.6077586 227.145364,25.5937501 227.327949,25.5727371 L227.401685,25.6462823 L227.180478,26.6233836 C226.73806,26.6163793 226.33076,26.6128772 225.958567,26.6128772 C225.586375,26.6128772 225.070228,26.6163793 224.410112,26.6233836 L224.34691,30.8995151 C224.325843,31.9431625 224.332865,32.5665399 224.367978,32.7696659 C224.40309,32.972792 224.469803,33.149649 224.568118,33.3002425 C224.666433,33.4508359 224.794592,33.571659 224.952598,33.6627155 C225.110605,33.753772 225.379212,33.8238144 225.758427,33.8728448 C226.04635,33.8728448 226.279845,33.8605874 226.458919,33.8360722 C226.637992,33.811557 226.864465,33.7502699 227.138343,33.6522091 L227.264747,34.0619612 C226.934689,34.321122 226.61517,34.5907852 226.30618,34.8709591 C226.039325,34.9690199 225.790029,35.0338091 225.558287,35.0653287 C225.326544,35.0968482 225.059693,35.1126078 224.757725,35.1126078 C224.385532,35.1126078 224.088835,35.0705823 223.867626,34.9865302 C223.646417,34.902478 223.444523,34.785157 223.261938,34.6345636 C223.079353,34.4839702 222.928371,34.2931046 222.808989,34.0619612 C222.689606,33.8308178 222.61236,33.4665973 222.577247,32.9692888 C222.58427,32.4929933 222.598315,31.9711774 222.619382,31.4038254 C222.626405,31.2917559 222.629916,31.1691817 222.629916,31.0360991 L222.629916,26.6759159 L222.198034,26.6759159 C221.846908,26.6759159 221.453654,26.6934265 221.018258,26.7284483 L221.018258,26.7284483 Z M228.044242,40.5864763 L228.581461,38.9684806 L228.83427,38.9684806 C228.967697,39.0805501 229.081811,39.1698542 229.176615,39.2363955 C229.271419,39.3029368 229.373244,39.3537175 229.482093,39.3887392 C229.590942,39.423761 229.750701,39.4412716 229.961376,39.4412716 C230.179074,39.4412716 230.391502,39.3939929 230.598666,39.2994343 C230.80583,39.2048756 230.998946,39.0560355 231.17802,38.8529095 C231.357094,38.6497835 231.569521,38.2995715 231.815309,37.8022629 C232.187502,37.052798 232.521066,36.2893358 232.816011,35.5118534 C232.591291,34.8814624 232.320929,34.1740341 232.004916,33.3895474 L230.330056,29.25 C229.831458,28.0172352 229.424159,27.0716628 229.108146,26.4132543 C228.981741,26.1540935 228.84656,25.9807386 228.702598,25.8931843 C228.558637,25.80563 228.237362,25.7338365 227.738764,25.6778017 L227.738764,25.0894397 C228.609555,25.1384701 229.469799,25.1629849 230.319522,25.1629849 C231.148178,25.1629849 231.945221,25.1384701 232.710674,25.0894397 L232.710674,25.6778017 C231.987356,25.7268321 231.573034,25.7723597 231.467697,25.8143858 C231.285111,25.8844292 231.19382,26.0105056 231.19382,26.1926185 C231.19382,26.3046881 231.253511,26.535828 231.372893,26.8860453 C231.646771,27.7475797 231.9066,28.483025 232.152388,29.092403 L232.816011,30.7314116 C233.216294,31.71202 233.553369,32.5070013 233.827247,33.1163793 L234.385534,31.8766164 C234.603231,31.3863122 234.985952,30.4547482 235.533708,29.0818966 C236.081463,27.7090449 236.400983,26.8615318 236.492275,26.5393319 C236.520365,26.4272624 236.53441,26.329203 236.53441,26.2451509 C236.53441,26.1120683 236.479986,26.0087558 236.371138,25.9352101 C236.262289,25.8616645 235.839189,25.789871 235.101826,25.7198276 L235.101826,25.0894397 C235.916437,25.1384701 236.636233,25.1629849 237.261236,25.1629849 C237.893262,25.1629849 238.518255,25.1384701 239.136236,25.0894397 L239.030899,25.7198276 C238.672751,25.7338363 238.395366,25.8108829 238.198736,25.9509698 C238.002106,26.0910567 237.705409,26.5620919 237.308638,27.3640894 C236.911866,28.166087 236.176269,29.7437921 235.101826,32.0972522 L232.668539,37.7707435 C232.275279,38.6883128 231.934692,39.3432092 231.64677,39.7354526 C231.358847,40.1276959 231.014749,40.4253761 230.614466,40.6285022 C230.214183,40.8316282 229.775283,40.9331897 229.297753,40.9331897 C229.06601,40.9331897 228.857094,40.9069238 228.670997,40.8543912 C228.484901,40.8018586 228.275984,40.7125545 228.044242,40.5864763 L228.044242,40.5864763 Z" id="Cornell-University" fill="#646464"></path>
                </g>
            </g>
        </g>
    </g>
</svg>