<?xml version="1.0" encoding="UTF-8" standalone="no"?>
<svg width="107px" height="72px" viewBox="0 0 107 72" version="1.1" xmlns="http://www.w3.org/2000/svg" xmlns:xlink="http://www.w3.org/1999/xlink">
    <!-- Generator: Sketch 39.1 (31720) - http://www.bohemiancoding.com/sketch -->
    <title>fsa</title>
    <desc>Created with Sketch.</desc>
    <defs></defs>
    <g id="live" stroke="none" stroke-width="1" fill="none" fill-rule="evenodd">
        <g id="landing" transform="translate(-1192.000000, -1118.000000)" fill="#717171">
            <g id="sponsors" transform="translate(0.000000, 1080.000000)">
                <g id="fsa" transform="translate(1192.000000, 38.000000)">
                    <path d="M26.1109992,56.8433524 C44.2087987,54.4246857 97.4855219,52.4719238 102.981165,53.2803048 C103.368848,54.6090667 106.235433,62.4155429 106.235433,62.4155429 C93.2909808,59.1363048 47.0708449,56.2852571 26.1109992,56.8433524" id="Fill-4"></path>
                    <path d="M99.8859794,45.1249905 C95.6903037,45.2476571 91.7215643,45.5303238 87.6053163,45.776419 C88.0164494,47.1699429 88.4075365,48.8579429 88.7702565,50.1920381 C93.8335857,50.0350857 98.1298699,49.9901333 101.525217,50.0023238 C101.06151,48.5627048 100.385996,46.6872762 99.8859794,45.1249905 L99.8859794,45.1249905 Z M28.232325,51.5554667 C31.080755,50.9246095 33.9825151,50.3326095 36.9141551,49.7752762 C33.2907373,48.0663238 30.0962293,45.368419 28.232325,43.6419429 L28.232325,51.5554667 Z M12.1357264,25.6152762 C12.1357264,16.2305143 12.2140195,14.3375619 12.3706056,9.76346667 C13.9360885,9.68499048 15.5027061,9.68499048 16.9898959,9.68499048 C21.8675156,9.68499048 27.0011951,9.96308571 30.3314867,10.288419 C29.0084475,12.7577524 28.3011624,15.5139429 28.3011624,18.3581333 C28.3011624,34.6038476 51.9452874,33.0259429 51.9452874,43.2769905 C51.9452874,44.5208 51.6075304,45.6640381 51.0356506,46.6792762 C54.8391047,46.1025143 58.6406675,45.5775619 62.4036512,45.1013714 C62.840882,43.4560381 63.0640361,41.7550857 63.0640361,40.0446095 C63.0640361,21.1196571 39.4202894,24.1162286 39.4202894,14.8103238 C39.4202894,12.0526095 41.2978099,8.58137143 46.5434447,8.58137143 C51.0855767,8.58137143 54.2948355,10.6320381 57.9734745,13.4708952 L61.080612,3.14746667 C58.6066271,1.34708571 51.8666161,0.380990476 48.8922364,0.380990476 C41.2701993,0.380990476 35.4931551,3.35775238 32.0221629,7.73222857 L32.0221629,1.48384762 L-7.56454657e-05,1.48384762 C0.548732208,6.37299048 0.548732208,15.2042286 0.548732208,29.6358476 C0.548732208,44.0670857 0.548732208,52.8979429 -7.56454657e-05,57.7870857 L3.9187377,57.7870857 C6.72102397,57.0286095 9.58307017,56.0990857 12.4451164,55.3547048 C12.1610676,49.3070857 12.2026726,38.6762286 12.1357264,33.8141333 L15.8930367,33.8141333 C19.6511034,33.8141333 22.9386553,33.9733714 26.3063915,34.2888 L26.3063915,25.1406095 C22.9386553,25.4575619 19.6511034,25.6152762 15.8930367,25.6152762 L12.1357264,25.6152762 Z M5.4743867,57.8198476 C5.4743867,57.8198476 61.4890975,50.9634667 70.8203439,51.1143238 C71.1070403,50.0274667 71.6236988,48.0270857 71.8302109,47.2876571 C65.1503381,47.7036571 26.9421916,52.6583238 5.4743867,57.8198476 L5.4743867,57.8198476 Z M74.1128128,39.4008 C75.7577235,33.4849905 78.2139318,25.2979429 80.0933434,19.3867048 L80.2495512,19.3867048 C82.051048,25.2979429 83.872969,31.5036571 85.4399649,37.4979429 L74.1128128,39.4008 Z M86.5916671,1.48384762 L73.2247351,2.71965714 C74.3352105,3.72499048 75.2236665,3.72499048 75.1608808,6.1368 C75.1374307,7.00575238 74.2213641,9.68499048 72.8892474,14.1009905 C69.9065467,23.9836571 66.0724563,35.8762286 63.0644144,45.0168 C76.0557666,43.3809905 88.5402943,42.2952762 98.8311034,41.5840381 C94.5775589,28.2133714 89.5717202,12.0987048 86.5916671,1.48384762 L86.5916671,1.48384762 Z" id="Fill-1"></path>
                    <polygon id="Fill-7" points="0.881685725 65.6796952 3.3144439 65.6796952 3.3144439 66.3353143 1.5677901 66.3353143 1.5677901 68.2503619 3.2285863 68.2503619 3.2285863 68.905981 1.5677901 68.905981 1.5677901 71.7010286 0.881685725 71.7010286"></polygon>
                    <path d="M7.81239893,69.4750476 L6.97802944,66.4735238 L6.96252212,66.4735238 L6.10508077,69.4750476 L7.81239893,69.4750476 Z M7.36798182,65.679619 L9.14565026,71.7009524 L8.42853125,71.7009524 L7.99167868,70.1310476 L5.91785824,70.1310476 L5.48100568,71.7009524 L4.79490131,71.7009524 L6.61946994,65.679619 L7.36798182,65.679619 Z" id="Fill-9"></path>
                    <path d="M12.0530459,68.3537905 L12.5833206,68.3537905 C13.3163252,68.3537905 13.5969699,67.8189333 13.5969699,67.2928381 C13.5969699,66.6200762 13.1990747,66.3008381 12.5988279,66.3008381 L12.0530459,66.3008381 L12.0530459,68.3537905 Z M11.3669415,65.6795048 L12.7626004,65.6795048 C13.3393971,65.6795048 13.6593774,65.8353143 13.9086292,66.0936 C14.1892739,66.3873143 14.3144671,66.8010286 14.3144671,67.2410286 C14.3144671,67.8795048 14.041387,68.4916952 13.2380321,68.6817905 L13.2380321,68.6989333 C13.5659552,68.7678857 13.7217849,68.9404571 13.8307144,69.285219 L14.5947336,71.7008381 L13.8541644,71.7008381 L13.2304676,69.6650286 C13.0746379,69.1648381 12.8794726,68.9751238 12.3650835,68.9751238 L12.0530459,68.9751238 L12.0530459,71.7008381 L11.3669415,71.7008381 L11.3669415,65.6795048 Z" id="Fill-11"></path>
                    <polygon id="Fill-13" points="16.9720436 65.6796952 18.032593 65.6796952 19.396859 70.4671238 19.4123663 70.4671238 20.8080252 65.6796952 21.8371817 65.6796952 21.8371817 71.7010286 21.1824702 71.7010286 21.1824702 66.5078857 21.1669629 66.5078857 19.6230389 71.7010286 19.1237789 71.7010286 17.6426407 66.5078857 17.6267551 66.5078857 17.6267551 71.7010286 16.9720436 71.7010286"></polygon>
                    <path d="M31.8309311,66.5509714 C31.5737365,66.3784 31.2382489,66.274781 30.9031395,66.274781 C30.3883721,66.274781 30.0532627,66.6633524 30.0532627,67.1723048 C30.0532627,67.5601143 30.193585,67.8016381 30.9731115,68.3022095 C31.8150456,68.8370667 32.0960685,69.3631619 32.0960685,70.0530667 C32.0960685,71.010781 31.557851,71.7616381 30.5131871,71.7616381 C30.0767128,71.7616381 29.6633103,71.6576381 29.3747229,71.5025905 L29.3747229,70.7178286 C29.6867604,70.9243048 30.0922201,71.1056381 30.4118222,71.1056381 C31.0275763,71.1056381 31.3785712,70.6484952 31.3785712,70.1566857 C31.3785712,69.690781 31.2696418,69.4237333 30.5366372,68.9319238 C29.5540026,68.2763048 29.3357654,67.9052571 29.3357654,67.1292571 C29.3357654,66.1368762 30.0218698,65.6195429 30.8482965,65.6195429 C31.2072343,65.6195429 31.5892439,65.7056381 31.8309311,65.8176381 L31.8309311,66.5509714 Z" id="Fill-15"></path>
                    <polygon id="Fill-18" points="34.6057581 65.6796952 37.1398812 65.6796952 37.1398812 66.3353143 35.2918625 66.3353143 35.2918625 68.2503619 37.0540236 68.2503619 37.0540236 68.905981 35.2918625 68.905981 35.2918625 71.0454095 37.2412461 71.0454095 37.2412461 71.7010286 34.6057581 71.7010286"></polygon>
                    <path d="M40.4603389,68.3537905 L40.9906136,68.3537905 C41.7236182,68.3537905 42.0042629,67.8189333 42.0042629,67.2928381 C42.0042629,66.6200762 41.6063677,66.3008381 41.0061209,66.3008381 L40.4603389,66.3008381 L40.4603389,68.3537905 Z M39.7742345,65.6795048 L41.1698934,65.6795048 C41.74669,65.6795048 42.0666704,65.8353143 42.3159222,66.0936 C42.5965669,66.3873143 42.7217601,66.8010286 42.7217601,67.2410286 C42.7217601,67.8795048 42.44868,68.4916952 41.6453251,68.6817905 L41.6453251,68.6989333 C41.9732482,68.7678857 42.1290779,68.9404571 42.2380073,69.285219 L43.0020265,71.7008381 L42.2614574,71.7008381 L41.6377606,69.6650286 C41.4819309,69.1648381 41.2867656,68.9751238 40.7723765,68.9751238 L40.4603389,68.9751238 L40.4603389,71.7008381 L39.7742345,71.7008381 L39.7742345,65.6795048 Z" id="Fill-20"></path>
                    <polygon id="Fill-22" points="44.6542748 65.6796952 45.4027867 65.6796952 46.6656877 70.5882667 46.6815733 70.5882667 48.0148246 65.6796952 48.700929 65.6796952 46.9936108 71.7010286 46.3071282 71.7010286"></polygon>
                    <polygon id="Fill-24" points="50.9298226 71.7009524 51.615927 71.7009524 51.615927 65.679619 50.9298226 65.679619"></polygon>
                    <path d="M57.5880609,71.5799619 C57.2601378,71.6923429 56.9174638,71.7616762 56.5974835,71.7616762 C54.874658,71.7616762 54.149218,70.3121524 54.149218,68.6820571 C54.149218,66.8009143 55.1394172,65.619581 56.5589043,65.619581 C56.9484785,65.619581 57.3384308,65.6969143 57.5880609,65.8352 L57.5880609,66.5769143 C57.2919089,66.3696762 56.9484785,66.274819 56.5664689,66.274819 C55.6776346,66.274819 54.8667152,67.0599619 54.8667152,68.5262476 C54.8667152,70.0793905 55.4280046,71.1056762 56.6129908,71.1056762 C56.9639858,71.1056762 57.3074162,71.0020571 57.5880609,70.8211048 L57.5880609,71.5799619 Z" id="Fill-26"></path>
                    <polygon id="Fill-27" points="60.1204063 65.6796952 62.6549076 65.6796952 62.6549076 66.3353143 60.8065107 66.3353143 60.8065107 68.2503619 62.5694283 68.2503619 62.5694283 68.905981 60.8065107 68.905981 60.8065107 71.0454095 62.7562726 71.0454095 62.7562726 71.7010286 60.1204063 71.7010286"></polygon>
                    <path d="M72.3293197,69.4750476 L71.494572,66.4735238 L71.4790647,66.4735238 L70.6212451,69.4750476 L72.3293197,69.4750476 Z M71.8845244,65.679619 L73.662571,71.7009524 L72.945452,71.7009524 L72.5089777,70.1310476 L70.4344008,70.1310476 L69.9979264,71.7009524 L69.3114438,71.7009524 L71.1363907,65.679619 L71.8845244,65.679619 Z" id="Fill-28"></path>
                    <path d="M79.3147246,71.4505143 C78.9947443,71.5800381 78.4489622,71.7613714 77.9659659,71.7613714 C76.242384,71.7613714 75.516944,70.3122286 75.516944,68.6817524 C75.516944,66.8009905 76.5075213,65.6192762 77.9266303,65.6192762 C78.3941193,65.6192762 78.8309718,65.6886095 79.2054169,65.8867048 L79.2054169,66.6459429 C78.7916362,66.4128 78.33209,66.2748952 77.9341948,66.2748952 C77.0453606,66.2748952 76.234063,67.0600381 76.234063,68.5263238 C76.234063,70.0790857 76.7957306,71.1057524 77.9814732,71.1057524 C78.1993322,71.1057524 78.4799769,71.0455619 78.6596348,70.9415619 L78.6596348,69.0440381 L77.7469723,69.0440381 L77.7469723,68.388419 L79.3147246,68.388419 L79.3147246,71.4505143 Z" id="Fill-29"></path>
                    <polygon id="Fill-30" points="82.0730987 65.6796952 84.6068435 65.6796952 84.6068435 66.3353143 82.759203 66.3353143 82.759203 68.2503619 84.5213642 68.2503619 84.5213642 68.905981 82.759203 68.905981 82.759203 71.0454095 84.7082085 71.0454095 84.7082085 71.7010286 82.0730987 71.7010286"></polygon>
                    <polygon id="Fill-31" points="87.2412347 65.6796952 88.0907333 65.6796952 90.1414818 70.6484571 90.1569892 70.6484571 90.1569892 65.6796952 90.8120789 65.6796952 90.8120789 71.7010286 89.9625803 71.7010286 87.9118317 66.7669333 87.8963244 66.7669333 87.8963244 71.7010286 87.2412347 71.7010286"></polygon>
                    <path d="M96.7840993,71.5799619 C96.4569327,71.6923429 96.1135022,71.7616762 95.7942784,71.7616762 C94.0706964,71.7616762 93.3452564,70.3121524 93.3452564,68.6820571 C93.3452564,66.8009143 94.3358338,65.619581 95.7549427,65.619581 C96.1452733,65.619581 96.5344693,65.6969143 96.7840993,65.8352 L96.7840993,66.5769143 C96.4879473,66.3696762 96.1452733,66.274819 95.7625073,66.274819 C94.8736731,66.274819 94.0627537,67.0599619 94.0627537,68.5262476 C94.0627537,70.0793905 94.624043,71.1056762 95.8097857,71.1056762 C96.1607807,71.1056762 96.5034546,71.0020571 96.7840993,70.8211048 L96.7840993,71.5799619 Z" id="Fill-32"></path>
                    <polygon id="Fill-33" points="100.393485 69.1733714 98.7637033 65.6796571 99.5432298 65.6796571 100.743723 68.345181 101.95216 65.6796571 102.708614 65.6796571 101.078833 69.1733714 101.078833 71.7009905 100.393485 71.7009905"></polygon>
                </g>
            </g>
        </g>
    </g>
</svg>