<?xml version="1.0" encoding="UTF-8" standalone="no"?>
<svg width="95px" height="66px" viewBox="0 0 95 66" version="1.1" xmlns="http://www.w3.org/2000/svg" xmlns:xlink="http://www.w3.org/1999/xlink">
    <!-- Generator: Sketch 39.1 (31720) - http://www.bohemiancoding.com/sketch -->
    <title>usda</title>
    <desc>Created with Sketch.</desc>
    <defs></defs>
    <g id="live" stroke="none" stroke-width="1" fill="none" fill-rule="evenodd">
        <g id="landing" transform="translate(-99.000000, -1121.000000)" fill="#717171">
            <g id="sponsors" transform="translate(0.000000, 1080.000000)">
                <g id="usda" transform="translate(99.000000, 41.000000)">
                    <path d="M21.5413698,3.23565136 L21.424967,19.6522643 C21.424967,26.4758809 17.3767368,29.1246836 11.9381401,29.1246836 C7.24969469,29.1246836 1.28340535,27.0385732 1.28340535,19.9323139 L1.28340535,3.23565136 C1.28340535,2.31122829 0.640603318,1.74983251 0.000388009278,1.42829404 L7.68814517,1.42829404 C7.04922323,1.74983251 6.44780884,2.31122829 6.44780884,3.23565136 L6.44780884,20.0528908 C6.44780884,22.8637593 7.40877849,26.8376117 12.6106895,26.8376117 C17.3767368,26.8376117 19.1020848,23.7065012 19.1020848,19.7313524 L19.0244829,3.23565136 C19.0244829,2.31122829 18.5433514,1.74983251 17.9406437,1.42829404 L22.5877014,1.42829404 C21.9837003,1.74983251 21.5413698,2.31122829 21.5413698,3.23565136" id="Fill-1"></path>
                    <path d="M32.3877811,29.1244243 C28.7495474,29.1244243 26.1046175,27.8797593 24.7064908,27.2003797 L24.5021392,20.4156588 C25.2652241,23.26283 27.6631215,27.0396104 31.8303411,27.0396104 C35.7957959,27.0396104 36.9973313,24.1885496 36.9973313,22.2217196 C36.9973313,18.3658511 33.5091279,17.8446476 29.8708943,15.8778176 C26.1860995,13.830603 24.5849145,11.6654045 24.5849145,8.61467866 C24.5849145,3.15630397 29.6678361,0.988512407 33.3151233,0.988512407 C34.6757425,0.988512407 37.3142056,1.26726551 39.3577211,2.47173821 L39.5568992,8.4124206 C38.9994592,6.28611787 36.7166713,3.0733263 32.8689126,3.0733263 C29.8282132,3.0733263 28.6279712,5.20092556 28.6279712,6.92789826 C28.6279712,9.37573945 30.3507324,10.3001625 34.1118357,12.0258387 C37.8406048,13.7930037 41.721991,15.1167568 41.721991,20.6983015 C41.721991,25.7145608 37.3142056,29.1244243 32.3877811,29.1244243" id="Fill-3"></path>
                    <path d="M54.6503308,28.7230199 L44.3642048,28.7230199 C44.9630325,28.3625856 45.4079498,27.7998933 45.4079498,26.9156625 L45.4079498,3.23591067 C45.4079498,2.31148759 44.9630325,1.75009181 44.3642048,1.42855335 L55.0163529,1.42855335 C68.1879745,1.42855335 70.8290243,10.7829888 70.8290243,14.6738635 C70.8290243,21.6595459 65.4641494,28.7230199 54.6503308,28.7230199 M54.1756661,3.43557568 C53.2108164,3.43557568 51.089699,3.43557568 50.4869912,3.51725682 L50.4869912,26.6369094 L53.6906545,26.6369094 C62.7442043,26.6369094 65.2662646,20.5341613 65.2662646,14.6738635 C65.2662646,9.85986228 62.4609575,3.43557568 54.1756661,3.43557568" id="Fill-5"></path>
                    <path d="M86.3958272,28.7230199 C87.4343987,28.1603275 87.6387503,27.6002283 87.3580902,26.7574864 C87.2352206,26.3568598 86.1966491,23.905129 85.0765957,21.1785347 L75.2664277,21.1785347 C74.063599,23.905129 73.1039227,26.2751787 73.019854,26.717294 C72.6628855,27.6806129 72.8607702,28.2407122 73.9446095,28.7230199 L68.4206507,28.7230199 C69.5419975,27.9619591 69.8989661,27.5198437 70.2973223,26.7574864 C71.0604072,25.2327717 81.5922723,0.58710794 81.5922723,0.58710794 C81.5922723,0.58710794 92.2457137,25.2327717 92.9648243,26.7574864 C93.3657672,27.6002283 93.6425471,28.0423437 94.9669521,28.7230199 L86.3958272,28.7230199 M80.0699826,9.25697767 C80.0699826,9.25697767 77.3448641,16.0805943 76.0670202,19.0898313 L84.1557203,19.0898313 C82.2738753,14.6323747 80.0699826,9.25697767 80.0699826,9.25697767" id="Fill-7"></path>
                    <path d="M93.7645114,32.5783697 C93.7645114,32.5783697 35.493278,31.1288536 0.982439492,49.5654541 C0.982439492,49.5654541 37.5587808,35.0638102 93.7645114,36.5146228 L93.7645114,32.5783697" id="Fill-10"></path>
                    <path d="M0.982051482,32.5783697 C0.982051482,32.5783697 20.6140276,32.7858139 32.8039857,37.343103 C32.8039857,37.343103 7.80066786,35.2712543 0.982051482,36.3084752 L0.982051482,32.5783697" id="Fill-12"></path>
                    <path d="M0.982051482,39.002786 C0.982051482,39.002786 15.0344542,38.3804535 23.5046967,39.2089336 C23.5046967,39.2089336 3.0514343,41.691781 0.982051482,42.7264088 L0.982051482,39.002786" id="Fill-14"></path>
                    <path d="M84.1085125,39.6345831 C84.0140969,39.6281005 83.8873472,39.6397692 83.8071586,39.6423623 C66.8615001,39.9677903 31.3276104,42.0163015 0.998218536,52.7580199 L0.998218536,65.7012395 L93.775117,65.7012395 L93.775117,39.6345831 C93.775117,39.6345831 90.1743909,39.5230819 84.1085125,39.6345831" id="Fill-16"></path>
                </g>
            </g>
        </g>
    </g>
</svg>