<?xml version="1.0" encoding="UTF-8" standalone="no"?>
<svg width="171px" height="49px" viewBox="0 0 171 49" version="1.1" xmlns="http://www.w3.org/2000/svg" xmlns:xlink="http://www.w3.org/1999/xlink">
    <!-- Generator: Sketch 39.1 (31720) - http://www.bohemiancoding.com/sketch -->
    <title>walmart</title>
    <desc>Created with Sketch.</desc>
    <defs></defs>
    <g id="live" stroke="none" stroke-width="1" fill="none" fill-rule="evenodd">
        <g id="landing" transform="translate(-300.000000, -1130.000000)" fill="#717171">
            <g id="sponsors" transform="translate(0.000000, 1080.000000)">
                <g id="walmart" transform="translate(300.000000, 50.000000)">
                    <path d="M3.64168825,43.9790267 C4.10429131,44.2174934 4.81567462,44.4568423 5.54832368,44.4568423 C6.33865247,44.4568423 6.75697615,44.1272231 6.75697615,43.6258843 C6.75697615,43.1468925 6.39574957,42.8749052 5.48103066,42.5441098 C4.21702896,42.0977566 3.39349063,41.3935299 3.39349063,40.2761766 C3.39349063,38.9656388 4.47687905,37.9632552 6.27077683,37.9632552 C7.12898126,37.9632552 7.76112777,38.1461483 8.21266099,38.3522706 L7.8287121,39.7527848 C7.524,39.6045885 6.98186882,39.3869986 6.23727598,39.3869986 C5.49239182,39.3869986 5.13174787,39.7304377 5.13174787,40.1273922 C5.13174787,40.6178515 5.55997615,40.8336771 6.5425707,41.2097547 C7.88493526,41.7116816 8.51737308,42.4176725 8.51737308,43.4988588 C8.51737308,44.7870496 7.53536116,45.8920532 5.44694719,45.8920532 C4.57825554,45.8920532 3.72092504,45.6550567 3.29211414,45.4142377 L3.64168825,43.9790267" id="Fill-1"></path>
                    <path d="M14.3179727,44.4115601 C14.3179727,44.9473016 14.3406951,45.4595199 14.3972095,45.766498 L12.8509267,45.766498 L12.7495503,45.2081154 L12.7154668,45.2081154 C12.3539489,45.6550567 11.790552,45.8920532 11.1359744,45.8920532 C10.0179199,45.8920532 9.35227257,45.0725628 9.35227257,44.1836788 C9.35227257,42.7375884 10.6389966,42.042477 12.5919506,42.0533565 L12.5919506,41.9730835 C12.5919506,41.677867 12.4331857,41.2565071 11.5872164,41.2565071 C11.0217802,41.2565071 10.4245911,41.4499857 10.0636559,41.677867 L9.74729131,40.5613958 C10.1312402,40.344394 10.8871942,40.0703484 11.8916371,40.0703484 C13.7306882,40.0703484 14.3179727,41.1656487 14.3179727,42.4750103 L14.3179727,44.4115601 L14.3179727,44.4115601 Z M12.6481738,43.1348369 C11.744816,43.1239574 11.0450852,43.3409592 11.0450852,44.0125473 C11.0450852,44.4568423 11.3384361,44.6741381 11.722385,44.6741381 C12.1509046,44.6741381 12.5013526,44.389213 12.6143816,44.0354825 C12.6365213,43.9452121 12.6481738,43.8420039 12.6481738,43.7396779 L12.6481738,43.1348369 L12.6481738,43.1348369 Z" id="Fill-2"></path>
                    <path d="M16.8124753,40.1967857 L17.5573595,42.7822825 C17.6928194,43.2509828 17.7944872,43.6943957 17.8734327,44.1375145 L17.9072249,44.1375145 C17.9975315,43.6817519 18.0878382,43.2612742 18.211937,42.7822825 L18.9224463,40.1967857 L20.7288705,40.1967857 L18.67454,45.766498 L16.9592964,45.766498 L14.9504106,40.1967857 L16.8124753,40.1967857" id="Fill-3"></path>
                    <path d="M22.6707547,43.5341437 C22.7261039,44.25072 23.4261261,44.5941591 24.2281073,44.5941591 C24.8142266,44.5941591 25.2884821,44.513298 25.7513765,44.3668659 L25.9771431,45.5400869 C25.4122896,45.766498 24.7247939,45.8920532 23.9790358,45.8920532 C22.1050273,45.8920532 21.033,44.7870496 21.033,43.0442725 C21.033,41.6331728 21.9028569,40.0703484 23.8211448,40.0703484 C25.6042641,40.0703484 26.2818552,41.4717447 26.2818552,42.8499118 C26.2818552,43.1468925 26.2474804,43.4100586 26.2250494,43.5341437 L22.6707547,43.5341437 L22.6707547,43.5341437 Z M24.6907104,42.3491611 C24.6907104,41.9289774 24.5095145,41.2218104 23.7197683,41.2218104 C22.9970239,41.2218104 22.7039642,41.8831071 22.6585196,42.3491611 L24.6907104,42.3491611 L24.6907104,42.3491611 Z" id="Fill-4"></path>
                    <path d="M29.5885349,41.9730835 C29.5885349,41.2788542 29.5658126,40.6860689 29.542799,40.1967857 L30.9877053,40.1967857 L31.0666508,40.9486469 L31.1007342,40.9486469 C31.3381533,40.5952104 31.8231874,40.0703484 32.7714072,40.0703484 C33.4819165,40.0703484 34.0464787,40.4352524 34.2836065,41.0162762 L34.3060375,41.0162762 C34.5090818,40.7192954 34.7575707,40.504646 35.0168382,40.344394 C35.3218416,40.1617949 35.6603458,40.0703484 36.067017,40.0703484 C37.1271005,40.0703484 37.9284991,40.8233857 37.9284991,42.4864779 L37.9284991,45.766498 L36.2584089,45.766498 L36.2584089,42.7375884 C36.2584089,41.9289774 35.9988501,41.4608652 35.4462317,41.4608652 C35.0506303,41.4608652 34.7689319,41.7346167 34.6559029,42.0654121 C34.6107496,42.1900852 34.5877359,42.3726843 34.5877359,42.508825 L34.5877359,45.766498 L32.917937,45.766498 L32.917937,42.6449657 C32.917937,41.9398569 32.6691567,41.4608652 32.1281908,41.4608652 C31.6877274,41.4608652 31.4287513,41.8031281 31.3267922,42.0868771 C31.2696951,42.2236058 31.2586252,42.3838578 31.2586252,42.5202926 L31.2586252,45.766498 L29.5885349,45.766498 L29.5885349,41.9730835" id="Fill-5"></path>
                    <path d="M44.7454855,42.9195993 C44.7454855,44.957887 43.3116491,45.8920532 41.8338245,45.8920532 C40.2202487,45.8920532 38.9780954,44.8217464 38.9780954,43.0225135 C38.9780954,41.2218104 40.1526644,40.0703484 41.9238399,40.0703484 C43.6166525,40.0703484 44.7454855,41.2456276 44.7454855,42.9195993 L44.7454855,42.9195993 Z M40.7504361,42.9763491 C40.7504361,43.9337445 41.1451635,44.6509089 41.8789779,44.6509089 C42.5443339,44.6509089 42.9737274,43.9790267 42.9737274,42.9763491 C42.9737274,42.1436269 42.6576542,41.3029655 41.8789779,41.3029655 C41.0548569,41.3029655 40.7504361,42.1550944 40.7504361,42.9763491 L40.7504361,42.9763491 Z" id="Fill-6"></path>
                    <path d="M45.8058603,41.9730835 C45.8058603,41.2788542 45.7837206,40.6860689 45.7615809,40.1967857 L47.2504753,40.1967857 L47.3300034,40.9589383 L47.3629216,40.9589383 C47.5898535,40.6052078 48.153833,40.0703484 49.067678,40.0703484 C50.1970937,40.0703484 51.0433543,40.8233857 51.0433543,42.4629547 L51.0433543,45.766498 L49.3272368,45.766498 L49.3272368,42.6799565 C49.3272368,41.962204 49.0790392,41.4717447 48.4585451,41.4717447 C47.9842896,41.4717447 47.7022998,41.8031281 47.5898535,42.1218679 C47.5441175,42.2350734 47.5216865,42.3962075 47.5216865,42.5549893 L47.5216865,45.766498 L45.8058603,45.766498 L45.8058603,41.9730835" id="Fill-7"></path>
                    <path d="M53.7403186,43.5341437 C53.796833,44.25072 54.4965639,44.5941591 55.2982538,44.5941591 C55.885247,44.5941591 56.3586286,44.513298 56.821523,44.3668659 L57.0481635,45.5400869 C56.4824361,45.766498 55.7940664,45.8920532 55.0497649,45.8920532 C53.1760477,45.8920532 52.1040204,44.7870496 52.1040204,43.0442725 C52.1040204,41.6331728 52.9732947,40.0703484 54.8918739,40.0703484 C56.6749932,40.0703484 57.3520017,41.4717447 57.3520017,42.8499118 C57.3520017,43.1468925 57.3187922,43.4100586 57.2954872,43.5341437 L53.7403186,43.5341437 L53.7403186,43.5341437 Z M55.7605656,42.3491611 C55.7605656,41.9289774 55.5805349,41.2218104 54.7902061,41.2218104 C54.0674617,41.2218104 53.7738194,41.8831071 53.72954,42.3491611 L55.7605656,42.3491611 L55.7605656,42.3491611 Z" id="Fill-8"></path>
                    <path d="M59.5980153,40.1967857 L60.4221363,42.931655 C60.5124429,43.2612742 60.6248893,43.6714605 60.6921823,43.9675591 L60.7259744,43.9675591 C60.8052112,43.6714605 60.8958092,43.2509828 60.975046,42.931655 L61.6520545,40.1967857 L63.4919796,40.1967857 L62.2046729,43.8649391 C61.4152181,46.0746523 60.8841567,46.9632422 60.2645366,47.5207427 C59.6653083,48.0453107 59.0337445,48.2273217 58.6049336,48.2840714 L58.243707,46.8156339 C58.4584037,46.7806431 58.7287411,46.6794933 58.9885911,46.5198294 C59.2484412,46.3819244 59.5298484,46.109349 59.6996831,45.8232478 C59.7561976,45.744445 59.7899898,45.6550567 59.7899898,45.5733135 C59.7899898,45.5177399 59.7783373,45.4262933 59.7104617,45.2895645 L57.6907973,40.1967857 L59.5980153,40.1967857" id="Fill-9"></path>
                    <path d="M65.0793373,45.8920532 C64.50254,45.8920532 64.0862555,45.4486404 64.0862555,44.8435053 C64.0862555,44.2301372 64.50254,43.7855482 65.101477,43.7855482 C65.700414,43.7855482 66.1062112,44.2174934 66.1062112,44.8435053 C66.1062112,45.4486404 65.700414,45.8920532 65.0901158,45.8920532 L65.0793373,45.8920532" id="Fill-10"></path>
                    <polyline id="Fill-11" points="69.9357956 38.0879284 71.662983 38.0879284 71.662983 44.309234 74.6879642 44.309234 74.6879642 45.766498 69.9357956 45.766498 69.9357956 38.0879284"></polyline>
                    <path d="M77.6441959,38.6471931 C77.6441959,39.1267729 77.2832606,39.5146121 76.7189898,39.5146121 C76.1768586,39.5146121 75.816506,39.1267729 75.8278671,38.6471931 C75.816506,38.1461483 76.1768586,37.7715409 76.7300596,37.7715409 C77.2832606,37.7715409 77.6331261,38.1461483 77.6441959,38.6471931 L77.6441959,38.6471931 Z M75.8718552,40.1967857 L77.5876814,40.1967857 L77.5876814,45.7662039 L75.8718552,45.7662039 L75.8718552,40.1967857 Z" id="Fill-12"></path>
                    <path d="M80.4661329,40.1967857 L81.2107257,42.7822825 C81.3447291,43.2509828 81.4481448,43.6943957 81.5265077,44.1375145 L81.5600085,44.1375145 C81.6497325,43.6817519 81.7412044,43.2612742 81.8658859,42.7822825 L82.5772692,40.1967857 L84.383402,40.1967857 L82.3287802,45.766498 L80.6114974,45.766498 L78.6037768,40.1967857 L80.4661329,40.1967857" id="Fill-13"></path>
                    <path d="M86.3244123,43.5341437 C86.3806354,44.25072 87.0806576,44.5941591 87.880891,44.5941591 C88.4684668,44.5941591 88.942431,44.513298 89.4050341,44.3668659 L89.6305094,45.5400869 C89.0659472,45.766498 88.3775775,45.8920532 87.6338586,45.8920532 C85.7601414,45.8920532 84.6869489,44.7870496 84.6869489,43.0442725 C84.6869489,41.6331728 85.5568058,40.0703484 87.4748024,40.0703484 C89.2582129,40.0703484 89.9360954,41.4717447 89.9360954,42.8499118 C89.9360954,43.1468925 89.9017206,43.4100586 89.8772504,43.5341437 L86.3244123,43.5341437 L86.3244123,43.5341437 Z M88.3452419,42.3491611 C88.3452419,41.9289774 88.1649199,41.2218104 87.3731346,41.2218104 C86.6498075,41.2218104 86.3573305,41.8831071 86.3136337,42.3491611 L88.3452419,42.3491611 L88.3452419,42.3491611 Z" id="Fill-14"></path>
                    <path d="M93.2427751,37.6792123 L94.9571448,37.6792123 L94.9571448,40.8577884 L94.9804497,40.8577884 C95.3081755,40.3782086 95.8840988,40.0703484 96.6517053,40.0703484 C97.9707649,40.0703484 98.9428722,41.1771162 98.9297632,42.8857847 C98.9297632,44.8899637 97.6669267,45.8920532 96.4032164,45.8920532 C95.7605826,45.8920532 95.1380494,45.6550567 94.7430307,44.9928778 L94.7203083,44.9928778 L94.6521414,45.766498 L93.1973305,45.766498 C93.2188876,45.4033582 93.2427751,44.7308879 93.2427751,44.1042879 L93.2427751,37.6792123 L93.2427751,37.6792123 Z M94.9571448,43.3974149 C94.9571448,43.5112085 94.9690886,43.6150048 94.9912283,43.7064513 C95.1033833,44.1716231 95.4986934,44.5247656 95.9965451,44.5247656 C96.7303595,44.5247656 97.1816014,43.9555035 97.1816014,42.953414 C97.1816014,42.0868771 96.7973612,41.4044094 95.9965451,41.4044094 C95.5327768,41.4044094 95.1033833,41.7566698 94.9912283,42.2591847 C94.9690886,42.3612167 94.9571448,42.4629547 94.9571448,42.5791006 L94.9571448,43.3974149 L94.9571448,43.3974149 Z" id="Fill-15"></path>
                    <path d="M101.346777,43.5341437 C101.403,44.25072 102.10244,44.5941591 102.902964,44.5941591 C103.490249,44.5941591 103.964213,44.513298 104.426816,44.3668659 L104.652874,45.5400869 C104.089186,45.766498 103.399068,45.8920532 102.653893,45.8920532 C100.781049,45.8920532 99.7096048,44.7870496 99.7096048,43.0442725 C99.7096048,41.6331728 100.578588,40.0703484 102.498041,40.0703484 C104.28116,40.0703484 104.957295,41.4717447 104.957295,42.8499118 C104.957295,43.1468925 104.923794,43.4100586 104.901654,43.5341437 L101.346777,43.5341437 L101.346777,43.5341437 Z M103.364985,42.3491611 C103.364985,41.9289774 103.183497,41.2218104 102.396664,41.2218104 C101.674503,41.2218104 101.380278,41.8831071 101.334542,42.3491611 L103.364985,42.3491611 L103.364985,42.3491611 Z" id="Fill-16"></path>
                    <path d="M108.127932,38.6813018 L108.127932,40.1967857 L109.360181,40.1967857 L109.360181,41.4717447 L108.127932,41.4717447 L108.127932,43.4885674 C108.127932,44.1610377 108.286697,44.4683099 108.805523,44.4683099 C109.042359,44.4683099 109.145775,44.4568423 109.314736,44.4224396 L109.325514,45.7335655 C109.099748,45.8232478 108.692785,45.8920532 108.206295,45.8920532 C107.653968,45.8920532 107.192239,45.6882833 106.921319,45.4033582 C106.604954,45.0725628 106.446772,44.5368213 106.446772,43.7517335 L106.446772,41.4717447 L105.71354,41.4717447 L105.71354,40.1967857 L106.446772,40.1967857 L106.446772,39.1482378 L108.127932,38.6813018" id="Fill-17"></path>
                    <path d="M112.496734,38.6813018 L112.496734,40.1967857 L113.724905,40.1967857 L113.724905,41.4717447 L112.496734,41.4717447 L112.496734,43.4885674 C112.496734,44.1610377 112.654917,44.4683099 113.172286,44.4683099 C113.409705,44.4683099 113.511373,44.4568423 113.681499,44.4224396 L113.691695,45.7335655 C113.466511,45.8232478 113.061005,45.8920532 112.574514,45.8920532 C112.02277,45.8920532 111.559002,45.6882833 111.288082,45.4033582 C110.9723,45.0725628 110.814409,44.5368213 110.814409,43.7517335 L110.814409,41.4717447 L110.080012,41.4717447 L110.080012,40.1967857 L110.814409,40.1967857 L110.814409,39.1482378 L112.496734,38.6813018" id="Fill-18"></path>
                    <path d="M116.264852,43.5341437 C116.321366,44.25072 117.02168,44.5941591 117.825118,44.5941591 C118.410072,44.5941591 118.883744,44.513298 119.346056,44.3668659 L119.570949,45.5400869 C119.008135,45.766498 118.321221,45.8920532 117.575172,45.8920532 C115.702037,45.8920532 114.63001,44.7870496 114.63001,43.0442725 C114.63001,41.6331728 115.499576,40.0703484 117.418155,40.0703484 C119.199526,40.0703484 119.878283,41.4717447 119.878283,42.8499118 C119.878283,43.1468925 119.844199,43.4100586 119.820312,43.5341437 L116.264852,43.5341437 L116.264852,43.5341437 Z M118.286555,42.3491611 C118.286555,41.9289774 118.105651,41.2218104 117.316487,41.2218104 C116.592578,41.2218104 116.299809,41.8831071 116.253491,42.3491611 L118.286555,42.3491611 L118.286555,42.3491611 Z" id="Fill-19"></path>
                    <path d="M121.128884,42.0301273 C121.128884,41.2097547 121.107618,40.6757775 121.085479,40.1967857 L122.564468,40.1967857 L122.620983,41.2218104 L122.666428,41.2218104 C122.948126,40.4114352 123.624552,40.0703484 124.154157,40.0703484 C124.311756,40.0703484 124.391576,40.0703484 124.515383,40.0932835 L124.515383,41.7346167 C124.391576,41.6993319 124.244755,41.677867 124.052489,41.677867 C123.420925,41.677867 122.992988,42.0195418 122.88025,42.5549893 C122.858111,42.669665 122.84675,42.8058057 122.84675,42.9425345 L122.84675,45.766498 L121.128884,45.766498 L121.128884,42.0301273" id="Fill-20"></path>
                    <path d="M126.281315,45.8920532 C125.705683,45.8920532 125.290273,45.4486404 125.290273,44.8435053 C125.290273,44.2301372 125.705683,43.7855482 126.304037,43.7855482 C126.902101,43.7855482 127.30848,44.2174934 127.30848,44.8435053 C127.30848,45.4486404 126.902101,45.8920532 126.292676,45.8920532 L126.281315,45.8920532" id="Fill-21"></path>
                    <path d="M150.530688,13.9022276 C151.483278,13.9022276 152.267489,13.4029471 152.373526,12.7563524 L153.315046,2.01888103 C153.315046,0.957395372 152.08338,0.0852717008 150.533601,0.0852717008 C148.986736,0.0852717008 147.756818,0.957395372 147.756818,2.01888103 L148.696298,12.7563524 C148.800005,13.4029471 149.58509,13.9022276 150.534184,13.9022276 L150.530688,13.9022276" id="Fill-22"></path>
                    <path d="M144.780777,17.256934 C145.258819,16.4250938 145.221823,15.4891634 144.718727,15.0742725 L135.974714,8.88413506 C135.066404,8.35339224 133.702482,8.99263595 132.928467,10.3463977 C132.152704,11.6989833 132.290203,13.2100567 133.198221,13.7405054 L142.879094,18.2904858 C143.485313,18.518073 144.309143,18.0823052 144.784273,17.2507591 L144.780777,17.256934" id="Fill-23"></path>
                    <path d="M156.284678,17.2507591 C156.761555,18.0823052 157.582763,18.518073 158.188983,18.2904858 L167.871312,13.7405054 C168.783118,13.2100567 168.913917,11.6989833 168.143106,10.3463977 C167.365886,8.99263595 166.000508,8.35339224 165.093945,8.88413506 L156.349641,15.0742725 C155.849458,15.4891634 155.812462,16.4250938 156.288174,17.256934 L156.284678,17.2507591" id="Fill-24"></path>
                    <path d="M150.530688,27.31429 C151.483278,27.31429 152.267489,27.8109242 152.373526,28.4569308 L153.315046,39.1941081 C153.315046,40.257064 152.08338,41.1271294 150.533601,41.1271294 C148.986736,41.1271294 147.756818,40.257064 147.756818,39.1941081 L148.696298,28.4569308 C148.800005,27.8109242 149.58509,27.31429 150.534184,27.31429 L150.530688,27.31429" id="Fill-25"></path>
                    <path d="M156.284678,23.9607598 C156.761555,23.1277435 157.582763,22.6952102 158.188983,22.9254438 L167.871312,27.4704254 C168.783118,28.0026385 168.913917,29.514888 168.143106,30.8686497 C167.365886,32.2180009 166.000508,32.8595969 165.093945,32.3300303 L156.349641,26.1448916 C155.849458,25.7250019 155.812462,24.7902477 156.288174,23.9589956 L156.284678,23.9607598" id="Fill-26"></path>
                    <path d="M144.780777,23.9589956 C145.258819,24.7902477 145.221823,25.7250019 144.718727,26.1448916 L135.974714,32.3300303 C135.066404,32.8595969 133.702482,32.2180009 132.928467,30.8686497 C132.152704,29.514888 132.290203,28.0026385 133.198221,27.4704254 L142.879094,22.9254438 C143.485313,22.6952102 144.309143,23.1277435 144.784855,23.9607598 L144.780777,23.9589956" id="Fill-27"></path>
                    <path d="M100.164342,21.841317 C100.164342,17.7862066 98.4485162,14.2194972 92.650247,14.2194972 C89.6730409,14.2194972 87.3099199,15.063687 86.0202828,15.8152541 L86.9644242,19.0741033 C88.1424889,18.3237123 90.0214497,17.7024051 91.7984514,17.7024051 C94.7398262,17.6950541 95.2222385,19.3828457 95.2222385,20.4652082 L95.2222385,20.7213173 C88.8093015,20.71132 84.7574463,22.9516134 84.7574463,27.51806 C84.7574463,30.3058565 86.8210988,32.918699 90.4091857,32.918699 C92.6149983,32.918699 94.4616235,32.0301091 95.5659864,30.6060717 L95.6752283,30.6060717 C95.6752283,30.6060717 96.407586,33.698494 100.444876,32.5158638 C100.232509,31.2285551 100.164342,29.8565629 100.164342,28.2040561 L100.164342,21.841317 L100.164342,21.841317 Z M95.376925,26.1240147 C95.376925,26.454222 95.3480852,26.7947207 95.2580698,27.0925836 C94.88723,28.3319637 93.6147802,29.3799235 92.0245094,29.3799235 C90.698167,29.3799235 89.6447836,28.6201232 89.6447836,27.0131927 C89.6447836,24.5556035 92.3254344,23.8757822 95.376925,23.8919544 L95.376925,26.1240147 L95.376925,26.1240147 Z" id="Fill-28"></path>
                    <path d="M0.267715503,8.69830156 C0.267715503,8.69830156 4.45706985,26.0269814 5.12563032,28.8394773 C5.9057632,32.1224378 7.31221635,33.3306496 11.366402,32.5158638 L13.9826729,21.7713354 C14.6454072,19.1029193 15.0905315,17.2004782 15.5167206,14.4861918 L15.5915877,14.4861918 C15.8910562,17.2275299 16.3178279,19.1111524 16.8634549,21.7810388 C16.8634549,21.7810388 17.9281993,26.657992 18.4735349,29.2196715 C19.0203271,31.7807629 20.5418484,33.3941623 24.5130102,32.5158638 L30.7464991,8.69830156 L25.7137973,8.69830156 L23.5854736,18.9955945 C23.0133373,21.9927478 22.4945111,24.3350732 22.0942487,27.0769995 L22.0228773,27.0769995 C21.6587376,24.3615368 21.1961346,22.1127163 20.614385,19.1926016 L18.3983765,8.69830156 L13.1550562,8.69830156 L10.7849438,18.9282593 C10.1134702,22.0368539 9.48511073,24.5467823 9.08572232,27.1957918 L9.01376831,27.1957918 C8.60476661,24.7014475 8.05972232,21.5466886 7.46981601,18.5377737 C7.46981601,18.5377737 6.06161499,11.2202856 5.56755026,8.69830156 L0.267715503,8.69830156" id="Fill-29"></path>
                    <path d="M45.0487411,21.841317 C45.0487411,17.7862066 43.3329148,14.2194972 37.5358109,14.2194972 C34.5580221,14.2194972 32.1943186,15.063687 30.9058467,15.8152541 L31.8488228,19.0741033 C33.0280528,18.3237123 34.9052658,17.7024051 36.6831414,17.7024051 C39.6265554,17.6950541 40.1080937,19.3828457 40.1080937,20.4652082 L40.1080937,20.7213173 C33.6942828,20.71132 29.6430102,22.9516134 29.6430102,27.51806 C29.6430102,30.3058565 31.7054974,32.918699 35.2915451,32.918699 C37.4991056,32.918699 39.3451482,32.0301091 40.4515503,30.6060717 L40.5599182,30.6060717 C40.5599182,30.6060717 41.2928586,33.698494 45.3295656,32.5158638 C45.1174906,31.2285551 45.0487411,29.8565629 45.0487411,28.2040561 L45.0487411,21.841317 L45.0487411,21.841317 Z M40.2621976,26.1240147 C40.2621976,26.454222 40.2339404,26.7947207 40.1433424,27.0925836 C39.7725026,28.3319637 38.5003441,29.3799235 36.9097819,29.3799235 C35.5837308,29.3799235 34.5303475,28.6201232 34.5303475,27.0131927 C34.5303475,24.5556035 37.210707,23.8757822 40.2621976,23.8919544 L40.2621976,26.1240147 L40.2621976,26.1240147 Z" id="Fill-30"></path>
                    <polyline id="Fill-31" points="53.0362181 27.4589579 53.0362181 8.69830156 48.2450136 8.69830156 48.2450136 32.5158638 53.0362181 32.5158638 53.0362181 27.4589579"></polyline>
                    <path d="M115.728838,8.69830156 L115.728838,26.2686825 C115.728838,28.6906929 116.180663,30.3881878 117.146944,31.42468 C117.991165,32.3315005 119.381596,32.918699 121.047899,32.918699 C122.464549,32.918699 123.858475,32.6472998 124.515383,32.4003059 L124.453625,28.6212994 C123.964804,28.742444 123.402572,28.8394773 122.633509,28.8394773 C121.00129,28.8394773 120.453915,27.7841665 120.453915,25.6094441 L120.453915,18.8873877 L124.626956,18.8873877 L124.626956,14.3303504 L120.453915,14.3303504 L120.453915,8.69830156 L115.728838,8.69830156" id="Fill-32"></path>
                    <path d="M103.35945,14.6232146 L103.35945,32.5158638 L108.302428,32.5158638 L108.302428,23.3541546 C108.302428,22.8595787 108.332141,22.4285156 108.40963,22.0336194 C108.775227,20.114124 110.229746,18.8873877 112.316995,18.8873877 C112.890005,18.8873877 113.299881,18.9500183 113.743549,19.0150012 L113.743549,14.3303504 C113.371543,14.254782 113.117228,14.2194972 112.654334,14.2194972 C110.809748,14.2194972 108.711138,15.4215341 107.830211,17.9982097 L107.695917,17.9982097 L107.695917,14.6232146 L103.35945,14.6232146" id="Fill-33"></path>
                    <path d="M56.3924208,14.6232146 L56.3924208,32.5158638 L61.2092606,32.5158638 L61.2092606,22.0227399 C61.2092606,21.5308104 61.2651925,21.010653 61.4353186,20.5581249 C61.8344157,19.501638 62.8079796,18.2657864 64.3627104,18.2657864 C66.3063424,18.2657864 67.2158177,19.924762 67.2158177,22.3182505 L67.2158177,32.5158638 L72.0277053,32.5158638 L72.0277053,21.8960085 C72.0277053,21.4261321 72.0915026,20.8606925 72.2284191,20.4455075 C72.6240204,19.2437646 73.6736167,18.2657864 75.1188143,18.2657864 C77.089247,18.2657864 78.0351363,19.895358 78.0351363,22.7119705 L78.0351363,32.5158638 L82.8502283,32.5158638 L82.8502283,21.9777517 C82.8502283,16.4203892 80.0548007,14.2194972 76.8987291,14.2194972 C75.5010153,14.2194972 74.3978177,14.5735218 73.4003663,15.1913005 C72.561971,15.7108698 71.8112606,16.448617 71.1552266,17.4198323 L71.0841465,17.4198323 C70.3226576,15.4918098 68.5319642,14.2194972 66.1988484,14.2194972 C63.2003765,14.2194972 61.8533509,15.7532116 61.0362215,17.0546342 L60.9648501,17.0546342 L60.9648501,14.6232146 L56.3924208,14.6232146" id="Fill-34"></path>
                    <path d="M169.92069,31.4282085 C170.392906,31.4282085 170.759668,31.7984053 170.759668,32.2594606 C170.759668,32.7311013 170.392906,33.0962994 169.915738,33.0962994 C169.443521,33.0962994 169.066855,32.7311013 169.066855,32.2594606 C169.066855,31.7984053 169.443521,31.4282085 169.915738,31.4282085 L169.92069,31.4282085 L169.92069,31.4282085 Z M169.910785,31.5952234 C169.549267,31.5952234 169.277765,31.8945565 169.277765,32.2594606 C169.277765,32.6296574 169.549267,32.9236977 169.92069,32.9236977 C170.282499,32.9286964 170.548467,32.6296574 170.548467,32.2594606 C170.548467,31.8945565 170.282499,31.5952234 169.915738,31.5952234 L169.910785,31.5952234 L169.910785,31.5952234 Z M169.78523,32.6905237 L169.594421,32.6905237 L169.594421,31.8639763 C169.669871,31.8489803 169.775034,31.8336902 169.910785,31.8336902 C170.066637,31.8336902 170.136843,31.8592717 170.197145,31.8995552 C170.242007,31.93484 170.277256,32.0009991 170.277256,32.0771556 C170.277256,32.1733068 170.207049,32.2441705 170.106838,32.2747507 L170.106838,32.2850421 C170.186949,32.3103296 170.232102,32.3759006 170.257155,32.4876359 C170.282499,32.6143673 170.297647,32.6652363 170.317457,32.6905237 L170.111499,32.6905237 C170.086446,32.6599435 170.071298,32.5890798 170.046537,32.4929286 C170.031388,32.4014821 169.980991,32.3611985 169.875828,32.3611985 L169.78523,32.3611985 L169.78523,32.6905237 L169.78523,32.6905237 Z M169.790182,32.2241757 L169.880489,32.2241757 C169.986235,32.2241757 170.071298,32.1885969 170.071298,32.102443 C170.071298,32.0262866 170.01624,31.9757116 169.895637,31.9757116 C169.845532,31.9757116 169.810283,31.9807103 169.790182,31.985709 L169.790182,32.2241757 L169.790182,32.2241757 Z" id="Fill-35"></path>
                </g>
            </g>
        </g>
    </g>
</svg>